# Blender 5.2.0 LTS
# www.blender.org
mtllib nissan-r32-steering.mtl
o $steering_wheel0
v -0.001774 0.005956 0.006951
v 0.013285 -0.055556 0.006952
v -0.016833 -0.055556 0.006952
v -0.065437 -0.005714 0.006952
v -0.065437 0.027354 0.006951
v -0.019495 0.043624 0.006951
v 0.013285 -0.055556 0.038752
v -0.016833 -0.055556 0.038752
v -0.065437 -0.005714 0.038752
v -0.065437 0.027354 0.038752
v -0.019495 0.043624 0.038753
v -0.001774 0.005956 0.038752
v 0.061890 -0.005714 0.006952
v 0.061890 0.027354 0.006951
v 0.015947 0.043624 0.006951
v 0.061890 -0.005714 0.038752
v 0.061890 0.027354 0.038752
v 0.015947 0.043624 0.038753
v -0.065437 -0.005714 0.016053
v -0.158439 -0.029975 -0.023042
v -0.158439 -0.029975 -0.013941
v -0.158439 0.003086 -0.023042
v -0.158439 0.003086 -0.013941
v -0.065437 0.027354 0.016053
v 0.061890 -0.005714 0.016053
v 0.154892 -0.029975 -0.023042
v 0.154892 -0.029975 -0.013941
v 0.154892 0.003086 -0.023042
v 0.154892 0.003086 -0.013941
v 0.061890 0.027354 0.016053
v 0.013285 -0.055555 0.016053
v 0.026740 -0.151040 -0.023042
v 0.026740 -0.151041 -0.013941
v -0.030287 -0.151040 -0.023042
v -0.030287 -0.151041 -0.013941
v -0.016833 -0.055555 0.016053
v -0.148887 0.045375 -0.007328
v -0.158082 0.047839 -0.023814
v -0.176471 0.052765 -0.023814
v -0.185665 0.055230 -0.007327
v -0.176471 0.052766 0.009161
v -0.158082 0.047839 0.009160
v -0.148887 -0.033463 -0.007327
v -0.158082 -0.035927 -0.023814
v -0.176470 -0.040854 -0.023814
v -0.185665 -0.043318 -0.007328
v -0.176470 -0.040854 0.009161
v -0.158082 -0.035927 0.009161
v -0.109468 -0.101738 -0.007327
v -0.116199 -0.108470 -0.023814
v -0.129660 -0.121931 -0.023814
v -0.136392 -0.128662 -0.007328
v -0.129660 -0.121931 0.009161
v -0.116199 -0.108469 0.009161
v -0.041192 -0.141157 -0.007327
v -0.043656 -0.150352 -0.023814
v -0.048583 -0.168741 -0.023814
v -0.051047 -0.177935 -0.007327
v -0.048583 -0.168741 0.009160
v -0.043656 -0.150352 0.009160
v 0.037645 0.153069 -0.007327
v 0.040109 0.162264 -0.023815
v 0.045036 0.180653 -0.023814
v 0.047500 0.189847 -0.007328
v 0.045036 0.180653 0.009160
v 0.040109 0.162264 0.009161
v -0.041192 0.153069 -0.007327
v -0.043656 0.162264 -0.023815
v -0.048583 0.180653 -0.023814
v -0.051047 0.189847 -0.007328
v -0.048583 0.180653 0.009161
v -0.043656 0.162264 0.009161
v -0.109468 0.113650 -0.007327
v -0.116199 0.120381 -0.023814
v -0.129660 0.133843 -0.023814
v -0.136392 0.140574 -0.007327
v -0.129660 0.133844 0.009160
v -0.116199 0.120381 0.009160
v 0.145339 -0.033463 -0.007327
v 0.154534 -0.035927 -0.023814
v 0.172923 -0.040854 -0.023814
v 0.182118 -0.043318 -0.007328
v 0.172923 -0.040854 0.009161
v 0.154534 -0.035927 0.009161
v 0.105920 -0.101738 -0.007327
v 0.112652 -0.108470 -0.023814
v 0.126113 -0.121931 -0.023814
v 0.132844 -0.128662 -0.007328
v 0.126113 -0.121931 0.009161
v 0.112652 -0.108469 0.009161
v 0.037645 -0.141157 -0.007327
v 0.040109 -0.150352 -0.023814
v 0.045036 -0.168740 -0.023814
v 0.047500 -0.177935 -0.007327
v 0.045036 -0.168741 0.009161
v 0.040109 -0.150352 0.009161
v 0.037645 0.153069 -0.007327
v 0.040109 0.162264 -0.023815
v 0.045036 0.180653 -0.023814
v 0.047500 0.189847 -0.007328
v 0.045036 0.180653 0.009161
v 0.040109 0.162264 0.009161
v 0.105920 0.113650 -0.007327
v 0.112652 0.120381 -0.023814
v 0.126113 0.133843 -0.023814
v 0.132844 0.140574 -0.007327
v 0.126113 0.133844 0.009160
v 0.112652 0.120381 0.009160
v 0.145339 0.045375 -0.007328
v 0.154534 0.047839 -0.023814
v 0.172923 0.052767 -0.023815
v 0.182118 0.055230 -0.007327
v 0.172923 0.052766 0.009161
v 0.154534 0.047839 0.009160
v -0.001774 0.005956 0.006951
v 0.013285 -0.055556 0.006952
v -0.016833 -0.055556 0.006952
v -0.065437 -0.005714 0.006952
v -0.065437 0.027354 0.006951
v -0.019495 0.043624 0.006951
v 0.013285 -0.055556 0.038752
v -0.016833 -0.055556 0.038752
v -0.065437 -0.005714 0.038752
v -0.065437 0.027354 0.038752
v -0.019495 0.043624 0.038753
v -0.001774 0.005956 0.038752
v 0.061890 -0.005714 0.006952
v 0.061890 0.027354 0.006951
v 0.015947 0.043624 0.006951
v 0.061890 -0.005714 0.038752
v 0.061890 0.027354 0.038752
v 0.015947 0.043624 0.038753
v -0.065437 -0.005714 0.016053
v -0.158439 -0.029975 -0.023042
v -0.158439 -0.029975 -0.013941
v -0.158439 0.003086 -0.023042
v -0.158439 0.003086 -0.013941
v -0.065437 0.027354 0.016053
v 0.061890 -0.005714 0.016053
v 0.154892 -0.029975 -0.023042
v 0.154892 -0.029975 -0.013941
v 0.154892 0.003086 -0.023042
v 0.154892 0.003086 -0.013941
v 0.061890 0.027354 0.016053
v 0.013285 -0.055555 0.016053
v 0.026740 -0.151040 -0.023042
v 0.026740 -0.151041 -0.013941
v -0.030287 -0.151040 -0.023042
v -0.030287 -0.151041 -0.013941
v -0.016833 -0.055555 0.016053
vn -0.3019 -0.7162 0.6292
vn 0.5640 -0.3500 -0.7479
vn 0.3019 -0.7162 0.6292
vn -0.7184 -0.2923 0.6313
vn -0.5611 -0.3559 -0.7473
vn -0.4195 0.6559 -0.6275
vn -0.3147 -0.5497 -0.7738
vn -0.1256 0.7308 0.6709
vn -0.6549 0.4628 0.5974
vn -0.0000 -0.0000 -1.0000
vn -0.1256 0.7309 -0.6709
vn -0.0000 -0.0000 1.0000
vn 0.7184 -0.2923 0.6313
vn 0.4195 0.6559 -0.6275
vn 0.3147 -0.5497 -0.7738
vn 0.1256 0.7309 0.6709
vn 0.6549 0.4628 0.5974
vn 0.1256 0.7308 -0.6709
vn 0.0296 -0.8200 0.5715
vn -0.2708 -0.5677 -0.7774
vn -0.1111 -0.5757 0.8100
vn -0.3804 0.6696 0.6379
vn -0.4062 0.6642 -0.6275
vn 0.1110 0.5757 -0.8101
vn -0.3818 0.6440 0.6629
vn 0.2708 -0.5677 -0.7774
vn -0.0296 -0.8200 0.5715
vn 0.1111 -0.5757 0.8100
vn 0.4062 0.6642 -0.6276
vn 0.3804 0.6696 0.6379
vn -0.1110 0.5757 -0.8101
vn 0.3818 0.6440 0.6629
vn 0.8019 -0.0733 0.5930
vn 0.5768 -0.3238 -0.7500
vn 0.6036 -0.1603 0.7810
vn -0.8019 -0.0733 0.5930
vn -0.5768 -0.3238 -0.7500
vn -0.6423 0.3106 -0.7007
vn -0.6036 -0.1603 0.7810
vn 0.9659 0.2588 -0.0000
vn 0.4177 -0.1119 -0.9017
vn 0.9659 -0.2588 -0.0000
vn -0.5383 -0.1442 -0.8303
vn 0.4177 0.1119 -0.9017
vn -0.9659 -0.2588 -0.0000
vn -0.5383 0.1442 -0.8303
vn -0.5383 -0.1442 0.8303
vn -0.9659 0.2588 -0.0000
vn 0.4177 0.1119 0.9016
vn -0.5383 0.1442 0.8303
vn 0.4177 -0.1119 0.9016
vn 0.7071 0.7071 -0.0000
vn -0.3941 -0.3941 -0.8303
vn 0.3058 0.3058 -0.9017
vn -0.3941 -0.3941 0.8303
vn -0.7071 -0.7071 -0.0000
vn 0.3058 0.3058 0.9016
vn 0.1119 0.4177 -0.9016
vn 0.2588 0.9659 -0.0000
vn -0.2588 -0.9659 -0.0000
vn -0.1442 -0.5383 -0.8303
vn 0.1119 0.4177 0.9016
vn -0.1442 -0.5383 0.8303
vn 0.1119 -0.4177 -0.9017
vn -0.0000 -1.0000 -0.0000
vn 0.2588 -0.9659 -0.0000
vn -0.1442 0.5384 -0.8303
vn -0.0000 -0.4448 -0.8956
vn -0.0000 1.0000 -0.0000
vn -0.0000 0.5706 -0.8212
vn -0.2588 0.9659 -0.0000
vn -0.0000 0.5707 0.8212
vn -0.1442 0.5384 0.8303
vn -0.0000 -0.4448 0.8956
vn 0.1119 -0.4177 0.9016
vn 0.7071 -0.7071 -0.0000
vn -0.3941 0.3941 -0.8303
vn 0.3058 -0.3058 -0.9016
vn -0.3941 0.3941 0.8303
vn -0.7071 0.7071 -0.0000
vn 0.3058 -0.3058 0.9016
vn -0.4177 0.1119 -0.9017
vn 0.3941 -0.3941 -0.8303
vn -0.3058 0.3058 -0.9017
vn 0.5383 -0.1442 -0.8303
vn 0.3941 -0.3941 0.8303
vn -0.4177 0.1119 0.9017
vn 0.5384 -0.1442 0.8303
vn -0.3058 0.3058 0.9017
vn -0.1119 0.4177 -0.9017
vn 0.1442 -0.5383 -0.8303
vn 0.1442 -0.5383 0.8303
vn -0.1119 0.4178 0.9016
vn -0.2224 -0.3852 -0.8957
vn -0.5000 -0.8660 -0.0000
vn 0.3941 0.3941 -0.8303
vn -0.3058 -0.3058 -0.9016
vn 0.5000 0.8660 -0.0000
vn 0.2853 0.4942 -0.8212
vn 0.3941 0.3941 0.8303
vn -0.2224 -0.3852 0.8956
vn 0.2853 0.4942 0.8212
vn -0.3058 -0.3058 0.9016
vn 0.5383 0.1443 -0.8303
vn -0.4177 -0.1119 -0.9016
vn 0.5383 0.1443 0.8303
vn -0.4178 -0.1119 0.9016
vn 0.3818 -0.6440 -0.6630
vn -0.3818 -0.6440 -0.6630
vn 0.6423 0.3106 -0.7007
vt 0.768560 0.038140
vt 0.761750 0.044890
vt 0.761750 0.038140
vt 0.779300 0.038140
vt 0.793920 0.044890
vt 0.793920 0.038140
vt 0.768560 0.044890
vt 0.779300 0.044890
vt 0.770430 0.047890
vt 0.779390 0.047890
vt 0.774900 0.065900
vt 0.793850 0.062450
vt 0.793850 0.072270
vt 0.780190 0.077110
vt 0.830800 0.063860
vt 0.831210 0.063860
vt 0.831000 0.064700
vt 0.830130 0.064540
vt 0.830130 0.065000
vt 0.830760 0.065220
vt 0.755970 0.062450
vt 0.755970 0.072270
vt 0.769630 0.077110
vt 0.831870 0.064540
vt 0.831870 0.065000
vt 0.831240 0.065220
vt 0.795210 0.026390
vt 0.774220 0.028320
vt 0.773630 0.026390
vt 0.795800 0.028320
vt 0.794110 0.035130
vt 0.772520 0.035130
vt 0.768520 0.013340
vt 0.766610 0.034070
vt 0.768520 0.034950
vt 0.766610 0.012730
vt 0.756900 0.034070
vt 0.763600 0.034070
vt 0.793910 0.023410
vt 0.772840 0.018550
vt 0.773490 0.023410
vt 0.795830 0.013670
vt 0.794550 0.018550
vt 0.796460 0.008810
vt 0.771550 0.013670
vt 0.770900 0.008810
vt 0.753990 0.012730
s 1
usemtl mat1.001
f 8/1/1 2/2/2 7/3/3
f 9/4/4 3/5/5 8/6/1
f 9/1/4 5/2/6 4/7/7
f 11/1/8 5/8/6 10/4/9
f 2/9/2 3/10/5 1/11/10
f 3/10/5 4/12/7 1/11/10
f 4/12/7 5/13/6 1/11/10
f 5/13/6 6/14/11 1/11/10
f 8/15/1 7/16/3 12/17/12
f 9/18/4 8/15/1 12/17/12
f 10/19/9 9/18/4 12/17/12
f 11/20/8 10/19/9 12/17/12
f 2/5/2 16/4/13 7/6/3
f 14/2/14 16/1/13 13/7/15
f 14/8/14 18/1/16 17/4/17
f 6/7/11 18/3/16 15/2/18
f 1/11/10 13/21/15 2/9/2
f 1/11/10 14/22/14 13/21/15
f 1/11/10 15/23/18 14/22/14
f 1/11/10 6/14/11 15/23/18
f 12/17/12 7/16/3 16/24/13
f 12/17/12 16/24/13 17/25/17
f 12/17/12 17/25/17 18/26/16
f 12/17/12 18/26/16 11/20/8
f 21/27/19 4/28/20 19/29/21
f 23/27/22 5/28/23 22/30/24
f 4/28/20 22/31/24 5/32/23
f 23/31/22 19/28/21 24/32/25
f 13/28/26 27/27/27 25/29/28
f 14/28/29 29/27/30 28/30/31
f 28/31/31 13/28/26 14/32/29
f 25/28/28 29/31/30 30/32/32
f 33/33/33 2/34/34 31/35/35
f 35/33/36 3/34/37 34/36/38
f 2/37/34 34/36/38 3/38/37
f 35/36/36 31/37/35 36/38/39
f 8/1/1 3/7/5 2/2/2
f 9/4/4 4/8/7 3/5/5
f 9/1/4 10/3/9 5/2/6
f 11/1/8 6/7/11 5/8/6
f 2/5/2 13/8/15 16/4/13
f 14/2/14 17/3/17 16/1/13
f 14/8/14 15/7/18 18/1/16
f 6/7/11 11/1/8 18/3/16
f 21/27/19 20/30/108 4/28/20
f 23/27/22 24/29/25 5/28/23
f 4/28/20 20/30/108 22/31/24
f 23/31/22 21/30/19 19/28/21
f 13/28/26 26/30/109 27/27/27
f 14/28/29 30/29/32 29/27/30
f 28/31/31 26/30/109 13/28/26
f 25/28/28 27/30/27 29/31/30
f 33/33/33 32/36/110 2/34/34
f 35/33/36 36/35/39 3/34/37
f 2/37/34 32/47/110 34/36/38
f 35/36/36 33/47/33 31/37/35
usemtl mat1.003
f 43/39/40 38/40/41 37/41/42
f 45/42/43 38/40/41 44/43/44
f 46/44/45 39/45/46 45/42/43
f 47/42/47 40/46/48 46/44/45
f 48/43/49 41/45/50 47/42/47
f 43/39/40 42/40/51 48/43/49
f 49/41/52 44/43/44 43/39/40
f 51/45/53 44/43/44 50/40/54
f 51/45/53 46/44/45 45/42/43
f 53/45/55 46/44/45 52/46/56
f 53/45/55 48/43/49 47/42/47
f 54/40/57 43/39/40 48/43/49
f 56/43/58 49/41/52 55/39/59
f 56/43/58 51/45/53 50/40/54
f 58/44/60 51/45/53 57/42/61
f 58/44/60 53/45/55 52/46/56
f 60/43/62 53/45/55 59/42/63
f 60/43/62 49/41/52 54/40/57
f 68/40/64 61/39/65 67/41/66
f 69/45/67 62/43/68 68/40/64
f 69/45/67 64/44/69 63/42/70
f 70/46/71 65/42/72 64/44/69
f 71/45/73 66/43/74 65/42/72
f 72/40/75 61/39/65 66/43/74
f 73/39/76 68/40/64 67/41/66
f 75/42/77 68/40/64 74/43/78
f 75/42/77 70/46/71 69/45/67
f 77/42/79 70/46/71 76/44/80
f 77/42/79 72/40/75 71/45/73
f 73/39/76 72/40/75 78/43/81
f 37/41/42 74/43/78 73/39/76
f 39/45/46 74/43/78 38/40/41
f 39/45/46 76/44/80 75/42/77
f 41/45/50 76/44/80 40/46/48
f 42/40/51 77/42/79 41/45/50
f 42/40/51 73/39/76 78/43/81
f 80/40/82 85/39/80 79/41/48
f 80/40/82 87/42/83 86/43/84
f 82/46/42 87/42/83 81/45/85
f 82/46/42 89/42/86 88/44/76
f 84/40/87 89/42/86 83/45/88
f 79/41/48 90/43/89 84/40/87
f 85/39/80 92/40/90 91/41/71
f 86/43/84 93/45/91 92/40/90
f 88/44/76 93/45/91 87/42/83
f 88/44/76 95/45/92 94/46/66
f 89/42/86 96/40/93 95/45/92
f 85/39/80 96/40/93 90/43/89
f 92/40/90 55/39/59 91/41/71
f 92/40/90 57/42/61 56/43/58
f 94/46/66 57/42/61 93/45/91
f 94/46/66 59/42/63 58/44/60
f 95/45/92 60/43/62 59/42/63
f 91/41/71 60/43/62 96/40/93
f 98/43/94 103/41/56 97/39/95
f 98/43/94 105/45/96 104/40/97
f 100/44/98 105/45/96 99/42/99
f 100/44/98 107/45/100 106/46/52
f 102/43/101 107/45/100 101/42/102
f 102/43/101 103/41/56 108/40/103
f 104/40/97 109/39/45 103/41/56
f 104/40/97 111/42/104 110/43/105
f 106/46/52 111/42/104 105/45/96
f 106/46/52 113/42/106 112/44/40
f 108/40/103 113/42/106 107/45/100
f 108/40/103 109/39/45 114/43/107
f 110/43/105 79/41/48 109/39/45
f 110/43/105 81/45/85 80/40/82
f 112/44/40 81/45/85 111/42/104
f 112/44/40 83/45/88 82/46/42
f 114/43/107 83/45/88 113/42/106
f 109/39/45 84/40/87 114/43/107
f 122/1/1 116/2/2 121/3/3
f 123/4/4 117/5/5 122/6/1
f 123/1/4 119/2/6 118/7/7
f 125/1/8 119/8/6 124/4/9
f 116/9/2 117/10/5 115/11/10
f 117/10/5 118/12/7 115/11/10
f 118/12/7 119/13/6 115/11/10
f 119/13/6 120/14/11 115/11/10
f 122/15/1 121/16/3 126/17/12
f 123/18/4 122/15/1 126/17/12
f 124/19/9 123/18/4 126/17/12
f 125/20/8 124/19/9 126/17/12
f 116/5/2 130/4/13 121/6/3
f 128/2/14 130/1/13 127/7/15
f 128/8/14 132/1/16 131/4/17
f 120/7/11 132/3/16 129/2/18
f 115/11/10 127/21/15 116/9/2
f 115/11/10 128/22/14 127/21/15
f 115/11/10 129/23/18 128/22/14
f 115/11/10 120/14/11 129/23/18
f 126/17/12 121/16/3 130/24/13
f 126/17/12 130/24/13 131/25/17
f 126/17/12 131/25/17 132/26/16
f 126/17/12 132/26/16 125/20/8
f 135/27/19 118/28/20 133/29/21
f 137/27/22 119/28/23 136/30/24
f 118/28/20 136/31/24 119/32/23
f 137/31/22 133/28/21 138/32/25
f 127/28/26 141/27/27 139/29/28
f 128/28/29 143/27/30 142/30/31
f 142/31/31 127/28/26 128/32/29
f 139/28/28 143/31/30 144/32/32
f 147/33/33 116/34/34 145/35/35
f 149/33/36 117/34/37 148/36/38
f 116/37/34 148/36/38 117/38/37
f 149/36/36 145/37/35 150/38/39
f 43/39/40 44/43/44 38/40/41
f 45/42/43 39/45/46 38/40/41
f 46/44/45 40/46/48 39/45/46
f 47/42/47 41/45/50 40/46/48
f 48/43/49 42/40/51 41/45/50
f 43/39/40 37/41/42 42/40/51
f 49/41/52 50/40/54 44/43/44
f 51/45/53 45/42/43 44/43/44
f 51/45/53 52/46/56 46/44/45
f 53/45/55 47/42/47 46/44/45
f 53/45/55 54/40/57 48/43/49
f 54/40/57 49/41/52 43/39/40
f 56/43/58 50/40/54 49/41/52
f 56/43/58 57/42/61 51/45/53
f 58/44/60 52/46/56 51/45/53
f 58/44/60 59/42/63 53/45/55
f 60/43/62 54/40/57 53/45/55
f 60/43/62 55/39/59 49/41/52
f 68/40/64 62/43/68 61/39/65
f 69/45/67 63/42/70 62/43/68
f 69/45/67 70/46/71 64/44/69
f 70/46/71 71/45/73 65/42/72
f 71/45/73 72/40/75 66/43/74
f 72/40/75 67/41/66 61/39/65
f 73/39/76 74/43/78 68/40/64
f 75/42/77 69/45/67 68/40/64
f 75/42/77 76/44/80 70/46/71
f 77/42/79 71/45/73 70/46/71
f 77/42/79 78/43/81 72/40/75
f 73/39/76 67/41/66 72/40/75
f 37/41/42 38/40/41 74/43/78
f 39/45/46 75/42/77 74/43/78
f 39/45/46 40/46/48 76/44/80
f 41/45/50 77/42/79 76/44/80
f 42/40/51 78/43/81 77/42/79
f 42/40/51 37/41/42 73/39/76
f 80/40/82 86/43/84 85/39/80
f 80/40/82 81/45/85 87/42/83
f 82/46/42 88/44/76 87/42/83
f 82/46/42 83/45/88 89/42/86
f 84/40/87 90/43/89 89/42/86
f 79/41/48 85/39/80 90/43/89
f 85/39/80 86/43/84 92/40/90
f 86/43/84 87/42/83 93/45/91
f 88/44/76 94/46/66 93/45/91
f 88/44/76 89/42/86 95/45/92
f 89/42/86 90/43/89 96/40/93
f 85/39/80 91/41/71 96/40/93
f 92/40/90 56/43/58 55/39/59
f 92/40/90 93/45/91 57/42/61
f 94/46/66 58/44/60 57/42/61
f 94/46/66 95/45/92 59/42/63
f 95/45/92 96/40/93 60/43/62
f 91/41/71 55/39/59 60/43/62
f 98/43/94 104/40/97 103/41/56
f 98/43/94 99/42/99 105/45/96
f 100/44/98 106/46/52 105/45/96
f 100/44/98 101/42/102 107/45/100
f 102/43/101 108/40/103 107/45/100
f 102/43/101 97/39/95 103/41/56
f 104/40/97 110/43/105 109/39/45
f 104/40/97 105/45/96 111/42/104
f 106/46/52 112/44/40 111/42/104
f 106/46/52 107/45/100 113/42/106
f 108/40/103 114/43/107 113/42/106
f 108/40/103 103/41/56 109/39/45
f 110/43/105 80/40/82 79/41/48
f 110/43/105 111/42/104 81/45/85
f 112/44/40 82/46/42 81/45/85
f 112/44/40 113/42/106 83/45/88
f 114/43/107 84/40/87 83/45/88
f 109/39/45 79/41/48 84/40/87
f 122/1/1 117/7/5 116/2/2
f 123/4/4 118/8/7 117/5/5
f 123/1/4 124/3/9 119/2/6
f 125/1/8 120/7/11 119/8/6
f 116/5/2 127/8/15 130/4/13
f 128/2/14 131/3/17 130/1/13
f 128/8/14 129/7/18 132/1/16
f 120/7/11 125/1/8 132/3/16
f 135/27/19 134/30/108 118/28/20
f 137/27/22 138/29/25 119/28/23
f 118/28/20 134/30/108 136/31/24
f 137/31/22 135/30/19 133/28/21
f 127/28/26 140/30/109 141/27/27
f 128/28/29 144/29/32 143/27/30
f 142/31/31 140/30/109 127/28/26
f 139/28/28 141/30/27 143/31/30
f 147/33/33 146/36/110 116/34/34
f 149/33/36 150/35/39 117/34/37
f 116/37/34 146/47/110 148/36/38
f 149/36/36 147/47/33 145/37/35
