# Blender 5.2.0 LTS
# www.blender.org
mtllib nissan-r32-wheel.mtl
o Окружность.003
v -0.000000 0.468156 -1.046668
v -0.000000 0.852089 -0.767224
v 0.379969 0.467260 -1.047069
v 0.379969 0.852089 -0.767224
v -0.379970 0.467260 -1.047069
v -0.379970 0.852089 -0.767224
v -0.000000 1.090567 -0.354051
v 0.379969 1.090523 -0.354185
v -0.379970 1.090523 -0.354185
v -0.000000 1.140258 0.120410
v 0.379969 1.140288 0.120131
v -0.379970 1.140288 0.120131
v -0.000000 0.992562 0.574028
v 0.379969 0.992773 0.573664
v -0.379970 0.992773 0.573664
v -0.000000 0.673046 0.928277
v 0.379969 0.673499 0.927947
v -0.379970 0.673499 0.927947
v -0.000000 0.237019 1.121833
v 0.379969 0.237705 1.121688
v -0.379970 0.237705 1.121688
v -0.000000 -0.240037 1.121191
v 0.379970 -0.239214 1.121367
v -0.379970 -0.239214 1.121367
v -0.000000 -0.675541 0.926462
v 0.379970 -0.674747 0.927040
v -0.379970 -0.674747 0.927040
v -0.000000 -0.994103 0.571355
v 0.379970 -0.993543 0.572327
v -0.379970 -0.993543 0.572327
v -0.000000 -1.140578 0.117341
v 0.379970 -1.140448 0.118597
v -0.379970 -1.140448 0.118597
v -0.000000 -1.089610 -0.356985
v 0.379970 -1.090045 -0.355652
v -0.379970 -1.090045 -0.355652
v -0.000000 -0.850021 -0.769514
v 0.379970 -0.851055 -0.768369
v -0.379970 -0.851055 -0.768369
v -0.000000 -0.463287 -1.048834
v 0.379970 -0.464825 -1.048152
v -0.379970 -0.464825 -1.048152
v -0.000000 0.003646 -1.146592
v 0.379970 0.001823 -1.146595
v -0.379970 0.001823 -1.146595
v 0.460367 0.000000 -0.934446
v 0.460367 0.380073 -0.853658
v 0.460367 0.694429 -0.625266
v 0.460367 0.888710 -0.288759
v 0.460367 0.929326 0.097676
v 0.460367 0.809253 0.467223
v 0.460367 0.549253 0.755982
v 0.460367 0.194282 0.914026
v 0.460367 -0.194282 0.914026
v 0.460367 -0.549253 0.755982
v 0.460367 -0.809254 0.467223
v 0.460367 -0.929326 0.097676
v 0.460367 -0.888710 -0.288760
v 0.460367 -0.694428 -0.625266
v 0.460367 -0.380073 -0.853658
v 0.456700 0.000000 -1.078652
v 0.456700 0.438727 -0.985397
v 0.456700 0.801595 -0.721759
v 0.456700 1.025859 -0.333322
v 0.456700 1.072743 0.112750
v 0.456700 0.934140 0.539326
v 0.456700 0.634016 0.872648
v 0.456700 0.224264 1.055081
v 0.456700 -0.224265 1.055081
v 0.456700 -0.634016 0.872647
v 0.456700 -0.934140 0.539326
v 0.456700 -1.072743 0.112750
v 0.456700 -1.025859 -0.333322
v 0.456700 -0.801594 -0.721759
v 0.456700 -0.438727 -0.985397
v -0.460367 0.000000 -0.934446
v -0.460367 0.380073 -0.853658
v -0.460367 0.694428 -0.625266
v -0.460367 0.888710 -0.288759
v -0.460367 0.929326 0.097676
v -0.460367 0.809253 0.467223
v -0.460367 0.549253 0.755982
v -0.460367 0.194282 0.914026
v -0.460367 -0.194282 0.914026
v -0.460367 -0.549254 0.755982
v -0.460367 -0.809254 0.467223
v -0.460367 -0.929327 0.097676
v -0.460367 -0.888710 -0.288760
v -0.460367 -0.694428 -0.625266
v -0.460367 -0.380073 -0.853658
v -0.456700 0.000000 -1.078652
v -0.456700 0.438727 -0.985397
v -0.456700 0.801595 -0.721759
v -0.456700 1.025859 -0.333322
v -0.456700 1.072743 0.112750
v -0.456700 0.934140 0.539326
v -0.456700 0.634015 0.872648
v -0.456700 0.224264 1.055081
v -0.456700 -0.224265 1.055081
v -0.456700 -0.634016 0.872647
v -0.456700 -0.934140 0.539326
v -0.456700 -1.072743 0.112750
v -0.456700 -1.025859 -0.333322
v -0.456700 -0.801594 -0.721759
v -0.456700 -0.438727 -0.985397
v -0.000000 0.000000 -1.000000
v -0.000000 -0.406736 -0.913546
v -0.000000 -0.743145 -0.669131
v -0.000000 -0.951056 -0.309017
v -0.000000 -0.994522 0.104528
v -0.000000 -0.866026 0.500000
v -0.000000 -0.587785 0.809017
v -0.000000 -0.207912 0.978148
v 0.000000 0.207911 0.978148
v 0.000000 0.587785 0.809017
v 0.000000 0.866025 0.500000
v 0.000000 0.994522 0.104529
v 0.000000 0.951057 -0.309017
v 0.000000 0.743145 -0.669130
v 0.000000 0.406737 -0.913545
v 0.321712 0.000000 -1.000000
v 0.321712 -0.406736 -0.913546
v 0.321712 -0.743145 -0.669131
v 0.321712 -0.951056 -0.309017
v 0.321712 -0.994522 0.104528
v 0.321712 -0.866026 0.500000
v 0.321712 -0.587785 0.809017
v 0.321712 -0.207912 0.978148
v 0.321712 0.207911 0.978148
v 0.321712 0.587785 0.809017
v 0.321712 0.866025 0.500000
v 0.321712 0.994522 0.104529
v 0.321712 0.951057 -0.309017
v 0.321712 0.743145 -0.669130
v 0.321712 0.406737 -0.913545
v 0.458031 0.000000 -1.000000
v 0.458030 -0.406736 -0.913546
v 0.458030 -0.743145 -0.669131
v 0.458030 -0.951057 -0.309017
v 0.458030 -0.994522 0.104528
v 0.458030 -0.866026 0.500000
v 0.458030 -0.587785 0.809017
v 0.458030 -0.207912 0.978148
v 0.458031 0.207911 0.978148
v 0.458031 0.587785 0.809017
v 0.458031 0.866025 0.500000
v 0.458031 0.994522 0.104529
v 0.458031 0.951057 -0.309017
v 0.458031 0.743145 -0.669130
v 0.458031 0.406737 -0.913545
v 0.458031 0.000000 -0.846909
v 0.458030 -0.344469 -0.773690
v 0.458030 -0.629376 -0.566693
v 0.458030 -0.805458 -0.261710
v 0.458030 -0.842270 0.088526
v 0.458030 -0.733445 0.423454
v 0.458030 -0.497801 0.685164
v 0.458031 -0.176083 0.828402
v 0.458031 0.176082 0.828402
v 0.458031 0.497801 0.685164
v 0.458031 0.733445 0.423455
v 0.458031 0.842270 0.088526
v 0.458031 0.805458 -0.261709
v 0.458031 0.629376 -0.566693
v 0.458031 0.344469 -0.773690
v 0.287567 0.000000 -0.381415
v 0.287567 -0.155135 -0.348440
v 0.287567 -0.283447 -0.255217
v 0.287567 -0.362747 -0.117864
v 0.287567 -0.379326 0.039869
v 0.287567 -0.330315 0.190708
v 0.287567 -0.224190 0.308571
v 0.287567 -0.079301 0.373080
v 0.287567 0.079301 0.373080
v 0.287567 0.224190 0.308572
v 0.287567 0.330315 0.190708
v 0.287567 0.379326 0.039869
v 0.287567 0.362747 -0.117864
v 0.287567 0.283447 -0.255217
v 0.287567 0.155136 -0.348440
v -0.000000 0.000000 -0.846909
v -0.000000 -0.344469 -0.773690
v -0.000000 -0.629376 -0.566693
v -0.000000 -0.805458 -0.261710
v -0.000000 -0.842270 0.088526
v -0.000000 -0.733445 0.423454
v -0.000000 -0.497801 0.685164
v -0.000000 -0.176083 0.828402
v 0.000000 0.176082 0.828402
v 0.000000 0.497801 0.685164
v 0.000000 0.733445 0.423455
v 0.000000 0.842270 0.088526
v 0.000000 0.805458 -0.261709
v 0.000000 0.629376 -0.566693
v 0.000000 0.344469 -0.773690
v 0.368049 -0.236735 -0.531717
v 0.368049 0.000000 -0.582036
v 0.368049 -0.432537 -0.389458
v 0.368049 -0.553549 -0.179859
v 0.368049 -0.578848 0.060839
v 0.368049 -0.504058 0.291018
v 0.368049 -0.342112 0.470877
v 0.368049 -0.121012 0.569317
v 0.368049 0.121012 0.569317
v 0.368049 0.342112 0.470877
v 0.368049 0.504058 0.291018
v 0.368049 0.578848 0.060839
v 0.368049 0.553549 -0.179859
v 0.368049 0.432537 -0.389458
v 0.368049 0.236736 -0.531716
v -0.321712 0.000000 -1.000000
v -0.321712 -0.406736 -0.913546
v -0.321712 -0.743145 -0.669131
v -0.321712 -0.951056 -0.309017
v -0.321712 -0.994522 0.104528
v -0.321712 -0.866026 0.500000
v -0.321712 -0.587785 0.809017
v -0.321712 -0.207912 0.978148
v -0.321712 0.207912 0.978148
v -0.321712 0.587785 0.809017
v -0.321712 0.866025 0.500000
v -0.321712 0.994522 0.104529
v -0.321712 0.951057 -0.309017
v -0.321712 0.743145 -0.669130
v -0.321712 0.406737 -0.913545
v -0.458031 0.000000 -1.000000
v -0.458031 -0.406736 -0.913546
v -0.458031 -0.743145 -0.669131
v -0.458031 -0.951056 -0.309017
v -0.458031 -0.994522 0.104528
v -0.458031 -0.866025 0.500000
v -0.458031 -0.587785 0.809017
v -0.458031 -0.207912 0.978148
v -0.458030 0.207912 0.978148
v -0.458030 0.587785 0.809017
v -0.458030 0.866025 0.500000
v -0.458030 0.994522 0.104529
v -0.458030 0.951057 -0.309017
v -0.458030 0.743145 -0.669130
v -0.458030 0.406737 -0.913545
v -0.458031 0.000000 -0.846909
v -0.458031 -0.344469 -0.773690
v -0.458031 -0.629376 -0.566693
v -0.458031 -0.805458 -0.261710
v -0.458031 -0.842270 0.088526
v -0.458031 -0.733445 0.423454
v -0.458031 -0.497801 0.685164
v -0.458031 -0.176082 0.828402
v -0.458031 0.176082 0.828402
v -0.458030 0.497801 0.685164
v -0.458030 0.733445 0.423455
v -0.458030 0.842270 0.088526
v -0.458030 0.805459 -0.261709
v -0.458030 0.629376 -0.566693
v -0.458030 0.344469 -0.773690
v 0.450930 0.000000 -0.846909
v 0.450930 -0.344469 -0.773690
v 0.450930 -0.629376 -0.566693
v 0.450930 -0.805458 -0.261710
v 0.450930 -0.842270 0.088526
v 0.450930 -0.733445 0.423454
v 0.450930 -0.497801 0.685164
v 0.450930 -0.176083 0.828402
v 0.450930 0.176082 0.828402
v 0.450930 0.497801 0.685164
v 0.450930 0.733445 0.423455
v 0.450930 0.842270 0.088526
v 0.450930 0.805458 -0.261709
v 0.450930 0.629376 -0.566693
v 0.450930 0.344469 -0.773690
v 0.280466 0.000000 -0.381415
v 0.280466 -0.155135 -0.348440
v 0.280466 -0.283447 -0.255217
v 0.280466 -0.362747 -0.117864
v 0.280466 -0.379326 0.039869
v 0.280466 -0.330315 0.190708
v 0.280466 -0.224190 0.308571
v 0.280466 -0.079301 0.373080
v 0.280466 0.079301 0.373080
v 0.280466 0.224190 0.308572
v 0.280466 0.330315 0.190708
v 0.280466 0.379326 0.039869
v 0.280466 0.362747 -0.117864
v 0.280466 0.283447 -0.255217
v 0.280466 0.155136 -0.348440
v 0.360948 -0.236735 -0.531717
v 0.360948 0.000000 -0.582036
v 0.360948 -0.432537 -0.389458
v 0.360948 -0.553549 -0.179859
v 0.360948 -0.578848 0.060839
v 0.360948 -0.504058 0.291018
v 0.360948 -0.342112 0.470877
v 0.360948 -0.121012 0.569317
v 0.360948 0.121012 0.569317
v 0.360948 0.342112 0.470877
v 0.360948 0.504058 0.291018
v 0.360948 0.578848 0.060839
v 0.360948 0.553549 -0.179859
v 0.360948 0.432537 -0.389458
v 0.360948 0.236736 -0.531716
vn -0.0000 0.4082 -0.9129
vn -0.0000 0.7434 -0.6689
vn 0.0001 0.7434 -0.6689
vn 0.0003 0.4076 -0.9132
vn -0.0003 0.4076 -0.9132
vn -0.0001 0.7434 -0.6689
vn -0.0000 0.9511 -0.3088
vn -0.0000 0.9511 -0.3089
vn -0.0000 0.9945 0.1050
vn -0.0000 0.9945 0.1048
vn -0.0000 0.8657 0.5006
vn -0.0000 0.8658 0.5004
vn -0.0000 0.5870 0.8096
vn -0.0000 0.5873 0.8093
vn -0.0000 0.2068 0.9784
vn -0.0000 0.2073 0.9783
vn -0.0000 -0.2093 0.9779
vn -0.0000 -0.2087 0.9780
vn -0.0000 -0.5891 0.8081
vn -0.0000 -0.5885 0.8085
vn -0.0000 -0.8670 0.4984
vn -0.0000 -0.8666 0.4991
vn -0.0000 -0.9947 0.1024
vn -0.0000 -0.9946 0.1033
vn -0.0000 -0.9503 -0.3112
vn -0.0000 -0.9506 -0.3103
vn -0.0000 -0.7414 -0.6710
vn -0.0000 -0.7422 -0.6702
vn -0.0000 -0.4042 -0.9147
vn -0.0000 -0.4053 -0.9142
vn -0.0000 0.0027 -1.0000
vn 0.0001 0.0014 -1.0000
vn -0.0001 0.0014 -1.0000
vn 0.9997 -0.0053 0.0249
vn 0.9997 -0.0149 0.0206
vn 0.9997 -0.0103 -0.0232
vn 0.9997 -0.0000 -0.0254
vn 0.9997 -0.0220 0.0127
vn 0.9997 0.0189 -0.0170
vn 0.9997 0.0242 -0.0079
vn 0.9997 -0.0253 0.0027
vn 0.9997 0.0253 0.0027
vn 0.9997 -0.0242 -0.0079
vn 0.9997 0.0220 0.0127
vn 0.9997 -0.0189 -0.0170
vn 0.9997 0.0149 0.0206
vn 0.9997 0.0053 0.0249
vn 0.9997 0.0103 -0.0232
vn 0.6635 0.3038 -0.6838
vn 0.6631 -0.0012 -0.7485
vn 0.6631 0.0023 -0.7485
vn 0.6635 0.3055 -0.6830
vn 0.6632 0.5563 -0.5007
vn 0.6629 0.7121 -0.2314
vn 0.6629 0.7121 -0.2312
vn 0.6629 0.7446 0.0781
vn 0.6629 0.7446 0.0786
vn 0.6629 0.6485 0.3742
vn 0.6629 0.6481 0.3749
vn 0.6629 0.4403 0.6056
vn 0.6629 0.4395 0.6062
vn 0.6629 0.1561 0.7323
vn 0.6629 0.1547 0.7326
vn 0.6629 -0.1552 0.7325
vn 0.6629 -0.1568 0.7321
vn 0.6629 -0.4396 0.6061
vn 0.6629 -0.4412 0.6050
vn 0.6629 -0.6481 0.3749
vn 0.6629 -0.6492 0.3731
vn 0.6629 -0.7446 0.0790
vn 0.6629 -0.7448 0.0766
vn 0.6629 -0.7123 -0.2306
vn 0.6629 -0.7115 -0.2332
vn 0.6629 -0.5570 -0.5004
vn 0.6629 -0.5550 -0.5025
vn 0.6629 -0.3054 -0.6836
vn 0.6629 -0.3025 -0.6849
vn -0.9997 -0.0053 0.0249
vn -0.9997 -0.0149 0.0206
vn -0.9997 -0.0103 -0.0232
vn -0.9997 -0.0000 -0.0254
vn -0.9997 -0.0220 0.0127
vn -0.9997 0.0189 -0.0170
vn -0.9997 0.0242 -0.0079
vn -0.9997 -0.0253 0.0027
vn -0.9997 0.0253 0.0027
vn -0.9997 -0.0242 -0.0079
vn -0.9997 0.0220 0.0127
vn -0.9997 -0.0189 -0.0170
vn -0.9997 0.0149 0.0206
vn -0.9997 0.0053 0.0249
vn -0.9997 0.0103 -0.0232
vn -0.6635 0.3038 -0.6838
vn -0.6635 0.3055 -0.6830
vn -0.6631 0.0023 -0.7485
vn -0.6631 -0.0012 -0.7485
vn -0.6632 0.5563 -0.5007
vn -0.6629 0.7121 -0.2314
vn -0.6629 0.7121 -0.2312
vn -0.6629 0.7446 0.0781
vn -0.6629 0.7446 0.0786
vn -0.6629 0.6485 0.3742
vn -0.6629 0.6481 0.3749
vn -0.6629 0.4403 0.6056
vn -0.6629 0.4395 0.6062
vn -0.6629 0.1561 0.7323
vn -0.6629 0.1547 0.7326
vn -0.6629 -0.1552 0.7325
vn -0.6629 -0.1568 0.7321
vn -0.6629 -0.4396 0.6061
vn -0.6629 -0.4412 0.6050
vn -0.6629 -0.6481 0.3749
vn -0.6629 -0.6492 0.3731
vn -0.6629 -0.7446 0.0790
vn -0.6629 -0.7448 0.0766
vn -0.6629 -0.7123 -0.2306
vn -0.6629 -0.7115 -0.2332
vn -0.6629 -0.5570 -0.5004
vn -0.6629 -0.5550 -0.5025
vn -0.6629 -0.3054 -0.6836
vn -0.6629 -0.3025 -0.6849
vn -0.0000 -0.0000 -1.0000
vn -0.0000 0.4067 -0.9135
vn -0.0000 0.2079 0.9781
vn -0.0000 -0.2079 0.9781
vn -0.0000 -0.4067 -0.9135
vn -0.0000 0.5878 0.8090
vn -0.0000 -0.7431 -0.6691
vn -0.0000 0.8660 0.5000
vn -0.0000 -0.9511 -0.3090
vn -0.0000 0.9945 0.1045
vn -0.0000 -0.9945 0.1045
vn -0.0000 0.9511 -0.3090
vn -0.0000 -0.8660 0.5000
vn -0.0000 0.7431 -0.6691
vn -0.0000 -0.5878 0.8090
vn 1.0000 -0.0000 -0.0000
vn 0.9469 0.1891 -0.2602
vn 0.9469 0.2786 -0.1608
vn 0.9390 0.2979 -0.1720
vn 0.9390 0.2022 -0.2783
vn 0.9469 -0.1308 0.2939
vn 0.9469 -0.2390 0.2152
vn 0.9390 -0.2556 0.2301
vn 0.9390 -0.1399 0.3142
vn 0.9469 0.0669 -0.3146
vn 0.9390 0.0715 -0.3364
vn 0.9469 -0.0000 0.3217
vn 0.9390 -0.0000 0.3439
vn 0.9469 -0.0669 -0.3146
vn 0.9390 -0.0715 -0.3364
vn 0.9469 0.1308 0.2939
vn 0.9390 0.1399 0.3142
vn 0.9469 -0.1891 -0.2602
vn 0.9390 -0.2022 -0.2783
vn 0.9469 0.2390 0.2152
vn 0.9390 0.2556 0.2301
vn 0.9469 -0.2786 -0.1608
vn 0.9390 -0.2979 -0.1720
vn 0.9469 0.3059 0.0994
vn 0.9390 0.3271 0.1063
vn 0.9469 -0.3199 -0.0336
vn 0.9390 -0.3421 -0.0360
vn 0.9469 0.3199 -0.0336
vn 0.9390 0.3421 -0.0360
vn 0.9469 -0.3059 0.0994
vn 0.9390 -0.3271 0.1063
vn 0.9769 0.0869 0.1952
vn 0.9769 -0.0000 0.2137
vn 0.9769 -0.0869 0.1952
vn 0.9769 -0.1588 0.1430
vn 0.9769 -0.2033 0.0660
vn 0.9769 -0.2126 -0.0223
vn 0.9769 -0.1851 -0.1069
vn 0.9769 -0.1256 -0.1729
vn 0.9769 -0.0444 -0.2091
vn 0.9769 0.0444 -0.2091
vn 0.9769 0.1256 -0.1729
vn 0.9769 0.1851 -0.1069
vn 0.9769 0.2126 -0.0223
vn 0.9769 0.2033 0.0660
vn 0.9769 0.1588 0.1430
vn -0.0000 -0.0000 1.0000
vn -0.0000 0.4067 0.9135
vn -0.0000 -0.2079 -0.9781
vn -0.0000 -0.5878 -0.8090
vn -0.0000 0.7431 0.6691
vn -0.0000 -0.8660 -0.5000
vn -0.0000 0.9511 0.3090
vn -0.0000 -0.9945 -0.1045
vn -0.0000 0.9945 -0.1045
vn -0.0000 -0.9511 0.3090
vn -0.0000 0.8660 -0.5000
vn -0.0000 -0.7431 0.6691
vn -0.0000 0.5878 -0.8090
vn -0.0000 -0.4067 0.9135
vn -0.0000 0.2079 -0.9781
vn -1.0000 -0.0000 -0.0000
vn -0.9469 -0.1891 0.2602
vn -0.9390 -0.2022 0.2783
vn -0.9390 -0.2979 0.1720
vn -0.9469 -0.2786 0.1608
vn -0.9469 0.1308 -0.2939
vn -0.9390 0.1399 -0.3142
vn -0.9390 0.2556 -0.2301
vn -0.9469 0.2390 -0.2152
vn -0.9469 -0.0669 0.3146
vn -0.9390 -0.0715 0.3364
vn -0.9469 -0.0000 -0.3217
vn -0.9390 -0.0000 -0.3439
vn -0.9469 0.0669 0.3146
vn -0.9390 0.0715 0.3364
vn -0.9469 -0.1308 -0.2939
vn -0.9390 -0.1399 -0.3142
vn -0.9469 0.1891 0.2602
vn -0.9390 0.2022 0.2783
vn -0.9469 -0.2390 -0.2152
vn -0.9390 -0.2556 -0.2301
vn -0.9469 0.2786 0.1608
vn -0.9390 0.2979 0.1720
vn -0.9469 -0.3059 -0.0994
vn -0.9390 -0.3271 -0.1063
vn -0.9469 0.3199 0.0336
vn -0.9390 0.3421 0.0360
vn -0.9469 -0.3199 0.0336
vn -0.9390 -0.3421 0.0360
vn -0.9469 0.3059 -0.0994
vn -0.9390 0.3271 -0.1063
vn -0.9769 -0.0869 -0.1952
vn -0.9769 -0.1588 -0.1430
vn -0.9769 -0.2033 -0.0660
vn -0.9769 -0.2126 0.0223
vn -0.9769 -0.1851 0.1069
vn -0.9769 -0.1256 0.1729
vn -0.9769 -0.0444 0.2091
vn -0.9769 0.0444 0.2091
vn -0.9769 0.1256 0.1729
vn -0.9769 0.1851 0.1069
vn -0.9769 0.2126 0.0223
vn -0.9769 0.2033 -0.0660
vn -0.9769 0.1588 -0.1430
vn -0.9769 0.0869 -0.1952
vn -0.9769 -0.0000 -0.2137
vt 0.795561 0.101599
vt 0.795561 0.219942
vt 0.670765 0.219942
vt 0.670765 0.101599
vt 0.920356 0.101599
vt 0.920356 0.219942
vt 0.300815 0.014651
vt 0.391143 0.054868
vt 0.372457 0.080586
vt 0.294206 0.045746
vt 0.348092 0.464464
vt 0.251377 0.485022
vt 0.251377 0.453232
vt 0.335162 0.435423
vt 0.457303 0.128347
vt 0.429773 0.144241
vt 0.074670 0.406346
vt 0.025232 0.320717
vt 0.055465 0.310894
vt 0.098294 0.385075
vt 0.487858 0.222383
vt 0.456242 0.225706
vt 0.014896 0.222383
vt 0.046512 0.225706
vt 0.477522 0.320717
vt 0.447289 0.310894
vt 0.045451 0.128347
vt 0.072981 0.144241
vt 0.428084 0.406346
vt 0.404460 0.385075
vt 0.111612 0.054868
vt 0.130297 0.080586
vt 0.201939 0.014651
vt 0.208549 0.045746
vt 0.154662 0.464464
vt 0.167592 0.435423
vt 0.251377 0.500000
vt 0.148570 0.478148
vt 0.063539 0.416369
vt 0.010986 0.325346
vt 0.000000 0.220817
vt 0.032479 0.120857
vt 0.102807 0.042750
vt 0.198825 0.000000
vt 0.303929 0.000000
vt 0.399947 0.042750
vt 0.470275 0.120857
vt 0.502754 0.220817
vt 0.491768 0.325346
vt 0.439216 0.416369
vt 0.354185 0.478148
vt 0.201939 0.514651
vt 0.208549 0.545746
vt 0.130297 0.580586
vt 0.111612 0.554868
vt 0.154662 0.964464
vt 0.167592 0.935423
vt 0.251377 0.953232
vt 0.251377 0.985022
vt 0.072981 0.644241
vt 0.045451 0.628347
vt 0.428084 0.906346
vt 0.404460 0.885075
vt 0.447289 0.810894
vt 0.477522 0.820717
vt 0.046512 0.725706
vt 0.014896 0.722383
vt 0.456242 0.725706
vt 0.487858 0.722383
vt 0.055465 0.810894
vt 0.025232 0.820717
vt 0.429773 0.644241
vt 0.457303 0.628347
vt 0.098294 0.885075
vt 0.074670 0.906346
vt 0.372457 0.580586
vt 0.391143 0.554868
vt 0.294206 0.545746
vt 0.300815 0.514651
vt 0.348092 0.964464
vt 0.335162 0.935423
vt 0.354185 0.978148
vt 0.251377 1.000000
vt 0.439216 0.916369
vt 0.491768 0.825346
vt 0.502754 0.720818
vt 0.470275 0.620857
vt 0.399947 0.542750
vt 0.303929 0.500000
vt 0.198825 0.500000
vt 0.102807 0.542750
vt 0.032479 0.620857
vt 0.000000 0.720818
vt 0.010986 0.825346
vt 0.063539 0.916369
vt 0.148570 0.978148
vt 0.562957 0.623677
vt 0.562957 0.532920
vt 0.633174 0.532920
vt 0.633174 0.623677
vt 0.784072 0.908999
vt 0.784072 0.818242
vt 0.854288 0.818242
vt 0.854288 0.908999
vt 0.562957 0.706588
vt 0.633174 0.706588
vt 0.784072 0.991910
vt 0.854288 0.991910
vt 0.562957 0.767316
vt 0.633174 0.767316
vt 0.452400 0.523433
vt 0.452400 0.450009
vt 0.522617 0.450009
vt 0.522617 0.523433
vt 0.673515 0.532920
vt 0.673515 0.450009
vt 0.743731 0.450009
vt 0.743731 0.532920
vt 0.452400 0.612207
vt 0.522617 0.612207
vt 0.673515 0.623677
vt 0.743731 0.623677
vt 0.452400 0.700981
vt 0.522617 0.700981
vt 0.673515 0.706588
vt 0.743731 0.706588
vt 0.452400 0.774405
vt 0.522617 0.774405
vt 0.673515 0.767316
vt 0.743731 0.767316
vt 0.562957 0.450009
vt 0.633174 0.450009
vt 0.784072 0.735331
vt 0.854288 0.735331
vt 0.884041 0.735331
vt 0.884041 0.818242
vt 0.662927 0.532920
vt 0.662927 0.623677
vt 0.884041 0.908999
vt 0.662927 0.706588
vt 0.884041 0.991910
vt 0.662927 0.767316
vt 0.552369 0.450009
vt 0.552369 0.523433
vt 0.773484 0.450009
vt 0.773484 0.532920
vt 0.552369 0.612207
vt 0.773484 0.623677
vt 0.552369 0.700981
vt 0.773484 0.706588
vt 0.552369 0.774405
vt 0.773484 0.767316
vt 0.662927 0.450009
vt 0.524615 0.384555
vt 0.471270 0.311131
vt 0.501794 0.297541
vt 0.546973 0.359724
vt 0.779789 0.033339
vt 0.847234 0.094068
vt 0.820202 0.113708
vt 0.763082 0.062276
vt 0.603213 0.429934
vt 0.613539 0.398156
vt 0.693473 0.005294
vt 0.689981 0.038524
vt 0.693473 0.439421
vt 0.689981 0.406190
vt 0.603213 0.014781
vt 0.613539 0.046559
vt 0.779789 0.411375
vt 0.763082 0.382438
vt 0.524615 0.060159
vt 0.546973 0.084990
vt 0.847234 0.350647
vt 0.820202 0.331007
vt 0.471270 0.133583
vt 0.501794 0.147174
vt 0.884149 0.267736
vt 0.851465 0.260789
vt 0.452400 0.222357
vt 0.485814 0.222357
vt 0.884149 0.176979
vt 0.851465 0.183926
vt 0.794918 0.195945
vt 0.773432 0.147688
vt 0.554607 0.274027
vt 0.585656 0.316763
vt 0.734177 0.112342
vt 0.631403 0.343175
vt 0.683938 0.096019
vt 0.683938 0.348696
vt 0.631403 0.101540
vt 0.734177 0.332373
vt 0.585656 0.127952
vt 0.773432 0.297026
vt 0.554607 0.170688
vt 0.794918 0.248769
vt 0.543624 0.222357
vt 0.679361 0.305149
vt 0.644934 0.301530
vt 0.614956 0.284222
vt 0.594609 0.256217
vt 0.587412 0.222357
vt 0.594609 0.188498
vt 0.614956 0.160493
vt 0.644934 0.143184
vt 0.679361 0.139566
vt 0.712283 0.150263
vt 0.738008 0.173426
vt 0.752087 0.205049
vt 0.752087 0.239665
vt 0.738008 0.271289
vt 0.712283 0.294452
vt 0.994598 0.587376
vt 0.894629 0.587376
vt 0.894629 0.512192
vt 0.994598 0.512192
vt 0.884041 0.512192
vt 0.784072 0.512192
vt 0.784072 0.450009
vt 0.884041 0.450009
vt 0.894629 0.450009
vt 0.994598 0.450009
vt 0.994706 0.280028
vt 0.894737 0.280028
vt 0.894737 0.217845
vt 0.994706 0.217845
vt 0.994599 0.952630
vt 0.894629 0.952630
vt 0.894629 0.882412
vt 0.994599 0.882412
vt 0.894737 0.142661
vt 0.994706 0.142661
vt 0.894629 0.805549
vt 0.994599 0.805549
vt 0.894737 0.067478
vt 0.994706 0.067478
vt 0.894629 0.735331
vt 0.994599 0.735331
vt 0.894737 0.005294
vt 0.994706 0.005294
vt 0.884041 0.724743
vt 0.784072 0.724743
vt 0.784072 0.662559
vt 0.884041 0.662559
vt 0.994598 0.724743
vt 0.894629 0.724743
vt 0.894629 0.662559
vt 0.994598 0.662559
vt 0.784072 0.587376
vt 0.884041 0.587376
s 1
usemtl Tire_2
f 1/1/1 2/2/2 4/3/3 3/4/4
f 1/1/1 5/5/5 6/6/6 2/2/2
f 2/1/2 7/2/7 8/3/8 4/4/3
f 2/1/2 6/5/6 9/6/8 7/2/7
f 7/1/7 10/2/9 11/3/10 8/4/8
f 7/1/7 9/5/8 12/6/10 10/2/9
f 10/1/9 13/2/11 14/3/12 11/4/10
f 10/1/9 12/5/10 15/6/12 13/2/11
f 13/1/11 16/2/13 17/3/14 14/4/12
f 13/1/11 15/5/12 18/6/14 16/2/13
f 16/1/13 19/2/15 20/3/16 17/4/14
f 16/1/13 18/5/14 21/6/16 19/2/15
f 19/1/15 22/2/17 23/3/18 20/4/16
f 19/1/15 21/5/16 24/6/18 22/2/17
f 22/1/17 25/2/19 26/3/20 23/4/18
f 22/1/17 24/5/18 27/6/20 25/2/19
f 25/1/19 28/2/21 29/3/22 26/4/20
f 25/1/19 27/5/20 30/6/22 28/2/21
f 28/1/21 31/2/23 32/3/24 29/4/22
f 28/1/21 30/5/22 33/6/24 31/2/23
f 31/1/23 34/2/25 35/3/26 32/4/24
f 31/1/23 33/5/24 36/6/26 34/2/25
f 34/1/25 37/2/27 38/3/28 35/4/26
f 34/1/25 36/5/26 39/6/28 37/2/27
f 37/1/27 40/2/29 41/3/30 38/4/28
f 37/1/27 39/5/28 42/6/30 40/2/29
f 40/1/29 43/2/31 44/3/32 41/4/30
f 40/1/29 42/5/30 45/6/33 43/2/31
f 43/1/31 1/2/1 3/3/4 44/4/32
f 43/1/31 45/5/33 5/6/5 1/2/1
f 69/7/34 70/8/35 55/9/35 54/10/34
f 75/11/36 61/12/37 46/13/37 60/14/36
f 70/8/35 71/15/38 56/16/38 55/9/35
f 63/17/39 64/18/40 49/19/40 48/20/39
f 71/15/38 72/21/41 57/22/41 56/16/38
f 64/18/40 65/23/42 50/24/42 49/19/40
f 72/21/41 73/25/43 58/26/43 57/22/41
f 65/23/42 66/27/44 51/28/44 50/24/42
f 73/25/43 74/29/45 59/30/45 58/26/43
f 66/27/44 67/31/46 52/32/46 51/28/44
f 74/29/45 75/11/36 60/14/36 59/30/45
f 67/31/46 68/33/47 53/34/47 52/32/46
f 68/33/47 69/7/34 54/10/34 53/34/47
f 62/35/48 63/17/39 48/20/39 47/36/48
f 62/35/49 61/12/50 44/37/51 3/38/52
f 63/17/53 62/35/49 3/38/52 4/39/53
f 64/18/54 63/17/53 4/39/53 8/40/55
f 65/23/56 64/18/54 8/40/55 11/41/57
f 66/27/58 65/23/56 11/41/57 14/42/59
f 67/31/60 66/27/58 14/42/59 17/43/61
f 68/33/62 67/31/60 17/43/61 20/44/63
f 69/7/64 68/33/62 20/44/63 23/45/65
f 70/8/66 69/7/64 23/45/65 26/46/67
f 71/15/68 70/8/66 26/46/67 29/47/69
f 72/21/70 71/15/68 29/47/69 32/48/71
f 73/25/72 72/21/70 32/48/71 35/49/73
f 74/29/74 73/25/72 35/49/73 38/50/75
f 75/11/76 74/29/74 38/50/75 41/51/77
f 61/12/50 75/11/76 41/51/77 44/37/51
f 61/12/37 62/35/48 47/36/48 46/13/37
f 99/52/78 84/53/78 85/54/79 100/55/79
f 105/56/80 90/57/80 76/58/81 91/59/81
f 100/55/79 85/54/79 86/60/82 101/61/82
f 93/62/83 78/63/83 79/64/84 94/65/84
f 101/61/82 86/60/82 87/66/85 102/67/85
f 94/65/84 79/64/84 80/68/86 95/69/86
f 102/67/85 87/66/85 88/70/87 103/71/87
f 95/69/86 80/68/86 81/72/88 96/73/88
f 103/71/87 88/70/87 89/74/89 104/75/89
f 96/73/88 81/72/88 82/76/90 97/77/90
f 104/75/89 89/74/89 90/57/80 105/56/80
f 97/77/90 82/76/90 83/78/91 98/79/91
f 98/79/91 83/78/91 84/53/78 99/52/78
f 92/80/92 77/81/92 78/63/83 93/62/83
f 92/80/93 5/82/94 45/83/95 91/59/96
f 93/62/97 6/84/97 5/82/94 92/80/93
f 94/65/98 9/85/99 6/84/97 93/62/97
f 95/69/100 12/86/101 9/85/99 94/65/98
f 96/73/102 15/87/103 12/86/101 95/69/100
f 97/77/104 18/88/105 15/87/103 96/73/102
f 98/79/106 21/89/107 18/88/105 97/77/104
f 99/52/108 24/90/109 21/89/107 98/79/106
f 100/55/110 27/91/111 24/90/109 99/52/108
f 101/61/112 30/92/113 27/91/111 100/55/110
f 102/67/114 33/93/115 30/92/113 101/61/112
f 103/71/116 36/94/117 33/93/115 102/67/114
f 104/75/118 39/95/119 36/94/117 103/71/116
f 105/56/120 42/96/121 39/95/119 104/75/118
f 91/59/96 45/83/95 42/96/121 105/56/120
f 91/59/81 76/58/81 77/81/92 92/80/92
usemtl Rim
f 106/97/122 120/98/123 135/99/123 121/100/122
f 114/101/124 113/102/125 128/103/125 129/104/124
f 107/105/126 106/97/122 121/100/122 122/106/126
f 115/107/127 114/101/124 129/104/124 130/108/127
f 108/109/128 107/105/126 122/106/126 123/110/128
f 116/111/129 115/112/127 130/113/127 131/114/129
f 109/115/130 108/116/128 123/117/128 124/118/130
f 117/119/131 116/111/129 131/114/129 132/120/131
f 110/121/132 109/115/130 124/118/130 125/122/132
f 118/123/133 117/119/131 132/120/131 133/124/133
f 111/125/134 110/121/132 125/122/132 126/126/134
f 119/127/135 118/123/133 133/124/133 134/128/135
f 112/129/136 111/125/134 126/126/134 127/130/136
f 120/98/123 119/131/135 134/132/135 135/99/123
f 113/102/125 112/133/136 127/134/136 128/103/125
f 128/103/125 127/134/136 142/135/136 143/136/125
f 121/100/122 135/99/123 150/137/123 136/138/122
f 129/104/124 128/103/125 143/136/125 144/139/124
f 122/106/126 121/100/122 136/138/122 137/140/126
f 130/108/127 129/104/124 144/139/124 145/141/127
f 123/110/128 122/106/126 137/140/126 138/142/128
f 131/114/129 130/113/127 145/143/127 146/144/129
f 124/118/130 123/117/128 138/145/128 139/146/130
f 132/120/131 131/114/129 146/144/129 147/147/131
f 125/122/132 124/118/130 139/146/130 140/148/132
f 133/124/133 132/120/131 147/147/131 148/149/133
f 126/126/134 125/122/132 140/148/132 141/150/134
f 134/128/135 133/124/133 148/149/133 149/151/135
f 127/130/136 126/126/134 141/150/134 142/152/136
f 135/99/123 134/132/135 149/153/135 150/137/123
f 150/154/137 149/155/137 164/156/137 165/157/137
f 143/158/137 142/159/137 157/160/137 158/161/137
f 136/162/137 150/154/137 165/157/137 151/163/137
f 144/164/137 143/158/137 158/161/137 159/165/137
f 137/166/137 136/162/137 151/163/137 152/167/137
f 145/168/137 144/164/137 159/165/137 160/169/137
f 138/170/137 137/166/137 152/167/137 153/171/137
f 146/172/137 145/168/137 160/169/137 161/173/137
f 139/174/137 138/170/137 153/171/137 154/175/137
f 147/176/137 146/172/137 161/173/137 162/177/137
f 140/178/137 139/174/137 154/175/137 155/179/137
f 148/180/137 147/176/137 162/177/137 163/181/137
f 141/182/137 140/178/137 155/179/137 156/183/137
f 149/155/137 148/180/137 163/181/137 164/156/137
f 142/159/137 141/182/137 156/183/137 157/160/137
f 157/160/138 156/183/139 201/184/140 202/185/141
f 165/157/142 164/156/143 209/186/144 210/187/145
f 158/161/146 157/160/138 202/185/141 203/188/147
f 151/163/148 165/157/142 210/187/145 197/189/149
f 159/165/150 158/161/146 203/188/147 204/190/151
f 152/167/152 151/163/148 197/189/149 196/191/153
f 160/169/154 159/165/150 204/190/151 205/192/155
f 153/171/156 152/167/152 196/191/153 198/193/157
f 161/173/158 160/169/154 205/192/155 206/194/159
f 154/175/160 153/171/156 198/193/157 199/195/161
f 162/177/162 161/173/158 206/194/159 207/196/163
f 155/179/164 154/175/160 199/195/161 200/197/165
f 163/181/166 162/177/162 207/196/163 208/198/167
f 156/183/139 155/179/164 200/197/165 201/184/140
f 164/156/143 163/181/166 208/198/167 209/186/144
f 167/199/168 166/200/169 180/201/170 179/202/171 178/203/172 177/204/173 176/205/174 175/206/175 174/207/176 173/208/177 172/209/178 171/210/179 170/211/180 169/212/181 168/213/182
f 166/200/169 167/199/168 196/191/153 197/189/149
f 167/199/168 168/213/182 198/193/157 196/191/153
f 168/213/182 169/212/181 199/195/161 198/193/157
f 169/212/181 170/211/180 200/197/165 199/195/161
f 170/211/180 171/210/179 201/184/140 200/197/165
f 171/210/179 172/209/178 202/185/141 201/184/140
f 172/209/178 173/208/177 203/188/147 202/185/141
f 173/208/177 174/207/176 204/190/151 203/188/147
f 174/207/176 175/206/175 205/192/155 204/190/151
f 175/206/175 176/205/174 206/194/159 205/192/155
f 176/205/174 177/204/173 207/196/163 206/194/159
f 177/204/173 178/203/172 208/198/167 207/196/163
f 178/203/172 179/202/171 209/186/144 208/198/167
f 179/202/171 180/201/170 210/187/145 209/186/144
f 180/201/170 166/200/169 197/189/149 210/187/145
f 106/97/122 211/100/122 225/99/123 120/98/123
f 114/101/124 219/104/124 218/103/125 113/102/125
f 107/105/126 212/106/126 211/100/122 106/97/122
f 115/107/127 220/108/127 219/104/124 114/101/124
f 108/109/128 213/110/128 212/106/126 107/105/126
f 116/111/129 221/114/129 220/113/127 115/112/127
f 109/115/130 214/118/130 213/117/128 108/116/128
f 117/119/131 222/120/131 221/114/129 116/111/129
f 110/121/132 215/122/132 214/118/130 109/115/130
f 118/123/133 223/124/133 222/120/131 117/119/131
f 111/125/134 216/126/134 215/122/132 110/121/132
f 119/127/135 224/128/135 223/124/133 118/123/133
f 112/129/136 217/130/136 216/126/134 111/125/134
f 120/98/123 225/99/123 224/132/135 119/131/135
f 113/102/125 218/103/125 217/134/136 112/133/136
f 218/103/125 233/136/125 232/135/136 217/134/136
f 211/100/122 226/138/122 240/137/123 225/99/123
f 219/104/124 234/139/124 233/136/125 218/103/125
f 212/106/126 227/140/126 226/138/122 211/100/122
f 220/108/127 235/141/127 234/139/124 219/104/124
f 213/110/128 228/142/128 227/140/126 212/106/126
f 221/114/129 236/144/129 235/143/127 220/113/127
f 214/118/130 229/146/130 228/145/128 213/117/128
f 222/120/131 237/147/131 236/144/129 221/114/129
f 215/122/132 230/148/132 229/146/130 214/118/130
f 223/124/133 238/149/133 237/147/131 222/120/131
f 216/126/134 231/150/134 230/148/132 215/122/132
f 224/128/135 239/151/135 238/149/133 223/124/133
f 217/130/136 232/152/136 231/150/134 216/126/134
f 225/99/123 240/137/123 239/153/135 224/132/135
f 240/154/198 255/157/198 254/156/198 239/155/198
f 233/158/198 248/161/198 247/160/198 232/159/198
f 226/162/198 241/163/198 255/157/198 240/154/198
f 234/164/198 249/165/198 248/161/198 233/158/198
f 227/166/198 242/167/198 241/163/198 226/162/198
f 235/168/198 250/169/198 249/165/198 234/164/198
f 228/170/198 243/171/198 242/167/198 227/166/198
f 236/172/198 251/173/198 250/169/198 235/168/198
f 229/174/198 244/175/198 243/171/198 228/170/198
f 237/176/198 252/177/198 251/173/198 236/172/198
f 230/178/198 245/179/198 244/175/198 229/174/198
f 238/180/198 253/181/198 252/177/198 237/176/198
f 231/182/198 246/183/198 245/179/198 230/178/198
f 239/155/198 254/156/198 253/181/198 238/180/198
f 232/159/198 247/160/198 246/183/198 231/182/198
f 262/160/199 292/185/200 291/184/201 261/183/202
f 270/157/203 300/187/204 299/186/205 269/156/206
f 263/161/207 293/188/208 292/185/200 262/160/199
f 256/163/209 287/189/210 300/187/204 270/157/203
f 264/165/211 294/190/212 293/188/208 263/161/207
f 257/167/213 286/191/214 287/189/210 256/163/209
f 265/169/215 295/192/216 294/190/212 264/165/211
f 258/171/217 288/193/218 286/191/214 257/167/213
f 266/173/219 296/194/220 295/192/216 265/169/215
f 259/175/221 289/195/222 288/193/218 258/171/217
f 267/177/223 297/196/224 296/194/220 266/173/219
f 260/179/225 290/197/226 289/195/222 259/175/221
f 268/181/227 298/198/228 297/196/224 267/177/223
f 261/183/202 291/184/201 290/197/226 260/179/225
f 269/156/206 299/186/205 298/198/228 268/181/227
f 272/199/229 273/213/230 274/212/231 275/211/232 276/210/233 277/209/234 278/208/235 279/207/236 280/206/237 281/205/238 282/204/239 283/203/240 284/202/241 285/201/242 271/200/243
f 271/200/243 287/189/210 286/191/214 272/199/229
f 272/199/229 286/191/214 288/193/218 273/213/230
f 273/213/230 288/193/218 289/195/222 274/212/231
f 274/212/231 289/195/222 290/197/226 275/211/232
f 275/211/232 290/197/226 291/184/201 276/210/233
f 276/210/233 291/184/201 292/185/200 277/209/234
f 277/209/234 292/185/200 293/188/208 278/208/235
f 278/208/235 293/188/208 294/190/212 279/207/236
f 279/207/236 294/190/212 295/192/216 280/206/237
f 280/206/237 295/192/216 296/194/220 281/205/238
f 281/205/238 296/194/220 297/196/224 282/204/239
f 282/204/239 297/196/224 298/198/228 283/203/240
f 283/203/240 298/198/228 299/186/205 284/202/241
f 284/202/241 299/186/205 300/187/204 285/201/242
f 285/201/242 300/187/204 287/189/210 271/200/243
usemtl Rim_2
f 151/214/183 181/215/183 182/216/184 152/217/184
f 159/218/185 189/219/185 190/220/186 160/221/186
f 152/217/184 182/216/184 183/222/187 153/223/187
f 160/224/186 190/225/186 191/226/188 161/227/188
f 153/228/187 183/229/187 184/230/189 154/231/189
f 161/227/188 191/226/188 192/232/190 162/233/190
f 154/231/189 184/230/189 185/234/191 155/235/191
f 162/233/190 192/232/190 193/236/192 163/237/192
f 155/235/191 185/234/191 186/238/193 156/239/193
f 163/237/192 193/236/192 194/240/194 164/241/194
f 156/242/193 186/243/193 187/244/195 157/245/195
f 164/246/194 194/247/194 195/248/196 165/249/196
f 157/245/195 187/244/195 188/250/197 158/251/197
f 165/249/196 195/248/196 181/215/183 151/214/183
f 158/251/197 188/250/197 189/219/185 159/218/185
f 241/214/183 242/217/184 182/216/184 181/215/183
f 249/218/185 250/221/186 190/220/186 189/219/185
f 242/217/184 243/223/187 183/222/187 182/216/184
f 250/224/186 251/227/188 191/226/188 190/225/186
f 243/228/187 244/231/189 184/230/189 183/229/187
f 251/227/188 252/233/190 192/232/190 191/226/188
f 244/231/189 245/235/191 185/234/191 184/230/189
f 252/233/190 253/237/192 193/236/192 192/232/190
f 245/235/191 246/239/193 186/238/193 185/234/191
f 253/237/192 254/241/194 194/240/194 193/236/192
f 246/242/193 247/245/195 187/244/195 186/243/193
f 254/246/194 255/249/196 195/248/196 194/247/194
f 247/245/195 248/251/197 188/250/197 187/244/195
f 255/249/196 241/214/183 181/215/183 195/248/196
f 248/251/197 249/218/185 189/219/185 188/250/197
