# Blender 5.2.0 LTS
# www.blender.org
mtllib nissan-r32-wheel3.mtl
o $wheel1
v 0.101126 0.063071 0.317080
v 0.101126 -0.063071 0.317080
v 0.101126 -0.179612 0.268807
v 0.101126 -0.268808 0.179611
v 0.101126 -0.317080 0.063071
v 0.101126 -0.317080 -0.063073
v 0.101126 -0.268808 -0.179613
v 0.101126 -0.179612 -0.268809
v 0.101126 -0.063071 -0.317081
v 0.101126 0.063071 -0.317082
v 0.101126 0.179612 -0.268809
v 0.101126 0.268808 -0.179613
v 0.101126 0.317080 -0.063072
v 0.101126 0.317080 0.063071
v 0.101126 0.268808 0.179611
v 0.101126 0.179612 0.268807
v 0.140518 0.066862 0.336135
v 0.140518 -0.066862 0.336135
v 0.140518 -0.190406 0.284961
v 0.140518 -0.284962 0.190405
v 0.140518 -0.336136 0.066860
v 0.140518 -0.336136 -0.066862
v 0.140518 -0.284962 -0.190406
v 0.140518 -0.190406 -0.284963
v 0.140518 -0.066862 -0.336137
v 0.140518 0.066862 -0.336137
v 0.140518 0.190406 -0.284963
v 0.140518 0.284961 -0.190406
v 0.140518 0.336136 -0.066862
v 0.140518 0.336136 0.066860
v 0.140518 0.284961 0.190405
v 0.140518 0.190406 0.284961
v 0.140518 0.087598 0.440383
v 0.140518 -0.087598 0.440383
v 0.140518 -0.249457 0.373338
v 0.140518 -0.373339 0.249456
v 0.140518 -0.440383 0.087597
v 0.140518 -0.440383 -0.087599
v 0.140518 -0.373339 -0.249458
v 0.140518 -0.249457 -0.373340
v 0.140518 -0.087598 -0.440384
v 0.140518 0.087598 -0.440384
v 0.140518 0.249457 -0.373340
v 0.140518 0.373340 -0.249458
v 0.140518 0.440383 -0.087599
v 0.140518 0.440383 0.087597
v 0.140518 0.373340 0.249457
v 0.140518 0.249457 0.373339
v 0.112118 0.092788 0.466477
v 0.112118 -0.092788 0.466477
v 0.112118 -0.264238 0.395459
v 0.112118 -0.395460 0.264237
v 0.112118 -0.466477 0.092787
v 0.112118 -0.466477 -0.092789
v 0.112118 -0.395460 -0.264239
v 0.112118 -0.264238 -0.395461
v 0.112118 -0.092788 -0.466478
v 0.112118 0.092788 -0.466478
v 0.112118 0.264238 -0.395461
v 0.112118 0.395459 -0.264239
v 0.112118 0.466478 -0.092789
v 0.112118 0.466478 0.092787
v 0.112118 0.395459 0.264238
v 0.112118 0.264238 0.395460
v -0.276934 0.092788 0.466477
v -0.276934 -0.092788 0.466477
v -0.276934 -0.264238 0.395459
v -0.276934 -0.395460 0.264237
v -0.276934 -0.466477 0.092787
v -0.276934 -0.466477 -0.092789
v -0.276934 -0.395460 -0.264239
v -0.276934 -0.264238 -0.395461
v -0.276934 -0.092788 -0.466478
v -0.276934 0.092788 -0.466478
v -0.276934 0.264238 -0.395461
v -0.276934 0.395459 -0.264239
v -0.276934 0.466478 -0.092789
v -0.276934 0.466478 0.092787
v -0.276934 0.395459 0.264238
v -0.276934 0.264238 0.395460
v -0.305682 0.087598 0.440383
v -0.305682 -0.087598 0.440383
v -0.305682 -0.249457 0.373338
v -0.305682 -0.373339 0.249456
v -0.305682 -0.440383 0.087597
v -0.305682 -0.440383 -0.087599
v -0.305682 -0.373339 -0.249458
v -0.305682 -0.249457 -0.373340
v -0.305682 -0.087598 -0.440384
v -0.305682 0.087598 -0.440384
v -0.305682 0.249457 -0.373340
v -0.305682 0.373340 -0.249458
v -0.305682 0.440383 -0.087599
v -0.305682 0.440383 0.087597
v -0.305682 0.373340 0.249457
v -0.305682 0.249457 0.373339
v -0.305682 -0.000000 -0.000001
v 0.101126 -0.000000 -0.000001
v 0.101126 0.063071 0.317080
v 0.101126 -0.063071 0.317080
v 0.101126 -0.179612 0.268807
v 0.101126 -0.268808 0.179611
v 0.101126 -0.317080 0.063071
v 0.101126 -0.317080 -0.063073
v 0.101126 -0.268808 -0.179613
v 0.101126 -0.179612 -0.268809
v 0.101126 -0.063071 -0.317081
v 0.101126 0.063071 -0.317082
v 0.101126 0.179612 -0.268809
v 0.101126 0.268808 -0.179613
v 0.101126 0.317080 -0.063072
v 0.101126 0.317080 0.063071
v 0.101126 0.268808 0.179611
v 0.101126 0.179612 0.268807
v 0.056383 -0.000000 -0.000001
v 0.056383 -0.000000 0.187188
v 0.056383 -0.071644 0.172942
v 0.056383 -0.132361 0.132371
v 0.056383 -0.172931 0.071654
v 0.056383 -0.187177 -0.000001
v 0.056383 -0.172931 -0.071590
v 0.056383 -0.132361 -0.132306
v 0.056383 -0.071644 -0.172877
v 0.056383 -0.000000 -0.187123
v 0.056383 0.071600 -0.172877
v 0.056383 0.132317 -0.132307
v 0.056383 0.172888 -0.071590
v 0.056383 0.187134 -0.000001
v 0.056383 0.172888 0.071654
v 0.056383 0.132317 0.132371
v 0.056383 0.071600 0.172942
v 0.123075 0.431684 -0.000001
v 0.123075 0.305248 -0.305248
v 0.123075 -0.000000 -0.431685
v 0.123075 -0.305247 -0.305248
v 0.123075 -0.431684 -0.000001
v 0.123075 -0.305247 0.305246
v 0.123075 -0.000000 0.431684
v 0.123075 0.305248 0.305247
v -0.305682 -0.000000 -0.000001
vn 0.8788 -0.0931 -0.4680
vn 0.8788 0.0931 -0.4680
vn 0.4423 0.1750 -0.8796
vn 0.4423 -0.1750 -0.8796
vn 0.8788 0.2651 -0.3968
vn 0.4423 0.4983 -0.7457
vn 0.8788 0.3968 -0.2651
vn 0.4423 0.7457 -0.4983
vn 0.8788 0.4680 -0.0931
vn 0.4423 0.8796 -0.1750
vn 0.8788 0.4680 0.0931
vn 0.4423 0.8796 0.1750
vn 0.8788 0.3968 0.2651
vn 0.4423 0.7457 0.4983
vn 0.8788 0.2651 0.3968
vn 0.4423 0.4983 0.7457
vn 0.8788 0.0931 0.4680
vn 0.4423 0.1750 0.8796
vn 0.8788 -0.0931 0.4680
vn 0.4423 -0.1750 0.8796
vn 0.8788 -0.2651 0.3968
vn 0.4423 -0.4983 0.7457
vn 0.8788 -0.3968 0.2651
vn 0.4423 -0.7457 0.4983
vn 0.8788 -0.4680 0.0931
vn 0.4423 -0.8796 0.1750
vn 0.8788 -0.4680 -0.0931
vn 0.4423 -0.8796 -0.1750
vn 0.8788 -0.3968 -0.2651
vn 0.4423 -0.7457 -0.4983
vn 0.8788 -0.2651 -0.3968
vn 0.4423 -0.4983 -0.7457
vn 0.8990 0.0854 0.4294
vn 0.8990 -0.0854 0.4294
vn 0.8990 -0.2433 0.3641
vn 0.8990 -0.3641 0.2433
vn 0.8990 -0.4294 0.0854
vn 0.8990 -0.4294 -0.0854
vn 0.8990 -0.3641 -0.2433
vn 0.8990 -0.2433 -0.3641
vn 0.8990 -0.0854 -0.4294
vn 0.8990 0.0854 -0.4294
vn 0.8990 0.2433 -0.3641
vn 0.8990 0.3641 -0.2433
vn 0.8990 0.4294 -0.0854
vn 0.8990 0.4294 0.0854
vn 0.8990 0.3641 0.2433
vn 0.8990 0.2433 0.3641
vn 0.3528 0.1825 0.9177
vn 0.3528 -0.1825 0.9177
vn 0.3528 -0.5198 0.7780
vn 0.3528 -0.7780 0.5198
vn 0.3528 -0.9177 0.1825
vn 0.3528 -0.9177 -0.1825
vn 0.3528 -0.7780 -0.5198
vn 0.3528 -0.5198 -0.7780
vn 0.3528 -0.1825 -0.9177
vn 0.3528 0.1825 -0.9177
vn 0.3528 0.5198 -0.7780
vn 0.3528 0.7780 -0.5198
vn 0.3528 0.9177 -0.1825
vn 0.3528 0.9177 0.1825
vn 0.3528 0.7780 0.5198
vn 0.3528 0.5198 0.7780
vn -0.3502 0.1827 0.9187
vn -0.3502 -0.1827 0.9187
vn -0.3502 -0.5204 0.7788
vn -0.3502 -0.7788 0.5204
vn -0.3502 -0.9187 0.1827
vn -0.3502 -0.9187 -0.1827
vn -0.3502 -0.7788 -0.5204
vn -0.3502 -0.5204 -0.7788
vn -0.3502 -0.1827 -0.9187
vn -0.3502 0.1827 -0.9187
vn -0.3502 0.5204 -0.7788
vn -0.3502 0.7788 -0.5204
vn -0.3502 0.9187 -0.1827
vn -0.3502 0.9187 0.1827
vn -0.3502 0.7788 0.5204
vn -0.3502 0.5204 0.7788
vn -0.8976 0.0860 0.4323
vn -0.8976 -0.0860 0.4323
vn -0.8976 -0.2449 0.3665
vn -0.8976 -0.3665 0.2449
vn -0.8976 -0.4323 0.0860
vn -0.8976 -0.4323 -0.0860
vn -0.8976 -0.3665 -0.2449
vn -0.8976 -0.2449 -0.3665
vn -0.8976 -0.0860 -0.4323
vn -0.8976 0.0860 -0.4323
vn -0.8976 0.2449 -0.3665
vn -0.8976 0.3665 -0.2449
vn -0.8976 0.4323 -0.0860
vn -0.8976 0.4323 0.0860
vn -0.8976 0.3665 0.2449
vn -0.8976 0.2449 0.3665
vn -1.0000 -0.0000 -0.0000
vn 1.0000 -0.0000 -0.0000
vn 0.7095 -0.4984 0.4983
vn 0.7095 -0.7047 -0.0000
vn 0.8183 -0.4064 -0.4064
vn 0.7095 -0.4983 -0.4983
vn 0.7095 0.4984 -0.4983
vn 0.7095 0.7047 -0.0000
vn 0.8183 0.4064 0.4064
vn 0.7095 0.4983 0.4983
vn 0.7095 -0.0000 -0.7047
vn 0.7095 0.4982 -0.4983
vn 0.7095 -0.0000 0.7047
vn 0.7095 -0.4982 0.4983
vt 0.936610 0.314810
vt 0.936610 0.329710
vt 0.932810 0.329290
vt 0.932810 0.315230
vt 0.948230 0.312500
vt 0.948230 0.332020
vt 0.953170 0.312560
vt 0.953170 0.332020
vt 0.949260 0.331490
vt 0.949260 0.313100
vt 0.993150 0.312560
vt 0.993150 0.332020
vt 0.997050 0.313100
vt 0.997050 0.331490
vt 0.907770 0.317370
vt 0.931600 0.312630
vt 0.931600 0.322110
vt 0.796960 0.451070
vt 0.796960 0.411210
vt 0.896970 0.431150
vt 0.812180 0.374460
vt 0.840320 0.346370
vt 0.877140 0.331120
vt 0.916810 0.331120
vt 0.953630 0.346370
vt 0.981760 0.374460
vt 0.997000 0.411210
vt 0.997000 0.451070
vt 0.981780 0.487820
vt 0.953630 0.515970
vt 0.916810 0.531160
vt 0.877140 0.531160
vt 0.840320 0.515860
vt 0.812180 0.487820
vt 0.241720 0.182140
vt 0.244690 0.197080
vt 0.280760 0.182140
vt 0.253150 0.209740
vt 0.265820 0.218210
vt 0.280760 0.221180
vt 0.994930 0.501860
vt 0.994930 0.496140
vt 0.984790 0.499130
s 1
usemtl mat1.002
f 17/1/1 18/2/2 2/3/3 1/4/4
f 18/2/2 19/1/5 3/4/6 2/3/3
f 19/1/5 20/2/7 4/3/8 3/4/6
f 20/2/7 21/1/9 5/4/10 4/3/8
f 21/1/9 22/2/11 6/3/12 5/4/10
f 22/2/11 23/1/13 7/4/14 6/3/12
f 23/1/13 24/2/15 8/3/16 7/4/14
f 24/2/15 25/1/17 9/4/18 8/3/16
f 25/1/17 26/2/19 10/3/20 9/4/18
f 26/2/19 27/1/21 11/4/22 10/3/20
f 27/1/21 28/2/23 12/3/24 11/4/22
f 28/2/23 29/1/25 13/4/26 12/3/24
f 29/1/25 30/2/27 14/3/28 13/4/26
f 30/2/27 31/1/29 15/4/30 14/3/28
f 31/1/29 32/2/31 16/3/32 15/4/30
f 32/2/31 17/1/1 1/4/4 16/3/32
f 33/5/33 34/6/34 18/2/2 17/1/1
f 34/6/34 35/5/35 19/1/5 18/2/2
f 35/5/35 36/6/36 20/2/7 19/1/5
f 36/6/36 37/5/37 21/1/9 20/2/7
f 37/5/37 38/6/38 22/2/11 21/1/9
f 38/6/38 39/5/39 23/1/13 22/2/11
f 39/5/39 40/6/40 24/2/15 23/1/13
f 40/6/40 41/5/41 25/1/17 24/2/15
f 41/5/41 42/6/42 26/2/19 25/1/17
f 42/6/42 43/5/43 27/1/21 26/2/19
f 43/5/43 44/6/44 28/2/23 27/1/21
f 44/6/44 45/5/45 29/1/25 28/2/23
f 45/5/45 46/6/46 30/2/27 29/1/25
f 46/6/46 47/5/47 31/1/29 30/2/27
f 47/5/47 48/6/48 32/2/31 31/1/29
f 48/6/48 33/5/33 17/1/1 32/2/31
f 49/7/49 50/8/50 34/9/34 33/10/33
f 50/7/50 51/8/51 35/9/35 34/10/34
f 51/7/51 52/8/52 36/9/36 35/10/35
f 52/7/52 53/8/53 37/9/37 36/10/36
f 53/7/53 54/8/54 38/9/38 37/10/37
f 54/7/54 55/8/55 39/9/39 38/10/38
f 55/7/55 56/8/56 40/9/40 39/10/39
f 56/7/56 57/8/57 41/9/41 40/10/40
f 57/7/57 58/8/58 42/9/42 41/10/41
f 58/7/58 59/8/59 43/9/43 42/10/42
f 59/7/59 60/8/60 44/9/44 43/10/43
f 60/7/60 61/8/61 45/9/45 44/10/44
f 61/7/61 62/8/62 46/9/46 45/10/45
f 62/7/62 63/8/63 47/9/47 46/10/46
f 63/7/63 64/8/64 48/9/48 47/10/47
f 64/7/64 49/8/49 33/9/33 48/10/48
f 65/11/65 66/12/66 50/8/50 49/7/49
f 66/11/66 67/12/67 51/8/51 50/7/50
f 67/11/67 68/12/68 52/8/52 51/7/51
f 68/11/68 69/12/69 53/8/53 52/7/52
f 69/11/69 70/12/70 54/8/54 53/7/53
f 70/11/70 71/12/71 55/8/55 54/7/54
f 71/11/71 72/12/72 56/8/56 55/7/55
f 72/11/72 73/12/73 57/8/57 56/7/56
f 73/11/73 74/12/74 58/8/58 57/7/57
f 74/11/74 75/12/75 59/8/59 58/7/58
f 75/11/75 76/12/76 60/8/60 59/7/59
f 76/11/76 77/12/77 61/8/61 60/7/60
f 77/11/77 78/12/78 62/8/62 61/7/61
f 78/11/78 79/12/79 63/8/63 62/7/62
f 79/11/79 80/12/80 64/8/64 63/7/63
f 80/11/80 65/12/65 49/8/49 64/7/64
f 81/13/81 82/14/82 66/12/66 65/11/65
f 82/13/82 83/14/83 67/12/67 66/11/66
f 83/13/83 84/14/84 68/12/68 67/11/67
f 84/13/84 85/14/85 69/12/69 68/11/68
f 85/13/85 86/14/86 70/12/70 69/11/69
f 86/13/86 87/14/87 71/12/71 70/11/70
f 87/13/87 88/14/88 72/12/72 71/11/71
f 88/13/88 89/14/89 73/12/73 72/11/72
f 89/13/89 90/14/90 74/12/74 73/11/73
f 90/13/90 91/14/91 75/12/75 74/11/74
f 91/13/91 92/14/92 76/12/76 75/11/75
f 92/13/92 93/14/93 77/12/77 76/11/76
f 93/13/93 94/14/94 78/12/78 77/11/77
f 94/13/94 95/14/95 79/12/79 78/11/78
f 95/13/95 96/14/96 80/12/80 79/11/79
f 96/13/96 81/14/81 65/12/65 80/11/80
f 97/15/97 82/16/82 81/17/81
f 97/15/97 83/17/83 82/16/82
f 97/15/97 84/16/84 83/17/83
f 97/15/97 85/17/85 84/16/84
f 97/15/97 86/16/86 85/17/85
f 97/15/97 87/17/87 86/16/86
f 97/15/97 88/16/88 87/17/87
f 97/15/97 89/17/89 88/16/88
f 97/15/97 90/16/90 89/17/89
f 97/15/97 91/17/91 90/16/90
f 97/15/97 92/16/92 91/17/91
f 97/15/97 93/17/93 92/16/92
f 97/15/97 94/16/94 93/17/93
f 97/15/97 95/17/95 94/16/94
f 97/15/97 96/16/96 95/17/95
f 97/15/97 81/17/81 96/16/96
f 99/18/98 100/19/98 98/20/98
f 100/19/98 101/21/98 98/20/98
f 101/21/98 102/22/98 98/20/98
f 102/22/98 103/23/98 98/20/98
f 103/23/98 104/24/98 98/20/98
f 104/24/98 105/25/98 98/20/98
f 105/25/98 106/26/98 98/20/98
f 106/26/98 107/27/98 98/20/98
f 107/27/98 108/28/98 98/20/98
f 108/28/98 109/29/98 98/20/98
f 109/29/98 110/30/98 98/20/98
f 110/30/98 111/31/98 98/20/98
f 111/31/98 112/32/98 98/20/98
f 112/32/98 113/33/98 98/20/98
f 113/33/98 114/34/98 98/20/98
f 114/34/98 99/18/98 98/20/98
f 116/35/98 117/36/98 115/37/98
f 117/36/98 118/38/98 115/37/98
f 118/38/98 119/39/98 115/37/98
f 119/39/98 120/40/98 115/37/98
f 120/40/98 121/39/98 115/37/98
f 121/39/98 122/38/98 115/37/98
f 122/38/98 123/36/98 115/37/98
f 123/36/98 124/35/98 115/37/98
f 124/35/98 125/36/98 115/37/98
f 125/36/98 126/38/98 115/37/98
f 126/38/98 127/39/98 115/37/98
f 127/39/98 128/40/98 115/37/98
f 128/40/98 129/39/98 115/37/98
f 129/39/98 130/38/98 115/37/98
f 130/38/98 131/36/98 115/37/98
f 131/36/98 116/35/98 115/37/98
f 133/41/99 132/42/100 140/43/101
f 132/42/100 139/41/102 140/43/101
f 137/41/103 136/42/104 140/43/105
f 136/42/104 135/41/106 140/43/105
f 139/41/102 138/42/107 140/43/101
f 137/41/108 140/43/101 138/42/107
f 135/41/106 134/42/109 140/43/105
f 133/41/110 140/43/105 134/42/109
