# Blender 5.2.0 LTS
# www.blender.org
mtllib nissan-r32-wheel.mtl
o $wheel1
v 2.862071 1.785034 8.974002
v 2.862071 -1.785037 8.974002
v 2.862071 -5.083382 7.607780
v 2.862071 -7.607807 5.083354
v 2.862071 -8.974002 1.785036
v 2.862071 -8.974002 -1.785091
v 2.862071 -7.607808 -5.083404
v 2.862071 -5.083383 -7.607831
v 2.862071 -1.785039 -8.974028
v 2.862071 1.785033 -8.974053
v 2.862071 5.083376 -7.607831
v 2.862071 7.607802 -5.083405
v 2.862071 8.973998 -1.785062
v 2.862071 8.973998 1.785035
v 2.862071 7.607803 5.083353
v 2.862071 5.083377 7.607779
v 3.976944 1.892327 9.513297
v 3.976944 -1.892330 9.513297
v 3.976944 -5.388873 8.064970
v 3.976944 -8.064999 5.388847
v 3.976944 -9.513326 1.892274
v 3.976944 -9.513326 -1.892324
v 3.976944 -8.064999 -5.388868
v 3.976944 -5.388874 -8.065022
v 3.976944 -1.892332 -9.513350
v 3.976944 1.892326 -9.513350
v 3.976944 5.388869 -8.065022
v 3.976944 8.064965 -5.388869
v 3.976944 9.513320 -1.892326
v 3.976944 9.513320 1.892273
v 3.976944 8.064965 5.388846
v 3.976944 5.388870 8.064970
v 3.976944 2.479198 12.463721
v 3.976944 -2.479200 12.463721
v 3.976944 -7.060135 10.566216
v 3.976944 -10.566243 7.060107
v 3.976944 -12.463724 2.479173
v 3.976944 -12.463724 -2.479223
v 3.976944 -10.566245 -7.060161
v 3.976944 -7.060137 -10.566270
v 3.976944 -2.479202 -12.463748
v 3.976944 2.479196 -12.463748
v 3.976944 7.060130 -10.566272
v 3.976944 10.566267 -7.060163
v 3.976944 12.463719 -2.479225
v 3.976944 12.463719 2.479171
v 3.976944 10.566269 7.060135
v 3.976944 7.060132 10.566243
v 3.173168 2.626085 13.202236
v 3.173168 -2.626088 13.202236
v 3.173168 -7.478467 11.192283
v 3.173168 -11.192312 7.478439
v 3.173168 -13.202237 2.626060
v 3.173168 -13.202237 -2.626114
v 3.173168 -11.192314 -7.478489
v 3.173168 -7.478469 -11.192337
v 3.173168 -2.626090 -13.202262
v 3.173168 2.626083 -13.202262
v 3.173168 7.478461 -11.192339
v 3.173168 11.192279 -7.478491
v 3.173168 13.202261 -2.626116
v 3.173168 13.202261 2.626058
v 3.173168 11.192281 7.478464
v 3.173168 7.478463 11.192311
v -7.837785 2.626085 13.202236
v -7.837785 -2.626088 13.202236
v -7.837785 -7.478467 11.192283
v -7.837785 -11.192312 7.478439
v -7.837785 -13.202237 2.626060
v -7.837785 -13.202237 -2.626114
v -7.837785 -11.192314 -7.478489
v -7.837785 -7.478469 -11.192337
v -7.837785 -2.626090 -13.202262
v -7.837785 2.626083 -13.202262
v -7.837785 7.478461 -11.192339
v -7.837785 11.192279 -7.478491
v -7.837785 13.202261 -2.626116
v -7.837785 13.202261 2.626058
v -7.837785 11.192281 7.478464
v -7.837785 7.478463 11.192311
v -8.651409 2.479198 12.463721
v -8.651409 -2.479200 12.463721
v -8.651409 -7.060135 10.566216
v -8.651409 -10.566243 7.060107
v -8.651409 -12.463724 2.479173
v -8.651409 -12.463724 -2.479223
v -8.651409 -10.566245 -7.060161
v -8.651409 -7.060137 -10.566270
v -8.651409 -2.479202 -12.463748
v -8.651409 2.479196 -12.463748
v -8.651409 7.060130 -10.566272
v -8.651409 10.566267 -7.060163
v -8.651409 12.463719 -2.479225
v -8.651409 12.463719 2.479171
v -8.651409 10.566269 7.060135
v -8.651409 7.060132 10.566243
v -8.651409 -0.000002 -0.000026
v 2.862071 -0.000002 -0.000026
v 2.862071 1.785034 8.974002
v 2.862071 -1.785037 8.974002
v 2.862071 -5.083382 7.607780
v 2.862071 -7.607807 5.083354
v 2.862071 -8.974002 1.785036
v 2.862071 -8.974002 -1.785091
v 2.862071 -7.607808 -5.083404
v 2.862071 -5.083383 -7.607831
v 2.862071 -1.785039 -8.974028
v 2.862071 1.785033 -8.974053
v 2.862071 5.083376 -7.607831
v 2.862071 7.607802 -5.083405
v 2.862071 8.973998 -1.785062
v 2.862071 8.973998 1.785035
v 2.862071 7.607803 5.083353
v 2.862071 5.083377 7.607779
vn 0.8788 -0.0931 -0.4680
vn 0.8788 0.0931 -0.4680
vn 0.4423 0.1750 -0.8796
vn 0.4423 -0.1750 -0.8796
vn 0.8788 0.2651 -0.3968
vn 0.4423 0.4983 -0.7457
vn 0.8788 0.3968 -0.2651
vn 0.4423 0.7457 -0.4983
vn 0.8788 0.4680 -0.0931
vn 0.4423 0.8796 -0.1750
vn 0.8788 0.4680 0.0931
vn 0.4423 0.8796 0.1750
vn 0.8788 0.3968 0.2651
vn 0.4423 0.7457 0.4983
vn 0.8788 0.2651 0.3968
vn 0.4423 0.4983 0.7457
vn 0.8788 0.0931 0.4680
vn 0.4423 0.1750 0.8796
vn 0.8788 -0.0931 0.4680
vn 0.4423 -0.1750 0.8796
vn 0.8788 -0.2651 0.3968
vn 0.4423 -0.4983 0.7457
vn 0.8788 -0.3968 0.2651
vn 0.4423 -0.7457 0.4983
vn 0.8788 -0.4680 0.0931
vn 0.4423 -0.8796 0.1750
vn 0.8788 -0.4680 -0.0931
vn 0.4423 -0.8796 -0.1750
vn 0.8788 -0.3968 -0.2651
vn 0.4423 -0.7457 -0.4983
vn 0.8788 -0.2651 -0.3968
vn 0.4423 -0.4983 -0.7457
vn 0.8990 0.0854 0.4294
vn 0.8990 -0.0854 0.4294
vn 0.8990 -0.2433 0.3641
vn 0.8990 -0.3641 0.2433
vn 0.8990 -0.4294 0.0854
vn 0.8990 -0.4294 -0.0854
vn 0.8990 -0.3641 -0.2433
vn 0.8990 -0.2433 -0.3641
vn 0.8990 -0.0854 -0.4294
vn 0.8990 0.0854 -0.4294
vn 0.8990 0.2433 -0.3641
vn 0.8990 0.3641 -0.2433
vn 0.8990 0.4294 -0.0854
vn 0.8990 0.4294 0.0854
vn 0.8990 0.3641 0.2433
vn 0.8990 0.2433 0.3641
vn 0.3528 0.1825 0.9177
vn 0.3528 -0.1825 0.9177
vn 0.3528 -0.5198 0.7780
vn 0.3528 -0.7780 0.5198
vn 0.3528 -0.9177 0.1825
vn 0.3528 -0.9177 -0.1825
vn 0.3528 -0.7780 -0.5198
vn 0.3528 -0.5198 -0.7780
vn 0.3528 -0.1825 -0.9177
vn 0.3528 0.1825 -0.9177
vn 0.3528 0.5198 -0.7780
vn 0.3528 0.7780 -0.5198
vn 0.3528 0.9177 -0.1825
vn 0.3528 0.9177 0.1825
vn 0.3528 0.7780 0.5198
vn 0.3528 0.5198 0.7780
vn -0.3502 0.1827 0.9187
vn -0.3502 -0.1827 0.9187
vn -0.3502 -0.5204 0.7788
vn -0.3502 -0.7788 0.5204
vn -0.3502 -0.9187 0.1827
vn -0.3502 -0.9187 -0.1827
vn -0.3502 -0.7788 -0.5204
vn -0.3502 -0.5204 -0.7788
vn -0.3502 -0.1827 -0.9187
vn -0.3502 0.1827 -0.9187
vn -0.3502 0.5204 -0.7788
vn -0.3502 0.7788 -0.5204
vn -0.3502 0.9187 -0.1827
vn -0.3502 0.9187 0.1827
vn -0.3502 0.7788 0.5204
vn -0.3502 0.5204 0.7788
vn -0.8976 0.0860 0.4323
vn -0.8976 -0.0860 0.4323
vn -0.8976 -0.2449 0.3665
vn -0.8976 -0.3665 0.2449
vn -0.8976 -0.4323 0.0860
vn -0.8976 -0.4323 -0.0860
vn -0.8976 -0.3665 -0.2449
vn -0.8976 -0.2449 -0.3665
vn -0.8976 -0.0860 -0.4323
vn -0.8976 0.0860 -0.4323
vn -0.8976 0.2449 -0.3665
vn -0.8976 0.3665 -0.2449
vn -0.8976 0.4323 -0.0860
vn -0.8976 0.4323 0.0860
vn -0.8976 0.3665 0.2449
vn -0.8976 0.2449 0.3665
vn -1.0000 -0.0000 -0.0000
vn 1.0000 -0.0000 -0.0000
vt 0.936610 0.314810
vt 0.936610 0.329710
vt 0.932810 0.329290
vt 0.932810 0.315230
vt 0.948230 0.312500
vt 0.948230 0.332020
vt 0.953170 0.312560
vt 0.953170 0.332020
vt 0.949260 0.331490
vt 0.949260 0.313100
vt 0.993150 0.312560
vt 0.993150 0.332020
vt 0.997050 0.313100
vt 0.997050 0.331490
vt 0.907770 0.317370
vt 0.931600 0.312630
vt 0.931600 0.322110
vt 0.796960 0.451070
vt 0.796960 0.411210
vt 0.896970 0.431150
vt 0.812180 0.374460
vt 0.840320 0.346370
vt 0.877140 0.331120
vt 0.916810 0.331120
vt 0.953630 0.346370
vt 0.981760 0.374460
vt 0.997000 0.411210
vt 0.997000 0.451070
vt 0.981780 0.487820
vt 0.953630 0.515970
vt 0.916810 0.531160
vt 0.877140 0.531160
vt 0.840320 0.515860
vt 0.812180 0.487820
s 1
usemtl mat1
f 17/1/1 18/2/2 2/3/3 1/4/4
f 18/2/2 19/1/5 3/4/6 2/3/3
f 19/1/5 20/2/7 4/3/8 3/4/6
f 20/2/7 21/1/9 5/4/10 4/3/8
f 21/1/9 22/2/11 6/3/12 5/4/10
f 22/2/11 23/1/13 7/4/14 6/3/12
f 23/1/13 24/2/15 8/3/16 7/4/14
f 24/2/15 25/1/17 9/4/18 8/3/16
f 25/1/17 26/2/19 10/3/20 9/4/18
f 26/2/19 27/1/21 11/4/22 10/3/20
f 27/1/21 28/2/23 12/3/24 11/4/22
f 28/2/23 29/1/25 13/4/26 12/3/24
f 29/1/25 30/2/27 14/3/28 13/4/26
f 30/2/27 31/1/29 15/4/30 14/3/28
f 31/1/29 32/2/31 16/3/32 15/4/30
f 32/2/31 17/1/1 1/4/4 16/3/32
f 33/5/33 34/6/34 18/2/2 17/1/1
f 34/6/34 35/5/35 19/1/5 18/2/2
f 35/5/35 36/6/36 20/2/7 19/1/5
f 36/6/36 37/5/37 21/1/9 20/2/7
f 37/5/37 38/6/38 22/2/11 21/1/9
f 38/6/38 39/5/39 23/1/13 22/2/11
f 39/5/39 40/6/40 24/2/15 23/1/13
f 40/6/40 41/5/41 25/1/17 24/2/15
f 41/5/41 42/6/42 26/2/19 25/1/17
f 42/6/42 43/5/43 27/1/21 26/2/19
f 43/5/43 44/6/44 28/2/23 27/1/21
f 44/6/44 45/5/45 29/1/25 28/2/23
f 45/5/45 46/6/46 30/2/27 29/1/25
f 46/6/46 47/5/47 31/1/29 30/2/27
f 47/5/47 48/6/48 32/2/31 31/1/29
f 48/6/48 33/5/33 17/1/1 32/2/31
f 49/7/49 50/8/50 34/9/34 33/10/33
f 50/7/50 51/8/51 35/9/35 34/10/34
f 51/7/51 52/8/52 36/9/36 35/10/35
f 52/7/52 53/8/53 37/9/37 36/10/36
f 53/7/53 54/8/54 38/9/38 37/10/37
f 54/7/54 55/8/55 39/9/39 38/10/38
f 55/7/55 56/8/56 40/9/40 39/10/39
f 56/7/56 57/8/57 41/9/41 40/10/40
f 57/7/57 58/8/58 42/9/42 41/10/41
f 58/7/58 59/8/59 43/9/43 42/10/42
f 59/7/59 60/8/60 44/9/44 43/10/43
f 60/7/60 61/8/61 45/9/45 44/10/44
f 61/7/61 62/8/62 46/9/46 45/10/45
f 62/7/62 63/8/63 47/9/47 46/10/46
f 63/7/63 64/8/64 48/9/48 47/10/47
f 64/7/64 49/8/49 33/9/33 48/10/48
f 65/11/65 66/12/66 50/8/50 49/7/49
f 66/11/66 67/12/67 51/8/51 50/7/50
f 67/11/67 68/12/68 52/8/52 51/7/51
f 68/11/68 69/12/69 53/8/53 52/7/52
f 69/11/69 70/12/70 54/8/54 53/7/53
f 70/11/70 71/12/71 55/8/55 54/7/54
f 71/11/71 72/12/72 56/8/56 55/7/55
f 72/11/72 73/12/73 57/8/57 56/7/56
f 73/11/73 74/12/74 58/8/58 57/7/57
f 74/11/74 75/12/75 59/8/59 58/7/58
f 75/11/75 76/12/76 60/8/60 59/7/59
f 76/11/76 77/12/77 61/8/61 60/7/60
f 77/11/77 78/12/78 62/8/62 61/7/61
f 78/11/78 79/12/79 63/8/63 62/7/62
f 79/11/79 80/12/80 64/8/64 63/7/63
f 80/11/80 65/12/65 49/8/49 64/7/64
f 81/13/81 82/14/82 66/12/66 65/11/65
f 82/13/82 83/14/83 67/12/67 66/11/66
f 83/13/83 84/14/84 68/12/68 67/11/67
f 84/13/84 85/14/85 69/12/69 68/11/68
f 85/13/85 86/14/86 70/12/70 69/11/69
f 86/13/86 87/14/87 71/12/71 70/11/70
f 87/13/87 88/14/88 72/12/72 71/11/71
f 88/13/88 89/14/89 73/12/73 72/11/72
f 89/13/89 90/14/90 74/12/74 73/11/73
f 90/13/90 91/14/91 75/12/75 74/11/74
f 91/13/91 92/14/92 76/12/76 75/11/75
f 92/13/92 93/14/93 77/12/77 76/11/76
f 93/13/93 94/14/94 78/12/78 77/11/77
f 94/13/94 95/14/95 79/12/79 78/11/78
f 95/13/95 96/14/96 80/12/80 79/11/79
f 96/13/96 81/14/81 65/12/65 80/11/80
f 97/15/97 82/16/82 81/17/81
f 97/15/97 83/17/83 82/16/82
f 97/15/97 84/16/84 83/17/83
f 97/15/97 85/17/85 84/16/84
f 97/15/97 86/16/86 85/17/85
f 97/15/97 87/17/87 86/16/86
f 97/15/97 88/16/88 87/17/87
f 97/15/97 89/17/89 88/16/88
f 97/15/97 90/16/90 89/17/89
f 97/15/97 91/17/91 90/16/90
f 97/15/97 92/16/92 91/17/91
f 97/15/97 93/17/93 92/16/92
f 97/15/97 94/16/94 93/17/93
f 97/15/97 95/17/95 94/16/94
f 97/15/97 96/16/96 95/17/95
f 97/15/97 81/17/81 96/16/96
f 99/18/98 100/19/98 98/20/98
f 100/19/98 101/21/98 98/20/98
f 101/21/98 102/22/98 98/20/98
f 102/22/98 103/23/98 98/20/98
f 103/23/98 104/24/98 98/20/98
f 104/24/98 105/25/98 98/20/98
f 105/25/98 106/26/98 98/20/98
f 106/26/98 107/27/98 98/20/98
f 107/27/98 108/28/98 98/20/98
f 108/28/98 109/29/98 98/20/98
f 109/29/98 110/30/98 98/20/98
f 110/30/98 111/31/98 98/20/98
f 111/31/98 112/32/98 98/20/98
f 112/32/98 113/33/98 98/20/98
f 113/33/98 114/34/98 98/20/98
f 114/34/98 99/18/98 98/20/98
