# Blender 5.1.2
# www.blender.org
mtllib Untitled.mtl
o chassis_chunk1
v 0.255118 64.978216 -40.031377
v 0.255118 65.681443 3.391922
v 0.255118 66.837032 -8.769510
v 0.255118 43.982629 77.409688
v 0.255118 42.092672 82.240584
v -27.206560 44.603060 66.393844
v -20.852281 64.505698 -29.475256
v -10.201003 65.603255 2.464956
v -9.786949 66.285458 -27.701716
v -10.037972 66.652623 -9.053053
v -18.109688 65.893923 -4.120189
v -19.711929 65.447468 -3.820150
v -19.014332 64.802784 1.380627
v -18.959568 65.446759 -29.349193
v -17.174139 65.989632 -28.735651
v -19.248899 66.006600 -19.691575
v -17.508902 66.524237 -19.927637
v -27.967700 44.342864 66.419670
v -29.453484 47.660653 -85.900812
v -35.109654 42.168538 51.899424
v -32.093440 39.822794 68.755729
v -33.736350 41.124012 60.777910
v -10.663837 43.982629 76.945634
v -13.690406 42.114876 80.740823
v -19.735039 43.347945 76.019061
v 21.362516 64.505698 -29.475256
v 10.711238 65.603255 2.464956
v 10.297184 66.285458 -27.701716
v 10.548207 66.652623 -9.053053
v 18.619923 65.893923 -4.120189
v 20.222164 65.447468 -3.820150
v 19.524567 64.802784 1.380627
v 19.469804 65.446759 -29.349193
v 17.684374 65.989632 -28.735651
v 19.759134 66.006600 -19.691575
v 18.019137 66.524237 -19.927637
v 28.477935 44.342864 66.419670
v 29.963720 47.660653 -85.900812
v 35.619889 42.168538 51.899424
v 34.246585 41.124012 60.777910
v 27.019749 42.409364 74.817173
v 27.716795 44.603060 66.393844
v 11.174072 43.982629 76.945634
v 14.200641 42.114876 80.740823
v 19.888582 42.409364 78.322481
v 20.245274 43.347945 76.019061
v -35.109654 44.009715 -63.913809
v -31.850015 44.637982 -83.873257
v -31.882259 25.812114 -70.929543
v -29.923838 30.346868 -81.454640
v -35.109654 33.817688 -68.590138
v 35.619889 44.009715 -63.913809
v 32.360250 44.637982 -83.873257
v 32.392494 25.812114 -70.929543
v 35.619889 33.817688 -68.590138
v -33.614697 22.627553 -38.256341
v -33.589578 29.472697 -70.160293
v 34.099814 29.472697 -70.160293
v 33.922846 21.116729 62.423930
v 34.278002 22.517199 62.423930
v 35.405520 31.556827 61.925349
v 34.124932 22.627553 -38.256341
v 35.619889 33.759499 -66.265930
v -33.412610 21.116729 62.423930
v -33.767767 22.517199 62.423930
v -34.326546 24.775305 62.423930
v -34.895285 31.556827 61.925349
v -35.109654 37.605397 57.900829
v -35.109654 33.759499 -66.265930
v 9.727933 42.114876 81.631805
v -9.217698 42.114876 81.631805
v 11.855213 32.748360 86.234158
v 15.747213 32.748360 85.084200
v -6.541011 32.747257 86.580614
v -11.344977 32.748360 86.234158
v -18.157365 32.748360 84.220068
v -30.298876 35.719692 76.478863
v -33.791389 35.967172 68.033683
v -30.256908 32.748360 78.397520
v 35.619889 37.605397 57.900829
v 7.051246 32.747257 86.580614
v 33.126705 32.531549 73.676427
v 11.855213 35.718590 85.716364
v 34.836781 24.775305 62.423930
v -18.157365 35.719692 83.013574
v -25.946838 35.719692 79.600825
v -32.520880 35.811700 72.905799
v -11.344977 35.718590 85.716364
v 33.847609 37.150831 68.476359
v 18.667600 35.719692 83.013574
v 26.457073 35.719692 79.600825
v 30.809112 35.719692 76.478863
v 33.031115 35.811700 72.905799
v 34.301624 35.967172 68.033683
v -25.946838 32.748360 80.972515
v -32.616470 32.531549 73.676427
v -15.236977 32.748360 85.084200
v 18.667600 32.748360 84.220068
v 26.457073 32.748360 80.972515
v 30.767143 32.748360 78.397520
v 15.747213 21.116729 83.439243
v 18.667600 21.116729 82.663063
v 25.298178 21.116729 79.865706
v 28.989706 21.116729 76.674847
v 31.707181 21.116729 71.765368
v -15.236977 21.116729 83.439243
v -18.157365 21.116729 82.663063
v -24.787943 21.116729 79.865706
v -28.479471 21.116729 76.674847
v -31.196945 21.116729 71.765368
v -19.378347 42.409364 78.322481
v 32.793635 36.932131 72.129029
v 32.603675 39.822794 68.755729
v -26.509514 42.409364 74.817173
v -32.283400 36.932131 72.129029
v -33.337374 37.150831 68.476359
v 38.105278 54.059498 11.995055
v 38.105278 50.781355 11.995055
v 37.016619 54.920638 12.595329
v 37.016658 54.920638 10.675215
v 38.105278 54.059498 10.389231
v 38.105278 50.781355 10.389231
v -37.595043 54.059498 11.995055
v -37.595043 50.781355 11.995055
v -37.595043 54.059498 10.389231
v -37.595043 50.781355 10.389231
v -36.506384 54.920638 12.595329
v -36.506423 54.920638 10.675215
v 10.133444 64.894437 -39.632007
v -9.623209 64.894437 -39.632007
v 32.360250 34.654616 -82.124875
v 32.360250 39.665984 -83.246330
v 30.868600 39.665984 -86.708567
v 8.603723 39.664881 -90.358481
v 16.892565 39.665984 -89.732065
v 24.430778 39.665984 -88.865925
v 30.868600 34.836190 -86.271520
v 28.530179 34.836190 -87.626518
v 24.430778 34.836190 -88.428839
v 21.493382 28.453919 -86.741283
v 25.592783 28.453919 -85.938923
v 28.530179 39.665984 -88.063564
v 30.434073 30.346868 -81.454640
v 0.255118 30.236081 -89.527577
v 10.392302 30.236317 -89.392498
v 16.892565 30.237223 -88.901200
v 22.017909 30.237223 -88.035060
v 26.117310 30.237223 -87.232700
v 28.455730 30.237223 -85.877742
v -31.850015 34.654616 -82.124875
v -31.850015 39.665984 -83.246330
v -28.019944 39.665984 -88.063564
v -30.358364 34.836190 -86.271520
v -28.019944 34.836190 -87.626518
v -23.920543 34.836190 -88.428839
v -16.382329 30.237223 -88.901200
v -25.607075 30.237223 -87.232700
v -27.945495 30.237223 -85.877742
v -30.358364 39.665984 -86.708567
v -8.093488 39.664881 -90.358481
v -16.382329 39.665984 -89.732065
v -23.920543 39.665984 -88.865925
v -9.882067 30.236317 -89.392498
v -21.507674 30.237223 -88.035060
v 0.255118 28.452778 -88.233800
v 10.392302 28.453014 -88.098761
v 16.892565 28.453919 -87.607423
v 27.931204 28.453919 -84.583965
v -9.882067 28.453014 -88.098761
v -16.382329 28.453919 -87.607423
v -20.983147 28.453919 -86.741283
v -25.082548 28.453919 -85.938923
v -27.420969 28.453919 -84.583965
v 10.392302 37.026619 -90.119741
v -9.882067 37.026619 -90.119741
v -20.312991 58.662954 -86.126678
v -23.341292 57.355436 -85.867505
v 20.823226 58.662954 -86.126678
v 23.851527 57.355436 -85.867505
