# Blender 5.2.0 LTS
# www.blender.org
mtllib nissan-r32-window.mtl
o $throttle2
v 0.000000 0.305027 -0.000592
v 0.266867 0.300574 -0.024980
v 0.532377 0.284509 -0.105459
v 0.628143 0.128007 0.158987
v 0.719313 -0.069562 0.471307
v 0.694510 -0.065667 0.526950
v 0.543263 -0.050158 0.614128
v 0.320353 -0.039210 0.666013
v 0.000000 -0.030090 0.695649
v 0.756833 -0.082009 0.391979
v 0.679842 0.105782 0.118432
v 0.580156 0.270548 -0.170506
v 0.536129 0.311583 -0.663814
v 0.536129 0.311583 -0.712814
v 0.536129 0.311583 -0.929649
v 0.000000 0.323585 -1.197775
v 0.250910 0.321457 -1.187631
v 0.552657 0.302464 -0.273125
v 0.495597 0.300752 -1.167307
v 0.601511 0.143655 -1.407418
v 0.668167 -0.003020 -1.652487
v 0.620622 0.001820 -1.716107
v 0.498161 0.008378 -1.794228
v 0.220664 0.019777 -1.856691
v 0.000000 0.025477 -1.867634
v 0.657141 0.125923 -1.142800
v 0.727054 -0.038751 -1.317655
v 0.733258 -0.042598 -0.799590
v 0.731979 -0.042163 -0.845700
v 0.660121 0.135870 -0.735030
v 0.653530 0.135870 -0.785504
v -0.266867 0.300574 -0.024980
v -0.532377 0.284509 -0.105459
v -0.628143 0.128007 0.158987
v -0.719313 -0.069562 0.471307
v -0.694510 -0.065667 0.526950
v -0.543263 -0.050158 0.614128
v -0.320353 -0.039210 0.666013
v -0.756833 -0.082009 0.391979
v -0.679842 0.105782 0.118432
v -0.580156 0.270548 -0.170506
v -0.536129 0.311583 -0.663814
v -0.536129 0.311583 -0.712814
v -0.536129 0.311583 -0.929649
v -0.250910 0.321457 -1.187631
v -0.552657 0.302464 -0.273125
v -0.495597 0.300752 -1.167307
v -0.601511 0.143655 -1.407418
v -0.668167 -0.003020 -1.652487
v -0.620622 0.001820 -1.716107
v -0.498161 0.008378 -1.794228
v -0.220664 0.019777 -1.856691
v -0.657141 0.125923 -1.142800
v -0.727054 -0.038751 -1.317655
v -0.733258 -0.042598 -0.799590
v -0.731979 -0.042163 -0.845700
v -0.660121 0.135870 -0.735030
v -0.653530 0.135870 -0.785504
v 0.853251 -0.383232 1.558327
v 0.354217 -0.257145 1.869845
v 0.294643 -0.388786 1.942044
v 0.467678 -0.388786 1.890886
v 0.665531 -0.388786 1.799939
v 0.772742 -0.388788 1.720513
v 0.826480 -0.388787 1.651105
v 0.498691 -0.249664 1.808419
v 0.679823 -0.249664 1.719384
v 0.821655 -0.315364 1.565423
v -0.853251 -0.383232 1.558327
v -0.354217 -0.257145 1.869845
v -0.294643 -0.388786 1.942044
v -0.467678 -0.388786 1.890886
v -0.665531 -0.388786 1.799939
v -0.772742 -0.388788 1.720513
v -0.826480 -0.388787 1.651105
v -0.498691 -0.249664 1.808419
v -0.679823 -0.249664 1.719384
v -0.821655 -0.315364 1.565423
vn 0.4306 0.8284 0.3583
vn 0.6680 0.7014 0.2487
vn 0.3292 0.8590 0.3921
vn -0.0000 0.8998 0.4364
vn 0.1032 0.8957 0.4325
vn 0.1185 0.8975 0.4248
vn -0.0000 0.9011 0.4337
vn 0.2176 0.8835 0.4149
vn 0.2045 0.8887 0.4102
vn 0.8679 0.4967 -0.0030
vn 0.9157 0.4018 -0.0034
vn 0.8992 0.4375 -0.0059
vn 0.9179 0.3968 -0.0067
vn 0.8330 0.5532 -0.0040
vn 0.8315 0.5555 -0.0000
vn 0.9171 0.3986 -0.0054
vn 0.8877 0.4603 -0.0124
vn 0.8453 0.5342 -0.0062
vn 0.8112 0.5843 -0.0238
vn 0.7867 0.6171 -0.0189
vn 0.9283 0.3717 -0.0061
vn 0.9249 0.3800 -0.0076
vn 0.4336 0.8287 -0.3539
vn 0.5211 0.7873 -0.3295
vn 0.3763 0.8449 -0.3802
vn 0.1976 0.8887 -0.4137
vn 0.1647 0.8972 -0.4097
vn 0.0811 0.9063 -0.4149
vn 0.0715 0.9090 -0.4106
vn -0.0000 0.9115 -0.4114
vn -0.0000 0.9136 -0.4066
vn -0.3292 0.8590 0.3921
vn -0.6680 0.7014 0.2487
vn -0.4306 0.8284 0.3583
vn -0.1185 0.8975 0.4248
vn -0.1032 0.8957 0.4325
vn -0.2045 0.8887 0.4102
vn -0.2176 0.8835 0.4149
vn -0.8992 0.4375 -0.0059
vn -0.9157 0.4018 -0.0034
vn -0.8679 0.4967 -0.0030
vn -0.9179 0.3968 -0.0067
vn -0.8315 0.5555 -0.0000
vn -0.8330 0.5532 -0.0040
vn -0.8453 0.5342 -0.0062
vn -0.8877 0.4603 -0.0124
vn -0.9171 0.3986 -0.0054
vn -0.7867 0.6171 -0.0189
vn -0.8112 0.5843 -0.0238
vn -0.9249 0.3800 -0.0076
vn -0.9283 0.3717 -0.0061
vn -0.3763 0.8449 -0.3802
vn -0.5211 0.7873 -0.3295
vn -0.4336 0.8287 -0.3539
vn -0.1647 0.8972 -0.4097
vn -0.1976 0.8887 -0.4137
vn -0.0715 0.9090 -0.4106
vn -0.0811 0.9063 -0.4149
vn 0.7908 0.4712 0.3907
vn 0.6585 0.4784 0.5809
vn 0.7010 0.5605 0.4409
vn 0.8818 0.3815 0.2773
vn 0.3317 0.4015 0.8537
vn 0.3691 0.4188 0.8297
vn 0.2984 0.3960 0.8684
vn 0.2635 0.3695 0.8911
vn 0.4559 0.4037 0.7932
vn 0.5558 0.4436 0.7030
vn -0.7010 0.5605 0.4409
vn -0.6585 0.4784 0.5809
vn -0.7908 0.4712 0.3907
vn -0.8818 0.3815 0.2773
vn -0.2984 0.3960 0.8684
vn -0.3691 0.4188 0.8297
vn -0.3317 0.4015 0.8537
vn -0.2635 0.3695 0.8911
vn -0.4559 0.4037 0.7932
vn -0.5558 0.4436 0.7030
vt 0.927730 0.010540
vt 0.928020 0.010500
vt 0.926940 0.012830
vt 0.919510 0.010960
vt 0.923300 0.010860
vt 0.922670 0.014870
vt 0.919510 0.014930
vt 0.925940 0.010730
vt 0.925810 0.014680
vt 0.925200 0.013160
vt 0.925910 0.011060
vt 0.929430 0.013040
vt 0.931490 0.011100
vt 0.926900 0.015240
vt 0.924420 0.015240
vt 0.914510 0.012810
vt 0.924600 0.013160
vt 0.917930 0.014750
vt 0.923760 0.015240
vt 0.919140 0.015130
vt 0.911270 0.010580
vt 0.925370 0.011050
vt 0.921660 0.013250
vt 0.924550 0.011520
vt 0.925310 0.011580
vt 0.926230 0.011650
vt 0.918820 0.015110
vt 0.926970 0.011790
vt 0.919060 0.015360
vt 0.927100 0.011860
vt 0.919180 0.015380
vt 0.896860 0.020230
vt 0.893320 0.014940
vt 0.897200 0.014940
vt 0.899120 0.015320
vt 0.892210 0.004040
vt 0.893960 0.012250
vt 0.885750 0.011810
vt 0.882390 0.004040
vt 0.903440 0.004040
vt 0.904250 0.012250
vt 0.886610 0.025360
vt 0.885590 0.014940
s 1
usemtl mat1.001
f 6/1/1 5/2/2 4/3/3
f 9/4/4 8/5/5 2/6/6
f 1/7/7 9/4/4 2/6/6
f 7/8/8 3/9/9 2/6/6
f 8/5/5 7/8/8 2/6/6
f 31/10/10 29/11/11 26/12/12
f 29/11/11 27/13/13 26/12/12
f 15/14/14 14/15/15 31/10/10
f 26/12/12 15/14/14 31/10/10
f 11/16/16 30/17/17 12/18/18
f 13/19/19 18/20/20 12/18/18
f 30/17/17 13/19/19 12/18/18
f 11/16/16 10/21/21 28/22/22
f 30/17/17 11/16/16 28/22/22
f 7/8/8 6/1/1 4/3/3
f 3/9/9 7/8/8 4/3/3
f 20/23/23 21/24/24 22/25/25
f 22/25/25 23/26/26 19/27/27
f 20/23/23 22/25/25 19/27/27
f 24/28/28 17/29/29 19/27/27
f 23/26/26 24/28/28 19/27/27
f 17/29/29 24/28/28 25/30/30
f 16/31/31 17/29/29 25/30/30
f 34/3/32 35/2/33 36/1/34
f 32/6/35 38/5/36 9/4/4
f 32/6/35 9/4/4 1/7/7
f 32/6/35 33/9/37 37/8/38
f 32/6/35 37/8/38 38/5/36
f 53/12/39 56/11/40 58/10/41
f 53/12/39 54/13/42 56/11/40
f 58/10/41 43/15/43 44/14/44
f 58/10/41 44/14/44 53/12/39
f 41/18/45 57/17/46 40/16/47
f 41/18/45 46/20/48 42/19/49
f 41/18/45 42/19/49 57/17/46
f 55/22/50 39/21/51 40/16/47
f 55/22/50 40/16/47 57/17/46
f 34/3/32 36/1/34 37/8/38
f 34/3/32 37/8/38 33/9/37
f 50/25/52 49/24/53 48/23/54
f 47/27/55 51/26/56 50/25/52
f 47/27/55 50/25/52 48/23/54
f 47/27/55 45/29/57 52/28/58
f 47/27/55 52/28/58 51/26/56
f 25/30/30 52/28/58 45/29/57
f 25/30/30 45/29/57 16/31/31
usemtl mat1.003
f 68/32/59 64/33/60 65/34/61
f 65/34/61 59/35/62 68/32/59
f 62/36/63 66/37/64 60/38/65
f 61/39/66 62/36/63 60/38/65
f 66/37/64 62/36/63 63/40/67
f 67/41/68 66/37/64 63/40/67
f 64/33/60 68/32/59 67/42/68
f 63/43/67 64/33/60 67/42/68
f 75/34/69 74/33/70 78/32/71
f 78/32/71 69/35/72 75/34/69
f 70/38/73 76/37/74 72/36/75
f 70/38/73 72/36/75 71/39/76
f 73/40/77 72/36/75 76/37/74
f 73/40/77 76/37/74 77/41/78
f 77/42/78 78/32/71 74/33/70
f 77/42/78 74/33/70 73/43/77
