# Blender 5.2.0 LTS
# www.blender.org
mtllib nissan-r32-wheel5.mtl
o $wheel1
v 0.101126 0.063071 0.317080
v 0.101126 -0.063071 0.317080
v 0.101126 -0.179612 0.268807
v 0.101126 -0.268808 0.179611
v 0.101126 -0.317080 0.063071
v 0.101126 -0.317080 -0.063073
v 0.101126 -0.268808 -0.179613
v 0.101126 -0.179612 -0.268809
v 0.101126 -0.063071 -0.317081
v 0.101126 0.063071 -0.317082
v 0.101126 0.179612 -0.268809
v 0.101126 0.268808 -0.179613
v 0.101126 0.317080 -0.063072
v 0.101126 0.317080 0.063071
v 0.101126 0.268808 0.179611
v 0.101126 0.179612 0.268807
v 0.140518 0.066862 0.336135
v 0.140518 -0.066862 0.336135
v 0.140518 -0.190406 0.284961
v 0.140518 -0.284962 0.190405
v 0.140518 -0.336136 0.066860
v 0.140518 -0.336136 -0.066862
v 0.140518 -0.284962 -0.190406
v 0.140518 -0.190406 -0.284963
v 0.140518 -0.066862 -0.336137
v 0.140518 0.066862 -0.336137
v 0.140518 0.190406 -0.284963
v 0.140518 0.284961 -0.190406
v 0.140518 0.336136 -0.066862
v 0.140518 0.336136 0.066860
v 0.140518 0.284961 0.190405
v 0.140518 0.190406 0.284961
v 0.140518 0.087598 0.440383
v 0.140518 -0.087598 0.440383
v 0.140518 -0.249457 0.373338
v 0.140518 -0.373339 0.249456
v 0.140518 -0.440383 0.087597
v 0.140518 -0.440383 -0.087599
v 0.140518 -0.373339 -0.249458
v 0.140518 -0.249457 -0.373340
v 0.140518 -0.087598 -0.440384
v 0.140518 0.087598 -0.440384
v 0.140518 0.249457 -0.373340
v 0.140518 0.373340 -0.249458
v 0.140518 0.440383 -0.087599
v 0.140518 0.440383 0.087597
v 0.140518 0.373340 0.249457
v 0.140518 0.249457 0.373339
v 0.112118 0.092788 0.466477
v 0.112118 -0.092788 0.466477
v 0.112118 -0.264238 0.395459
v 0.112118 -0.395460 0.264237
v 0.112118 -0.466477 0.092787
v 0.112118 -0.466477 -0.092789
v 0.112118 -0.395460 -0.264239
v 0.112118 -0.264238 -0.395461
v 0.112118 -0.092788 -0.466478
v 0.112118 0.092788 -0.466478
v 0.112118 0.264238 -0.395461
v 0.112118 0.395459 -0.264239
v 0.112118 0.466478 -0.092789
v 0.112118 0.466478 0.092787
v 0.112118 0.395459 0.264238
v 0.112118 0.264238 0.395460
v -0.276934 0.092788 0.466477
v -0.276934 -0.092788 0.466477
v -0.276934 -0.264238 0.395459
v -0.276934 -0.395460 0.264237
v -0.276934 -0.466477 0.092787
v -0.276934 -0.466477 -0.092789
v -0.276934 -0.395460 -0.264239
v -0.276934 -0.264238 -0.395461
v -0.276934 -0.092788 -0.466478
v -0.276934 0.092788 -0.466478
v -0.276934 0.264238 -0.395461
v -0.276934 0.395459 -0.264239
v -0.276934 0.466478 -0.092789
v -0.276934 0.466478 0.092787
v -0.276934 0.395459 0.264238
v -0.276934 0.264238 0.395460
v -0.305682 0.087598 0.440383
v -0.305682 -0.087598 0.440383
v -0.305682 -0.249457 0.373338
v -0.305682 -0.373339 0.249456
v -0.305682 -0.440383 0.087597
v -0.305682 -0.440383 -0.087599
v -0.305682 -0.373339 -0.249458
v -0.305682 -0.249457 -0.373340
v -0.305682 -0.087598 -0.440384
v -0.305682 0.087598 -0.440384
v -0.305682 0.249457 -0.373340
v -0.305682 0.373340 -0.249458
v -0.305682 0.440383 -0.087599
v -0.305682 0.440383 0.087597
v -0.305682 0.373340 0.249457
v -0.305682 0.249457 0.373339
v -0.305682 -0.000000 -0.000001
v 0.101126 -0.000000 -0.000001
v 0.101126 0.063071 0.317080
v 0.101126 -0.063071 0.317080
v 0.101126 -0.179612 0.268807
v 0.101126 -0.268808 0.179611
v 0.101126 -0.317080 0.063071
v 0.101126 -0.317080 -0.063073
v 0.101126 -0.268808 -0.179613
v 0.101126 -0.179612 -0.268809
v 0.101126 -0.063071 -0.317081
v 0.101126 0.063071 -0.317082
v 0.101126 0.179612 -0.268809
v 0.101126 0.268808 -0.179613
v 0.101126 0.317080 -0.063072
v 0.101126 0.317080 0.063071
v 0.101126 0.268808 0.179611
v 0.101126 0.179612 0.268807
vn 0.8788 -0.0931 -0.4680
vn 0.8788 0.0931 -0.4680
vn 0.4423 0.1750 -0.8796
vn 0.4423 -0.1750 -0.8796
vn 0.8788 0.2651 -0.3968
vn 0.4423 0.4983 -0.7457
vn 0.8788 0.3968 -0.2651
vn 0.4423 0.7457 -0.4983
vn 0.8788 0.4680 -0.0931
vn 0.4423 0.8796 -0.1750
vn 0.8788 0.4680 0.0931
vn 0.4423 0.8796 0.1750
vn 0.8788 0.3968 0.2651
vn 0.4423 0.7457 0.4983
vn 0.8788 0.2651 0.3968
vn 0.4423 0.4983 0.7457
vn 0.8788 0.0931 0.4680
vn 0.4423 0.1750 0.8796
vn 0.8788 -0.0931 0.4680
vn 0.4423 -0.1750 0.8796
vn 0.8788 -0.2651 0.3968
vn 0.4423 -0.4983 0.7457
vn 0.8788 -0.3968 0.2651
vn 0.4423 -0.7457 0.4983
vn 0.8788 -0.4680 0.0931
vn 0.4423 -0.8796 0.1750
vn 0.8788 -0.4680 -0.0931
vn 0.4423 -0.8796 -0.1750
vn 0.8788 -0.3968 -0.2651
vn 0.4423 -0.7457 -0.4983
vn 0.8788 -0.2651 -0.3968
vn 0.4423 -0.4983 -0.7457
vn 0.8990 0.0854 0.4294
vn 0.8990 -0.0854 0.4294
vn 0.8990 -0.2433 0.3641
vn 0.8990 -0.3641 0.2433
vn 0.8990 -0.4294 0.0854
vn 0.8990 -0.4294 -0.0854
vn 0.8990 -0.3641 -0.2433
vn 0.8990 -0.2433 -0.3641
vn 0.8990 -0.0854 -0.4294
vn 0.8990 0.0854 -0.4294
vn 0.8990 0.2433 -0.3641
vn 0.8990 0.3641 -0.2433
vn 0.8990 0.4294 -0.0854
vn 0.8990 0.4294 0.0854
vn 0.8990 0.3641 0.2433
vn 0.8990 0.2433 0.3641
vn 0.3528 0.1825 0.9177
vn 0.3528 -0.1825 0.9177
vn 0.3528 -0.5198 0.7780
vn 0.3528 -0.7780 0.5198
vn 0.3528 -0.9177 0.1825
vn 0.3528 -0.9177 -0.1825
vn 0.3528 -0.7780 -0.5198
vn 0.3528 -0.5198 -0.7780
vn 0.3528 -0.1825 -0.9177
vn 0.3528 0.1825 -0.9177
vn 0.3528 0.5198 -0.7780
vn 0.3528 0.7780 -0.5198
vn 0.3528 0.9177 -0.1825
vn 0.3528 0.9177 0.1825
vn 0.3528 0.7780 0.5198
vn 0.3528 0.5198 0.7780
vn -0.3502 0.1827 0.9187
vn -0.3502 -0.1827 0.9187
vn -0.3502 -0.5204 0.7788
vn -0.3502 -0.7788 0.5204
vn -0.3502 -0.9187 0.1827
vn -0.3502 -0.9187 -0.1827
vn -0.3502 -0.7788 -0.5204
vn -0.3502 -0.5204 -0.7788
vn -0.3502 -0.1827 -0.9187
vn -0.3502 0.1827 -0.9187
vn -0.3502 0.5204 -0.7788
vn -0.3502 0.7788 -0.5204
vn -0.3502 0.9187 -0.1827
vn -0.3502 0.9187 0.1827
vn -0.3502 0.7788 0.5204
vn -0.3502 0.5204 0.7788
vn -0.8976 0.0860 0.4323
vn -0.8976 -0.0860 0.4323
vn -0.8976 -0.2449 0.3665
vn -0.8976 -0.3665 0.2449
vn -0.8976 -0.4323 0.0860
vn -0.8976 -0.4323 -0.0860
vn -0.8976 -0.3665 -0.2449
vn -0.8976 -0.2449 -0.3665
vn -0.8976 -0.0860 -0.4323
vn -0.8976 0.0860 -0.4323
vn -0.8976 0.2449 -0.3665
vn -0.8976 0.3665 -0.2449
vn -0.8976 0.4323 -0.0860
vn -0.8976 0.4323 0.0860
vn -0.8976 0.3665 0.2449
vn -0.8976 0.2449 0.3665
vn -1.0000 -0.0000 -0.0000
vn 1.0000 -0.0000 -0.0000
vt 0.380622 0.424038
vt 0.383307 0.480191
vt 0.364523 0.481913
vt 0.361991 0.428944
vt 0.383307 0.540969
vt 0.364523 0.539247
vt 0.380622 0.597121
vt 0.361991 0.592215
vt 0.306583 0.424038
vt 0.311543 0.467016
vt 0.292911 0.471921
vt 0.288233 0.431381
vt 0.314228 0.523167
vt 0.295444 0.524891
vt 0.314228 0.583946
vt 0.295444 0.582223
vt 0.311543 0.640098
vt 0.292912 0.635192
vt 0.306583 0.683075
vt 0.288233 0.675733
vt 0.319595 0.640156
vt 0.315622 0.584079
vt 0.334362 0.581926
vt 0.338109 0.634823
vt 0.314228 0.523317
vt 0.333046 0.524608
vt 0.315623 0.467118
vt 0.334362 0.471595
vt 0.319595 0.424038
vt 0.338109 0.430958
vt 0.343476 0.640155
vt 0.339504 0.584080
vt 0.358243 0.581926
vt 0.361991 0.634823
vt 0.338109 0.523316
vt 0.356928 0.524608
vt 0.339504 0.467118
vt 0.358243 0.471595
vt 0.343476 0.424038
vt 0.361991 0.430957
vt 0.793884 0.086779
vt 0.824356 0.160346
vt 0.776975 0.169771
vt 0.753716 0.113618
vt 0.824356 0.239974
vt 0.776974 0.230549
vt 0.793883 0.313541
vt 0.753715 0.286701
vt 0.737578 0.369846
vt 0.710738 0.329678
vt 0.664011 0.400319
vt 0.654586 0.352937
vt 0.584383 0.400319
vt 0.593808 0.352937
vt 0.510816 0.369846
vt 0.537655 0.329678
vt 0.454510 0.313540
vt 0.494678 0.286701
vt 0.424038 0.239973
vt 0.471419 0.230549
vt 0.424038 0.160345
vt 0.471420 0.169770
vt 0.454510 0.086778
vt 0.494679 0.113618
vt 0.510816 0.030473
vt 0.537656 0.070641
vt 0.584383 0.000001
vt 0.593808 0.047382
vt 0.664012 -0.000000
vt 0.654587 0.047383
vt 0.737579 0.030473
vt 0.710738 0.070641
vt 0.438020 0.700159
vt 0.441745 0.778085
vt 0.427555 0.780445
vt 0.424038 0.706877
vt 0.441745 0.862432
vt 0.427555 0.860073
vt 0.438020 0.940358
vt 0.424038 0.933640
vt 0.803938 0.320259
vt 0.744296 0.379901
vt 0.631374 0.700159
vt 0.635099 0.778085
vt 0.620909 0.780445
vt 0.617392 0.706877
vt 0.635099 0.862432
vt 0.620909 0.860073
vt 0.631374 0.940358
vt 0.617392 0.933640
vt 0.504098 0.379900
vt 0.444456 0.320258
vt 0.796764 0.700159
vt 0.793039 0.622234
vt 0.807230 0.619874
vt 0.810747 0.693441
vt 0.793039 0.537887
vt 0.807230 0.540246
vt 0.796764 0.459962
vt 0.810746 0.466679
vt 0.444456 0.080061
vt 0.504098 0.020418
vt 0.603410 0.700160
vt 0.599685 0.622234
vt 0.613875 0.619874
vt 0.617392 0.693441
vt 0.599685 0.537887
vt 0.613875 0.540246
vt 0.603410 0.459961
vt 0.617392 0.466679
vt 0.744297 0.020419
vt 0.803939 0.080061
vt 0.613667 0.700159
vt 0.617392 0.778085
vt 0.617392 0.862432
vt 0.613667 0.940358
vt 0.606784 1.000000
vt 0.431137 1.000000
vt 0.807021 0.700159
vt 0.810746 0.778085
vt 0.810746 0.862432
vt 0.807021 0.940358
vt 0.800138 1.000000
vt 0.624491 1.000000
vt 0.621117 0.700159
vt 0.617392 0.622234
vt 0.617392 0.537887
vt 0.621117 0.459962
vt 0.628001 0.400319
vt 0.803647 0.400319
vt 0.427763 0.700160
vt 0.424038 0.622234
vt 0.424038 0.537887
vt 0.427763 0.459961
vt 0.434646 0.400319
vt 0.610293 0.400319
vt 0.098638 0.042332
vt 0.042332 0.098638
vt 0.032278 0.091920
vt 0.091919 0.032278
vt 0.011860 0.172205
vt 0.000000 0.169846
vt 0.011860 0.251833
vt 0.000000 0.254192
vt 0.042332 0.325400
vt 0.032278 0.332118
vt 0.098638 0.381706
vt 0.091920 0.391760
vt 0.172205 0.412178
vt 0.169846 0.424038
vt 0.251833 0.412178
vt 0.254192 0.424038
vt 0.325400 0.381706
vt 0.332118 0.391760
vt 0.381706 0.325400
vt 0.391760 0.332118
vt 0.412178 0.251833
vt 0.424038 0.254192
vt 0.412178 0.172205
vt 0.424038 0.169846
vt 0.381706 0.098638
vt 0.391760 0.091920
vt 0.325400 0.042333
vt 0.332118 0.032278
vt 0.251833 0.011860
vt 0.254191 0.000000
vt 0.172204 0.011860
vt 0.169845 0.000000
vt 0.212019 0.212019
vt 0.115450 0.424038
vt 0.172783 0.424038
vt 0.144116 0.568155
vt 0.225752 0.445979
vt 0.266293 0.486519
vt 0.288233 0.539488
vt 0.288233 0.596822
vt 0.266293 0.649791
vt 0.225752 0.690331
vt 0.172783 0.712271
vt 0.115450 0.712272
vt 0.062481 0.690331
vt 0.021940 0.649791
vt 0.000000 0.596821
vt 0.000000 0.539488
vt 0.021940 0.486519
vt 0.062481 0.445979
s 1
usemtl mat1
f 17/1/1 18/2/2 2/3/3 1/4/4
f 18/2/2 19/5/5 3/6/6 2/3/3
f 19/5/5 20/7/7 4/8/8 3/6/6
f 20/9/7 21/10/9 5/11/10 4/12/8
f 21/10/9 22/13/11 6/14/12 5/11/10
f 22/13/11 23/15/13 7/16/14 6/14/12
f 23/15/13 24/17/15 8/18/16 7/16/14
f 24/17/15 25/19/17 9/20/18 8/18/16
f 25/21/17 26/22/19 10/23/20 9/24/18
f 26/22/19 27/25/21 11/26/22 10/23/20
f 27/25/21 28/27/23 12/28/24 11/26/22
f 28/27/23 29/29/25 13/30/26 12/28/24
f 29/31/25 30/32/27 14/33/28 13/34/26
f 30/32/27 31/35/29 15/36/30 14/33/28
f 31/35/29 32/37/31 16/38/32 15/36/30
f 32/37/31 17/39/1 1/40/4 16/38/32
f 33/41/33 34/42/34 18/43/2 17/44/1
f 34/42/34 35/45/35 19/46/5 18/43/2
f 35/45/35 36/47/36 20/48/7 19/46/5
f 36/47/36 37/49/37 21/50/9 20/48/7
f 37/49/37 38/51/38 22/52/11 21/50/9
f 38/51/38 39/53/39 23/54/13 22/52/11
f 39/53/39 40/55/40 24/56/15 23/54/13
f 40/55/40 41/57/41 25/58/17 24/56/15
f 41/57/41 42/59/42 26/60/19 25/58/17
f 42/59/42 43/61/43 27/62/21 26/60/19
f 43/61/43 44/63/44 28/64/23 27/62/21
f 44/63/44 45/65/45 29/66/25 28/64/23
f 45/65/45 46/67/46 30/68/27 29/66/25
f 46/67/46 47/69/47 31/70/29 30/68/27
f 47/69/47 48/71/48 32/72/31 31/70/29
f 48/71/48 33/41/33 17/44/1 32/72/31
f 49/73/49 50/74/50 34/75/34 33/76/33
f 50/74/50 51/77/51 35/78/35 34/75/34
f 51/77/51 52/79/52 36/80/36 35/78/35
f 52/81/52 53/82/53 37/49/37 36/47/36
f 53/83/53 54/84/54 38/85/38 37/86/37
f 54/84/54 55/87/55 39/88/39 38/85/38
f 55/87/55 56/89/56 40/90/40 39/88/39
f 56/91/56 57/92/57 41/57/41 40/55/40
f 57/93/57 58/94/58 42/95/42 41/96/41
f 58/94/58 59/97/59 43/98/43 42/95/42
f 59/97/59 60/99/60 44/100/44 43/98/43
f 60/101/60 61/102/61 45/65/45 44/63/44
f 61/103/61 62/104/62 46/105/46 45/106/45
f 62/104/62 63/107/63 47/108/47 46/105/46
f 63/107/63 64/109/64 48/110/48 47/108/47
f 64/111/64 49/112/49 33/41/33 48/71/48
f 65/113/65 66/114/66 50/74/50 49/73/49
f 66/114/66 67/115/67 51/77/51 50/74/50
f 67/115/67 68/116/68 52/79/52 51/77/51
f 68/116/68 69/117/69 53/118/53 52/79/52
f 69/119/69 70/120/70 54/84/54 53/83/53
f 70/120/70 71/121/71 55/87/55 54/84/54
f 71/121/71 72/122/72 56/89/56 55/87/55
f 72/122/72 73/123/73 57/124/57 56/89/56
f 73/125/73 74/126/74 58/94/58 57/93/57
f 74/126/74 75/127/75 59/97/59 58/94/58
f 75/127/75 76/128/76 60/99/60 59/97/59
f 76/128/76 77/129/77 61/130/61 60/99/60
f 77/131/77 78/132/78 62/104/62 61/103/61
f 78/132/78 79/133/79 63/107/63 62/104/62
f 79/133/79 80/134/80 64/109/64 63/107/63
f 80/134/80 65/135/65 49/136/49 64/109/64
f 81/137/81 82/138/82 66/139/66 65/140/65
f 82/138/82 83/141/83 67/142/67 66/139/66
f 83/141/83 84/143/84 68/144/68 67/142/67
f 84/143/84 85/145/85 69/146/69 68/144/68
f 85/145/85 86/147/86 70/148/70 69/146/69
f 86/147/86 87/149/87 71/150/71 70/148/70
f 87/149/87 88/151/88 72/152/72 71/150/71
f 88/151/88 89/153/89 73/154/73 72/152/72
f 89/153/89 90/155/90 74/156/74 73/154/73
f 90/155/90 91/157/91 75/158/75 74/156/74
f 91/157/91 92/159/92 76/160/76 75/158/75
f 92/159/92 93/161/93 77/162/77 76/160/76
f 93/161/93 94/163/94 78/164/78 77/162/77
f 94/163/94 95/165/95 79/166/79 78/164/78
f 95/165/95 96/167/96 80/168/80 79/166/79
f 96/167/96 81/137/81 65/140/65 80/168/80
f 97/169/97 82/138/82 81/137/81
f 97/169/97 83/141/83 82/138/82
f 97/169/97 84/143/84 83/141/83
f 97/169/97 85/145/85 84/143/84
f 97/169/97 86/147/86 85/145/85
f 97/169/97 87/149/87 86/147/86
f 97/169/97 88/151/88 87/149/87
f 97/169/97 89/153/89 88/151/88
f 97/169/97 90/155/90 89/153/89
f 97/169/97 91/157/91 90/155/90
f 97/169/97 92/159/92 91/157/91
f 97/169/97 93/161/93 92/159/92
f 97/169/97 94/163/94 93/161/93
f 97/169/97 95/165/95 94/163/94
f 97/169/97 96/167/96 95/165/95
f 97/169/97 81/137/81 96/167/96
f 99/170/98 100/171/98 98/172/98
f 100/171/98 101/173/98 98/172/98
f 101/173/98 102/174/98 98/172/98
f 102/174/98 103/175/98 98/172/98
f 103/175/98 104/176/98 98/172/98
f 104/176/98 105/177/98 98/172/98
f 105/177/98 106/178/98 98/172/98
f 106/178/98 107/179/98 98/172/98
f 107/179/98 108/180/98 98/172/98
f 108/180/98 109/181/98 98/172/98
f 109/181/98 110/182/98 98/172/98
f 110/182/98 111/183/98 98/172/98
f 111/183/98 112/184/98 98/172/98
f 112/184/98 113/185/98 98/172/98
f 113/185/98 114/186/98 98/172/98
f 114/186/98 99/170/98 98/172/98
