# Blender 5.2.0 LTS
# www.blender.org
mtllib nissan-r32-collisionbox.mtl
o chassis_chunk1
v -38.456768 24.264633 0.000002
v 4.966527 24.967861 -0.000000
v -7.194905 26.123447 0.000000
v 78.984299 3.269053 -0.000004
v 83.815193 1.379096 -0.000004
v 67.968452 3.889486 27.461674
v -27.900650 23.792116 21.107401
v 4.039561 24.889675 10.456121
v -26.127111 25.571878 10.042068
v -7.478447 25.939045 10.293091
v -2.545583 25.180340 18.364805
v -2.245544 24.733891 19.967047
v 2.955233 24.089207 19.269449
v -27.774590 24.733179 19.214687
v -27.161047 25.276049 17.429258
v -18.116970 25.293016 19.504017
v -18.353033 25.810656 17.764019
v 67.994278 3.629289 28.222813
v -84.326202 6.947065 29.708605
v 53.474033 1.454960 35.364769
v 70.330338 -0.890780 32.348557
v 62.352516 0.410436 33.991467
v 78.520241 3.269053 10.918952
v 82.315430 1.401301 13.945520
v 77.593666 2.634371 19.990152
v -27.900652 23.792116 -21.107397
v 4.039560 24.889675 -10.456120
v -26.127111 25.571878 -10.042065
v -7.478448 25.939045 -10.293089
v -2.545585 25.180340 -18.364805
v -2.245546 24.733891 -19.967047
v 2.955231 24.089207 -19.269449
v -27.774590 24.733179 -19.214685
v -27.161047 25.276049 -17.429255
v -18.116970 25.293016 -19.504017
v -18.353033 25.810656 -17.764019
v 67.994278 3.629289 -28.222822
v -84.326202 6.947065 -29.708599
v 53.474033 1.454960 -35.364773
v 62.352516 0.410436 -33.991470
v 76.391777 1.695787 -26.764635
v 67.968452 3.889486 -27.461681
v 78.520241 3.269053 -10.918958
v 82.315430 1.401301 -13.945526
v 79.897087 1.695788 -19.633469
v 77.593666 2.634371 -19.990160
v -62.339203 3.296130 35.364777
v -82.298653 3.924394 32.105137
v -69.354935 -14.901471 32.137383
v -79.880035 -10.366718 30.178959
v -67.015533 -6.895898 35.364777
v -62.339203 3.296130 -35.364765
v -82.298653 3.924394 -32.105125
v -69.354935 -14.901471 -32.137371
v -67.015533 -6.895898 -35.364765
v -36.681728 -18.086029 33.869816
v -68.585686 -11.240890 33.844700
v -68.585686 -11.240890 -33.844692
v 63.998539 -19.596846 -33.667732
v 63.998539 -18.196377 -34.022888
v 63.499958 -9.156749 -35.150406
v -36.681732 -18.086029 -33.869812
v -64.691322 -6.954087 -35.364765
v 63.998543 -19.596846 33.667725
v 63.998543 -18.196377 34.022884
v 63.998543 -15.938272 34.581661
v 63.499962 -9.156749 35.150402
v 59.475437 -3.108180 35.364769
v -64.691322 -6.954087 35.364777
v 83.206413 1.401301 -9.472818
v 83.206413 1.401301 9.472813
v 87.808769 -7.965215 -11.600099
v 86.658806 -7.965215 -15.492099
v 88.155220 -7.966317 6.796125
v 87.808769 -7.965215 11.600092
v 85.794678 -7.965215 18.412479
v 78.053474 -4.993883 30.553989
v 69.608292 -4.746405 34.046505
v 79.972130 -7.965215 30.512022
v 59.475437 -3.108180 -35.364773
v 88.155220 -7.966317 -6.796132
v 75.251038 -8.182028 -32.871590
v 87.290970 -4.994985 -11.600099
v 63.998539 -15.938272 -34.581665
v 84.588181 -4.993883 18.412479
v 81.175430 -4.993883 26.201952
v 74.480408 -4.901876 32.775997
v 87.290970 -4.994985 11.600092
v 70.050964 -3.562747 -33.592495
v 84.588181 -4.993883 -18.412487
v 81.175430 -4.993883 -26.201960
v 78.053474 -4.993883 -30.553999
v 74.480408 -4.901876 -32.776001
v 69.608292 -4.746405 -34.046509
v 82.547119 -7.965215 26.201952
v 75.251038 -8.182028 32.871586
v 86.658806 -7.965215 15.492091
v 85.794678 -7.965215 -18.412487
v 82.547119 -7.965215 -26.201960
v 79.972130 -7.965215 -30.512030
v 85.013847 -19.596846 -15.492099
v 84.237671 -19.596846 -18.412487
v 81.440315 -19.596846 -25.043064
v 78.249458 -19.596846 -28.734592
v 73.339973 -19.596846 -31.452068
v 85.013847 -19.596846 15.492091
v 84.237671 -19.596846 18.412479
v 81.440315 -19.596846 25.043056
v 78.249458 -19.596846 28.734585
v 73.339973 -19.596846 31.452059
v 79.897087 1.695788 19.633461
v 73.703636 -3.781443 -32.538521
v 70.330338 -0.890780 -32.348560
v 76.391777 1.695787 26.764627
v 73.703636 -3.781443 32.538517
v 70.050964 -3.562747 33.592491
v 13.569659 13.345918 -37.850159
v 13.569659 10.067777 -37.850159
v 14.169933 14.207059 -36.761501
v 12.249819 14.207059 -36.761539
v 11.963835 13.345918 -37.850159
v 11.963835 10.067777 -37.850159
v 13.569663 13.345918 37.850163
v 13.569663 10.067777 37.850163
v 11.963839 13.345918 37.850163
v 11.963839 10.067777 37.850163
v 14.169937 14.207059 36.761505
v 12.249823 14.207059 36.761543
v -38.057404 24.180855 -9.878324
v -38.057400 24.180855 9.878329
v -80.550270 -6.058970 -32.105125
v -81.671722 -1.047602 -32.105125
v -85.133957 -1.047602 -30.613480
v -88.783875 -1.048705 -8.348600
v -88.157455 -1.047603 -16.637444
v -87.291321 -1.047603 -24.175657
v -84.696915 -5.877398 -30.613480
v -86.051910 -5.877398 -28.275057
v -86.854233 -5.877398 -24.175657
v -85.166672 -12.259669 -21.238260
v -84.364319 -12.259669 -25.337662
v -86.488953 -1.047603 -28.275057
v -79.880035 -10.366718 -30.178951
v -87.952972 -10.477508 0.000004
v -87.817886 -10.477271 -10.137179
v -87.326591 -10.476365 -16.637444
v -86.460449 -10.476365 -21.762787
v -85.658089 -10.476365 -25.862188
v -84.303131 -10.476365 -28.200609
v -80.550270 -6.058970 32.105137
v -81.671722 -1.047602 32.105137
v -86.488953 -1.047603 28.275064
v -84.696915 -5.877398 30.613485
v -86.051910 -5.877398 28.275064
v -86.854233 -5.877398 24.175665
v -87.326591 -10.476365 16.637451
v -85.658089 -10.476365 25.862196
v -84.303131 -10.476365 28.200617
v -85.133957 -1.047602 30.613485
v -88.783875 -1.048705 8.348610
v -88.157455 -1.047603 16.637451
v -87.291321 -1.047603 24.175665
v -87.817886 -10.477271 10.137189
v -86.460449 -10.476365 21.762794
v -86.659195 -12.260810 0.000004
v -86.524155 -12.260573 -10.137179
v -86.032814 -12.259669 -16.637444
v -83.009354 -12.259669 -27.676083
v -86.524155 -12.260573 10.137189
v -86.032814 -12.259669 16.637451
v -85.166672 -12.259669 21.238268
v -84.364319 -12.259669 25.337669
v -83.009354 -12.259669 27.676090
v -88.545135 -3.686969 -10.137179
v -88.545135 -3.686969 10.137189
v -84.552071 17.949366 20.568111
v -84.292900 16.641848 23.596413
v -84.552071 17.949366 -20.568106
v -84.292900 16.641848 -23.596405
