# Blender 5.0.1
# www.blender.org
mtllib AmgOneWheel.mtl
o Wheel_FL
v 0.095999 0.232495 -0.001437
v 0.095999 0.232495 -0.238558
v 0.095999 0.360693 -0.200916
v 0.095999 0.448188 -0.099941
v 0.095999 0.467203 0.032309
v 0.095999 0.411699 0.153844
v 0.095999 0.299300 0.226079
v 0.095999 0.165690 0.226079
v 0.095999 0.053291 0.153844
v 0.095999 -0.002212 0.032309
v 0.095999 0.016802 -0.099941
v 0.095999 0.104298 -0.200916
v -0.102358 0.232495 -0.001437
v -0.102358 0.232495 -0.238558
v -0.102358 0.360693 -0.200916
v -0.102358 0.448188 -0.099941
v -0.102358 0.467203 0.032309
v -0.102358 0.411699 0.153844
v -0.102358 0.299300 0.226079
v -0.102358 0.165690 0.226079
v -0.102358 0.053291 0.153844
v -0.102358 -0.002212 0.032309
v -0.102358 0.016802 -0.099941
v -0.102358 0.104298 -0.200916
vn -1.0000 -0.0000 -0.0000
vn 1.0000 -0.0000 -0.0000
vn -0.0000 0.5406 -0.8413
vn -0.0000 -0.7558 0.6549
vn -0.0000 0.9898 0.1423
vn -0.0000 -0.2817 0.9595
vn -0.0000 -0.9096 -0.4154
vn -0.0000 0.2817 0.9595
vn -0.0000 -0.0000 -1.0000
vn -0.0000 0.9096 -0.4154
vn -0.0000 -0.9898 0.1423
vn -0.0000 0.7557 0.6549
vn -0.0000 -0.5406 -0.8413
vt 0.237364 0.403154
vt 0.185402 0.484008
vt 0.237364 0.499265
vt 0.149938 0.443080
vt 0.142231 0.389476
vt 0.164728 0.340215
vt 0.210286 0.310936
vt 0.264441 0.310936
vt 0.309999 0.340215
vt 0.332496 0.389476
vt 0.324789 0.443080
vt 0.289325 0.484008
vt 0.439773 0.400676
vt 0.439773 0.496787
vt 0.387811 0.481530
vt 0.352347 0.440602
vt 0.344640 0.386998
vt 0.367137 0.337737
vt 0.412695 0.308459
vt 0.466850 0.308459
vt 0.512409 0.337737
vt 0.534905 0.386998
vt 0.527198 0.440602
vt 0.491734 0.481530
vt 0.658674 0.259661
vt 0.548479 0.322103
vt 0.658674 0.322103
vt 0.658674 0.479042
vt 0.548479 0.430435
vt 0.658674 0.430435
vt 0.658674 0.239390
vt 0.548479 0.228826
vt 0.658674 0.228826
vt 0.548479 0.359216
vt 0.658674 0.359216
vt 0.658674 0.458771
vt 0.548479 0.489605
vt 0.658674 0.489605
vt 0.548479 0.287997
vt 0.658674 0.287997
vt 0.548479 0.396329
vt 0.658674 0.396329
vt 0.548479 0.259661
vt 0.548479 0.479042
vt 0.548479 0.239390
vt 0.548479 0.458771
s 1
usemtl Ps1_Mercedes_-_Amg_One
f 1/1/1 3/2/1 2/3/1
f 1/1/1 4/4/1 3/2/1
f 1/1/1 5/5/1 4/4/1
f 1/1/1 6/6/1 5/5/1
f 1/1/1 7/7/1 6/6/1
f 1/1/1 8/8/1 7/7/1
f 1/1/1 9/9/1 8/8/1
f 1/1/1 10/10/1 9/9/1
f 1/1/1 11/11/1 10/10/1
f 1/1/1 12/12/1 11/11/1
f 1/1/1 2/3/1 12/12/1
f 13/13/2 14/14/2 15/15/2
f 13/13/2 15/15/2 16/16/2
f 13/13/2 16/16/2 17/17/2
f 13/13/2 17/17/2 18/18/2
f 13/13/2 18/18/2 19/19/2
f 13/13/2 19/19/2 20/20/2
f 13/13/2 20/20/2 21/21/2
f 13/13/2 21/21/2 22/22/2
f 13/13/2 22/22/2 23/23/2
f 13/13/2 23/23/2 24/24/2
f 13/13/2 24/24/2 14/14/2
f 9/25/3 20/26/3 8/27/3
f 4/28/4 15/29/4 3/30/4
f 11/31/5 22/32/5 10/33/5
f 3/30/6 14/34/6 2/35/6
f 6/36/7 17/37/7 5/38/7
f 2/35/8 24/39/8 12/40/8
f 8/27/9 19/41/9 7/42/9
f 10/33/10 21/43/10 9/25/10
f 5/38/11 16/44/11 4/28/11
f 12/40/12 23/45/12 11/31/12
f 7/42/13 18/46/13 6/36/13
f 9/25/3 21/43/3 20/26/3
f 4/28/4 16/44/4 15/29/4
f 11/31/5 23/45/5 22/32/5
f 3/30/6 15/29/6 14/34/6
f 6/36/7 18/46/7 17/37/7
f 2/35/8 14/34/8 24/39/8
f 8/27/9 20/26/9 19/41/9
f 10/33/10 22/32/10 21/43/10
f 5/38/11 17/37/11 16/44/11
f 12/40/12 24/39/12 23/45/12
f 7/42/13 19/41/13 18/46/13
