# Blender 5.1.2
# www.blender.org
mtllib Untitled.mtl
o obj1.278
v 0.121593 0.043772 -0.016452
v 0.097276 0.049307 -0.021095
v 0.099714 0.005267 -0.019619
v 0.121610 0.046921 -0.002821
v 0.124180 0.014560 -0.015470
v 0.152812 0.051638 -0.014812
v 0.138070 0.055451 -0.000033
v 0.152739 0.052698 0.015052
v 0.136878 0.091872 0.013620
v 0.136951 0.090812 -0.016244
v 0.126566 0.085186 -0.001119
v 0.103281 0.116268 -0.002282
v 0.111690 0.125497 0.012364
v 0.078884 0.151278 0.011366
v 0.086171 0.163681 -0.004007
v 0.121988 0.135532 -0.002921
v 0.111763 0.124434 -0.017503
v 0.149490 0.098821 -0.001548
v 0.078956 0.150218 -0.018498
v 0.040770 0.166399 -0.019169
v 0.037656 0.155060 -0.003819
v 0.072956 0.140101 -0.003201
v 0.040697 0.167462 0.010698
v -0.000264 0.172943 0.010401
v -0.000247 0.187335 -0.005059
v 0.044478 0.181351 -0.004739
v -0.000191 0.171883 -0.019462
v -0.041138 0.166286 -0.019366
v -0.000211 0.160128 -0.004090
v -0.044956 0.181227 -0.004952
v -0.086604 0.163442 -0.004420
v -0.079355 0.151059 0.010988
v -0.041211 0.167349 0.010502
v -0.038066 0.154955 -0.004001
v -0.073327 0.139899 -0.003550
v -0.079282 0.149999 -0.018876
v -0.103590 0.115981 -0.002776
v -0.112022 0.124123 -0.018038
v -0.122347 0.135194 -0.003505
v -0.149754 0.098406 -0.002264
v -0.137122 0.090432 -0.016898
v -0.166956 0.055590 -0.000780
v -0.152881 0.051214 -0.015542
v -0.138221 0.055068 -0.000693
v -0.126794 0.084834 -0.001724
v -0.112094 0.125187 0.011830
v -0.137195 0.091493 0.012965
v -0.152954 0.052274 0.014322
v -0.158292 0.010203 0.015805
v -0.121724 0.046583 -0.003403
v -0.122196 0.044961 0.005421
v -0.124701 0.015744 0.006391
v -0.098098 0.051260 0.009686
v -0.097322 0.055120 -0.003637
v -0.097310 0.049037 -0.021561
v -0.069064 0.054343 -0.028871
v -0.068431 0.064276 -0.004040
v -0.055176 0.035550 0.063009
v -0.000204 0.039299 0.063014
v -0.028915 0.058582 -0.036761
v -0.028840 0.068962 -0.004232
v 0.000005 0.059700 -0.036728
v -0.000087 0.070087 -0.004199
v 0.028670 0.069041 -0.004095
v 0.068271 0.064466 -0.003713
v 0.028928 0.058661 -0.036624
v 0.069051 0.054535 -0.028540
v 0.000105 -0.016465 -0.034192
v 0.029625 -0.015690 -0.034141
v 0.029955 -0.051606 -0.031965
v 0.071402 -0.015656 -0.026197
v 0.079160 -0.023532 -0.000461
v 0.074310 -0.060341 -0.020984
v 0.086583 -0.086375 -0.013735
v 0.089254 -0.082464 0.001661
v 0.039993 -0.084249 -0.020083
v 0.080046 -0.050404 0.000808
v 0.086657 -0.084964 0.012144
v 0.054707 -0.021366 0.065194
v 0.024814 -0.067923 0.066604
v 0.100458 0.000372 -0.001492
v 0.100345 0.007554 0.011581
v 0.067608 -0.101312 0.012661
v -0.000067 -0.065647 0.066466
v 0.054777 0.035702 0.063272
v 0.097909 0.051532 0.010155
v 0.124626 0.016090 0.006987
v 0.097186 0.055390 -0.003171
v 0.122044 0.045300 0.006004
v 0.158186 0.010643 0.016562
v 0.166804 0.056052 0.000017
v 0.172753 0.010134 0.001663
v 0.145270 0.004933 0.001784
v 0.152848 -0.031425 0.018043
v 0.137090 -0.070643 0.019401
v 0.166923 -0.035799 0.003282
v 0.126761 -0.065045 0.004227
v 0.141325 -0.028794 0.002970
v 0.152921 -0.032486 -0.011820
v 0.137162 -0.071703 -0.010463
v 0.122314 -0.115404 0.006006
v 0.112062 -0.105398 -0.009328
v 0.107719 -0.089720 0.005057
v 0.149721 -0.078617 0.004766
v 0.111989 -0.104335 0.020540
v 0.079249 -0.130210 0.021378
v 0.041105 -0.146497 0.021868
v 0.066131 -0.122583 0.006126
v 0.086565 -0.143653 0.006922
v 0.079322 -0.131270 -0.008485
v 0.044924 -0.161438 0.007454
v 0.000158 -0.152093 0.021965
v 0.000214 -0.167546 0.007560
v 0.041178 -0.147560 -0.008000
v 0.000231 -0.153154 -0.007900
v 0.038033 -0.135167 0.006503
v 0.000179 -0.140339 0.006592
v -0.040803 -0.146610 0.021672
v -0.037689 -0.135272 0.006321
v -0.078917 -0.131490 -0.008864
v -0.065820 -0.122766 0.005810
v -0.040730 -0.147674 -0.008196
v -0.044511 -0.161561 0.007240
v -0.086199 -0.143893 0.006509
v -0.078989 -0.130430 0.021000
v -0.122021 -0.115743 0.005422
v -0.111723 -0.105708 -0.009863
v -0.086276 -0.086615 -0.014149
v -0.067187 -0.102901 -0.013458
v -0.107492 -0.090018 0.004543
v -0.136911 -0.072084 -0.011118
v -0.126599 -0.065396 0.003621
v -0.152772 -0.032909 -0.012550
v -0.141257 -0.029185 0.002296
v -0.149523 -0.079032 0.004050
v -0.166837 -0.036263 0.002484
v -0.136984 -0.071023 0.018745
v -0.111796 -0.104645 0.020006
v -0.089032 -0.082711 0.001235
v -0.086478 -0.085204 0.011730
v -0.079908 -0.050626 0.000426
v -0.067387 -0.101499 0.012338
v -0.054958 -0.021518 0.064933
v -0.079098 -0.023755 -0.000840
v -0.100451 0.000093 -0.001972
v -0.100419 0.007277 0.011102
v -0.024943 -0.067993 0.066485
v -0.029656 -0.088918 0.001937
v -0.063430 -0.104628 0.001962
v 0.000117 -0.086787 0.001637
v -0.039663 -0.084360 -0.020273
v 0.000167 -0.081112 -0.022982
v 0.000148 -0.051645 -0.032036
v 0.029893 -0.088835 0.002080
v 0.063710 -0.104452 0.002266
v 0.067536 -0.102715 -0.013136
v -0.029659 -0.051688 -0.032108
v -0.071232 -0.015853 -0.026538
v -0.029418 -0.015772 -0.034283
v -0.074041 -0.060547 -0.021338
v -0.099633 0.004990 -0.020095
v -0.124144 0.014216 -0.016063
v -0.121633 0.043435 -0.017034
v -0.158219 0.009143 -0.014058
v -0.124633 0.012628 -0.002455
v -0.145289 0.004530 0.001090
v -0.152844 -0.031848 0.017313
v -0.172786 0.009655 0.000838
v 0.158259 0.009582 -0.013301
v 0.124608 0.012973 -0.001860
vn -0.0455 0.9989 -0.0108
vn 0.0775 0.5381 -0.8393
vn 0.3035 0.5592 -0.7714
vn 0.4427 -0.4577 -0.7710
vn 0.1868 -0.5890 -0.7863
vn -0.8854 0.4501 0.1163
vn 0.2655 0.1819 -0.9468
vn 0.0149 -0.0273 -0.9995
vn 0.1628 0.1791 0.9703
vn 0.0099 0.0438 0.9990
vn -0.8757 -0.4826 0.0150
vn 0.0087 0.0440 0.9990
vn -0.7165 -0.6972 0.0230
vn 0.0061 0.0472 0.9989
vn 0.7145 0.6993 -0.0232
vn 0.5077 0.8610 -0.0293
vn 0.0135 -0.0271 -0.9995
vn 0.8704 0.4921 -0.0154
vn 0.0110 -0.0238 -0.9997
vn -0.2648 -0.9637 0.0337
vn 0.0072 -0.0215 -0.9997
vn -0.5100 -0.8597 0.0293
vn 0.0023 0.0497 0.9988
vn -0.0025 0.0506 0.9987
vn 0.2633 0.9641 -0.0336
vn -0.0013 0.9994 -0.0355
vn 0.0024 -0.0204 -0.9998
vn 0.0013 -0.9994 0.0357
vn -0.0024 -0.0214 -0.9998
vn -0.2658 0.9634 -0.0349
vn -0.5099 0.8596 -0.0317
vn -0.0110 0.0471 0.9988
vn -0.0072 0.0497 0.9987
vn 0.2673 -0.9630 0.0350
vn 0.5122 -0.8583 0.0318
vn -0.0062 -0.0239 -0.9997
vn -0.0086 -0.0271 -0.9996
vn 0.7184 -0.6952 0.0264
vn -0.7163 0.6973 -0.0266
vn -0.8717 0.4897 -0.0196
vn -0.0100 -0.0273 -0.9996
vn -0.9677 0.2517 -0.0113
vn -0.2614 0.1812 -0.9481
vn 0.8836 0.4525 0.1205
vn 0.8769 -0.4802 0.0192
vn -0.0135 0.0439 0.9989
vn -0.0149 0.0438 0.9989
vn -0.1679 0.1787 0.9695
vn -0.1824 -0.0686 0.9808
vn 0.0211 0.6297 0.7766
vn 0.0428 0.9990 -0.0106
vn 0.0376 -0.5139 0.8570
vn -0.4126 0.6806 0.6054
vn -0.3040 0.9518 -0.0395
vn -0.3014 0.5584 -0.7729
vn -0.2608 0.5395 -0.8005
vn -0.1992 0.9795 0.0295
vn -0.3498 0.4648 0.8134
vn -0.0028 0.5695 0.8220
vn -0.0816 0.9944 0.0668
vn -0.1073 0.5601 -0.8214
vn 0.0011 0.5856 -0.8106
vn -0.0015 0.9982 0.0594
vn 0.0785 0.9947 0.0671
vn 0.1963 0.9801 0.0305
vn 0.1097 0.5604 -0.8209
vn 0.2632 0.5403 -0.7993
vn 0.0958 -0.0449 -0.9944
vn 0.0025 -0.0473 -0.9989
vn 0.0903 -0.1895 -0.9777
vn 0.4836 -0.1896 -0.8545
vn 0.9385 -0.3451 0.0053
vn 0.6111 -0.0335 -0.7908
vn -0.0708 -0.6218 -0.7800
vn 0.4801 0.2097 -0.8518
vn 0.7627 0.6461 0.0271
vn 0.9880 0.1545 -0.0023
vn 0.5876 0.2819 0.7585
vn 0.4994 -0.1029 0.8602
vn 0.1307 -0.5566 0.8204
vn -0.2721 -0.4368 0.8575
vn -0.0012 -0.5524 0.8336
vn 0.6318 -0.7707 0.0826
vn 0.6540 -0.3900 0.6483
vn 0.3447 0.4657 0.8150
vn 0.4078 0.6817 0.6074
vn -0.0265 0.6296 0.7764
vn -0.0403 -0.5139 0.8569
vn 0.3016 0.9527 -0.0380
vn 0.1779 -0.0681 0.9817
vn 0.9671 0.2544 -0.0067
vn 1.0000 0.0014 0.0023
vn 0.0108 0.0312 0.9995
vn -0.7985 -0.6009 0.0360
vn -0.8686 0.4952 -0.0196
vn 0.0129 0.0319 0.9994
vn 0.9677 -0.2517 0.0113
vn -0.9694 0.2453 -0.0111
vn 0.0177 -0.0392 -0.9991
vn 0.0157 -0.0398 -0.9991
vn 0.8717 -0.4897 0.0196
vn 0.7163 -0.6973 0.0266
vn 0.3300 -0.1416 -0.9333
vn -0.2239 0.9706 0.0885
vn 0.2119 -0.0270 0.9769
vn 0.0122 -0.1876 0.9822
vn 0.0002 0.0188 0.9998
vn 0.5099 -0.8596 0.0317
vn -0.9079 0.4192 -0.0019
vn 0.0145 -0.3578 -0.9337
vn 0.2658 -0.9634 0.0349
vn -0.0024 0.0204 0.9998
vn 0.0013 -0.9994 0.0354
vn 0.0072 -0.0496 -0.9987
vn -0.2730 0.9613 -0.0372
vn 0.0025 -0.0506 -0.9987
vn -0.0013 0.9994 -0.0357
vn -0.0050 0.0188 0.9998
vn 0.2705 0.9621 -0.0359
vn -0.0091 -0.3579 -0.9337
vn 0.9067 0.4217 0.0024
vn -0.0023 -0.0497 -0.9988
vn -0.2633 -0.9641 0.0336
vn -0.5077 -0.8610 0.0293
vn -0.0164 -0.1876 0.9821
vn -0.7145 -0.6993 0.0231
vn -0.3252 -0.1425 -0.9349
vn -0.4765 0.2084 -0.8541
vn 0.2208 0.9712 0.0895
vn 0.2964 -0.4751 -0.8285
vn -0.0128 -0.0393 -0.9991
vn 0.8673 0.4976 -0.0155
vn 0.9687 0.2480 -0.0065
vn -0.0108 -0.0399 -0.9991
vn -0.8704 -0.4921 0.0154
vn -0.9671 -0.2544 0.0066
vn -0.2165 -0.0276 0.9759
vn -0.0177 0.0319 0.9993
vn -0.7646 0.6440 0.0235
vn -0.5920 0.2802 0.7556
vn -0.9884 0.1517 -0.0070
vn -0.5032 -0.1043 0.8578
vn 0.2692 -0.4360 0.8588
vn -0.9376 -0.3477 0.0008
vn -0.6302 -0.7724 0.0796
vn -0.6560 -0.3917 0.6452
vn -0.1331 -0.5570 0.8198
vn 0.2492 -0.9684 0.0082
vn 0.7532 -0.6576 0.0158
vn 0.0027 -0.7079 -0.7063
vn 0.0013 -0.9991 0.0427
vn 0.0762 -0.6216 -0.7796
vn 0.0026 -0.1899 -0.9818
vn -0.2465 -0.9691 0.0070
vn -0.7515 -0.6596 0.0122
vn -0.2912 -0.4759 -0.8299
vn -0.0851 -0.1897 -0.9781
vn -0.6072 -0.0352 -0.7938
vn -0.0909 -0.0452 -0.9948
vn -0.4789 -0.1909 -0.8568
vn -0.4378 -0.4589 -0.7731
vn -0.0750 0.5379 -0.8397
vn -0.1814 -0.5895 -0.7871
vn -0.2562 -0.1882 -0.9481
vn -0.0782 -0.9938 0.0793
vn 0.8000 -0.5986 0.0398
vn -0.0157 0.0311 0.9994
vn -1.0000 -0.0014 -0.0024
vn 0.2612 -0.1875 -0.9469
vn 0.0806 -0.9935 0.0797
vt 0.782216 0.884328
vt 0.782099 0.883594
vt 0.787676 0.883939
vt 0.786971 0.874950
vt 0.781428 0.877634
vt 0.778813 0.886176
vt 0.776056 0.886472
vt 0.779556 0.894402
vt 0.776309 0.886895
vt 0.779814 0.894825
vt 0.781837 0.893303
vt 0.785250 0.901573
vt 0.786864 0.899541
vt 0.792260 0.906678
vt 0.783008 0.903576
vt 0.790661 0.909153
vt 0.784997 0.901150
vt 0.777072 0.896206
vt 0.792007 0.906255
vt 0.800827 0.907145
vt 0.800102 0.909376
vt 0.793339 0.904262
vt 0.800355 0.909799
vt 0.808994 0.910713
vt 0.799504 0.912556
vt 0.808936 0.913557
vt 0.808737 0.910290
vt 0.808810 0.907995
vt 0.817327 0.908943
vt 0.818310 0.912084
vt 0.826988 0.908243
vt 0.825529 0.905851
vt 0.817580 0.909366
vt 0.816749 0.906751
vt 0.824100 0.903498
vt 0.825277 0.905428
vt 0.832049 0.899978
vt 0.830362 0.898457
vt 0.834387 0.902293
vt 0.839993 0.894635
vt 0.837183 0.892963
vt 0.843426 0.885797
vt 0.840333 0.884868
vt 0.837382 0.885203
vt 0.835107 0.891976
vt 0.832302 0.900396
vt 0.837436 0.893386
vt 0.840581 0.885291
vt 0.841529 0.876666
vt 0.834013 0.883254
vt 0.833853 0.883526
vt 0.834417 0.877269
vt 0.829010 0.883584
vt 0.828758 0.884289
vt 0.828587 0.882918
vt 0.822617 0.884095
vt 0.822719 0.886302
vt 0.820327 0.880949
vt 0.808785 0.881990
vt 0.814415 0.887454
vt 0.814128 0.885106
vt 0.808056 0.885481
vt 0.808377 0.887829
vt 0.802324 0.887756
vt 0.793976 0.887017
vt 0.801969 0.885408
vt 0.793573 0.884819
vt 0.801502 0.870847
vt 0.807706 0.870540
vt 0.801289 0.867147
vt 0.792780 0.871114
vt 0.791312 0.869719
vt 0.792007 0.865654
vt 0.799120 0.860598
vt 0.789367 0.857909
vt 0.788940 0.858828
vt 0.791016 0.867866
vt 0.789557 0.858376
vt 0.796981 0.870492
vt 0.803068 0.864463
vt 0.793495 0.854939
vt 0.808309 0.864803
vt 0.786937 0.874075
vt 0.787097 0.875635
vt 0.797210 0.881528
vt 0.787797 0.884615
vt 0.782187 0.884061
vt 0.781516 0.878105
vt 0.787860 0.885306
vt 0.774986 0.878329
vt 0.773246 0.887552
vt 0.771802 0.878193
vt 0.775930 0.869704
vt 0.777087 0.875888
vt 0.781151 0.862596
vt 0.779075 0.861609
vt 0.772833 0.868775
vt 0.778244 0.870078
vt 0.778822 0.861186
vt 0.775677 0.869281
vt 0.776265 0.859937
vt 0.781875 0.852279
vt 0.783956 0.854176
vt 0.785055 0.857462
vt 0.784209 0.854594
vt 0.790986 0.849144
vt 0.798935 0.845629
vt 0.789270 0.846329
vt 0.793656 0.850534
vt 0.790729 0.848721
vt 0.797948 0.842488
vt 0.807521 0.844277
vt 0.807327 0.841015
vt 0.798683 0.845206
vt 0.799514 0.847821
vt 0.807269 0.843859
vt 0.807448 0.846577
vt 0.816156 0.845196
vt 0.815431 0.847423
vt 0.824003 0.847894
vt 0.821402 0.849844
vt 0.815903 0.844773
vt 0.816754 0.842016
vt 0.825597 0.845420
vt 0.824256 0.848317
vt 0.833250 0.850996
vt 0.831009 0.852999
vt 0.825709 0.857005
vt 0.830304 0.856329
vt 0.821630 0.853767
vt 0.836449 0.859747
vt 0.834426 0.861264
vt 0.837664 0.868596
vt 0.839949 0.867677
vt 0.839186 0.858366
vt 0.843012 0.867020
vt 0.831261 0.853422
vt 0.836702 0.860170
vt 0.826429 0.857895
vt 0.825962 0.857467
vt 0.824649 0.867030
vt 0.820040 0.869918
vt 0.821878 0.854234
vt 0.824591 0.868887
vt 0.829181 0.873020
vt 0.829307 0.874580
vt 0.813530 0.864201
vt 0.813919 0.859451
vt 0.820950 0.853539
vt 0.807487 0.861026
vt 0.807667 0.860034
vt 0.815874 0.860180
vt 0.807555 0.866991
vt 0.801400 0.859762
vt 0.794219 0.854205
vt 0.793301 0.854472
vt 0.813822 0.866836
vt 0.823201 0.864876
vt 0.813919 0.870535
vt 0.822773 0.870365
vt 0.828889 0.873905
vt 0.833712 0.882792
vt 0.834115 0.876807
vt 0.841272 0.876243
vt 0.834319 0.876569
vt 0.838656 0.874838
vt 0.840202 0.868095
vt 0.844456 0.876379
vt 0.774734 0.877906
vt 0.781438 0.877405
s 1
usemtl mat1
f 4/1/1 1/2/2 2/3/3
f 1/2/2 3/4/4 2/3/3
f 1/2/2 5/5/5 3/4/4
f 7/6/6 1/2/2 4/1/1
f 6/7/7 5/5/5 1/2/2
f 7/6/6 6/7/7 1/2/2
f 7/6/6 10/8/8 6/7/7
f 8/9/9 7/6/6 4/1/1
f 9/10/10 7/6/6 8/9/9
f 9/10/10 11/11/11 7/6/6
f 11/11/11 10/8/8 7/6/6
f 13/12/12 11/11/11 9/10/10
f 11/11/11 12/13/13 10/8/8
f 13/12/12 12/13/13 11/11/11
f 14/14/14 12/13/13 13/12/12
f 9/10/10 16/15/15 13/12/12
f 13/12/12 15/16/16 14/14/14
f 13/12/12 16/15/15 15/16/16
f 17/17/17 16/15/15 18/18/18
f 19/19/19 16/15/15 17/17/17
f 9/10/10 18/18/18 16/15/15
f 19/19/19 15/16/16 16/15/15
f 19/19/19 21/20/20 20/21/21
f 20/21/21 15/16/16 19/19/19
f 17/17/17 22/22/22 19/19/19
f 19/19/19 22/22/22 21/20/20
f 17/17/17 12/13/13 22/22/22
f 22/22/22 12/13/13 14/14/14
f 23/23/23 22/22/22 14/14/14
f 23/23/23 21/20/20 22/22/22
f 24/24/24 21/20/20 23/23/23
f 14/14/14 26/25/25 23/23/23
f 23/23/23 25/26/26 24/24/24
f 23/23/23 26/25/25 25/26/26
f 14/14/14 15/16/16 26/25/25
f 20/21/21 26/25/25 15/16/16
f 27/27/27 26/25/25 20/21/21
f 27/27/27 25/26/26 26/25/25
f 20/21/21 29/28/28 27/27/27
f 27/27/27 28/29/29 30/30/30
f 27/27/27 29/28/28 28/29/29
f 30/30/30 25/26/26 27/27/27
f 30/30/30 28/29/29 31/31/31
f 30/30/30 31/31/31 32/32/32
f 32/32/32 33/33/33 30/30/30
f 30/30/30 33/33/33 25/26/26
f 24/24/24 33/33/33 34/34/34
f 24/24/24 25/26/26 33/33/33
f 34/34/34 33/33/33 35/35/35
f 35/35/35 33/33/33 32/32/32
f 34/34/34 35/35/35 36/36/36
f 36/36/36 35/35/35 38/37/37
f 37/38/38 35/35/35 32/32/32
f 37/38/38 38/37/37 35/35/35
f 39/39/39 38/37/37 40/40/40
f 36/36/36 38/37/37 39/39/39
f 41/41/41 40/40/40 38/37/37
f 41/41/41 38/37/37 37/38/38
f 42/42/42 40/40/40 41/41/41
f 43/43/43 42/42/42 41/41/41
f 43/43/43 41/41/41 44/44/44
f 41/41/41 45/45/45 44/44/44
f 37/38/38 45/45/45 41/41/41
f 46/46/46 45/45/45 37/38/38
f 47/47/47 45/45/45 46/46/46
f 44/44/44 45/45/45 47/47/47
f 47/47/47 46/46/46 39/39/39
f 39/39/39 40/40/40 47/47/47
f 47/47/47 40/40/40 48/48/48
f 47/47/47 48/48/48 44/44/44
f 42/42/42 48/48/48 40/40/40
f 49/49/49 48/48/48 42/42/42
f 49/49/49 51/50/50 48/48/48
f 44/44/44 48/48/48 50/51/51
f 50/51/51 48/48/48 51/50/50
f 52/52/52 51/50/50 49/49/49
f 52/52/52 53/53/53 51/50/50
f 54/54/54 51/50/50 53/53/53
f 50/51/51 51/50/50 54/54/54
f 54/54/54 55/55/55 50/51/51
f 54/54/54 56/56/56 55/55/55
f 54/54/54 53/53/53 57/57/57
f 57/57/57 56/56/56 54/54/54
f 57/57/57 53/53/53 58/58/58
f 57/57/57 58/58/58 59/59/59
f 59/59/59 61/60/60 57/57/57
f 60/61/61 56/56/56 57/57/57
f 57/57/57 61/60/60 60/61/61
f 60/61/61 61/60/60 62/62/62
f 59/59/59 63/63/63 61/60/60
f 62/62/62 61/60/60 63/63/63
f 64/64/64 63/63/63 59/59/59
f 64/64/64 62/62/62 63/63/63
f 59/59/59 65/65/65 64/64/64
f 64/64/64 65/65/65 66/66/66
f 66/66/66 62/62/62 64/64/64
f 66/66/66 65/65/65 67/67/67
f 66/66/66 67/67/67 69/68/68
f 66/66/66 68/69/69 62/62/62
f 69/68/68 68/69/69 66/66/66
f 69/68/68 70/70/70 68/69/69
f 69/68/68 67/67/67 71/71/71
f 71/71/71 70/70/70 69/68/68
f 3/4/4 71/71/71 2/3/3
f 2/3/3 71/71/71 67/67/67
f 3/4/4 72/72/72 71/71/71
f 71/71/71 73/73/73 70/70/70
f 72/72/72 73/73/73 71/71/71
f 73/73/73 76/74/74 70/70/70
f 73/73/73 74/75/75 76/74/74
f 73/73/73 75/76/76 74/75/75
f 77/77/77 75/76/76 73/73/73
f 72/72/72 77/77/77 73/73/73
f 78/78/78 75/76/76 77/77/77
f 79/79/79 78/78/78 77/77/77
f 79/79/79 77/77/77 72/72/72
f 80/80/80 83/81/81 79/79/79
f 80/80/80 79/79/79 84/82/82
f 72/72/72 81/83/83 79/79/79
f 79/79/79 81/83/83 82/84/84
f 79/79/79 82/84/84 85/85/85
f 83/81/81 78/78/78 79/79/79
f 84/82/82 79/79/79 85/85/85
f 85/85/85 65/65/65 59/59/59
f 59/59/59 84/82/82 85/85/85
f 86/86/86 65/65/65 85/85/85
f 85/85/85 82/84/84 86/86/86
f 89/87/87 86/86/86 87/88/88
f 87/88/88 86/86/86 82/84/84
f 88/89/89 65/65/65 86/86/86
f 89/87/87 88/89/89 86/86/86
f 8/9/9 4/1/1 89/87/87
f 4/1/1 88/89/89 89/87/87
f 8/9/9 89/87/87 90/90/90
f 90/90/90 89/87/87 87/88/88
f 90/90/90 91/91/91 8/9/9
f 90/90/90 92/92/92 91/91/91
f 94/93/93 92/92/92 90/90/90
f 90/90/90 87/88/88 93/94/94
f 90/90/90 93/94/94 94/93/93
f 94/93/93 97/95/95 95/96/96
f 95/96/96 96/97/97 94/93/93
f 94/93/93 96/97/97 92/92/92
f 98/98/98 97/95/95 94/93/93
f 94/93/93 93/94/94 98/98/98
f 98/98/98 100/99/99 97/95/95
f 98/98/98 93/94/94 99/100/100
f 99/100/100 100/99/99 98/98/98
f 100/99/99 104/101/101 101/102/102
f 100/99/99 101/102/102 102/103/103
f 102/103/103 103/104/104 100/99/99
f 100/99/99 103/104/104 97/95/95
f 99/100/100 104/101/101 100/99/99
f 105/105/105 101/102/102 104/101/101
f 105/105/105 104/101/101 95/96/96
f 95/96/96 104/101/101 96/97/97
f 99/100/100 96/97/97 104/101/101
f 105/105/105 103/104/104 75/76/76
f 78/78/78 105/105/105 75/76/76
f 106/106/106 105/105/105 78/78/78
f 106/106/106 101/102/102 105/105/105
f 95/96/96 103/104/104 105/105/105
f 107/107/107 109/108/108 106/106/106
f 108/109/109 107/107/107 106/106/106
f 108/109/109 106/106/106 83/81/81
f 106/106/106 109/108/108 101/102/102
f 83/81/81 106/106/106 78/78/78
f 102/103/103 109/108/108 110/110/110
f 110/110/110 109/108/108 111/111/111
f 102/103/103 101/102/102 109/108/108
f 107/107/107 111/111/111 109/108/108
f 112/112/112 111/111/111 107/107/107
f 111/111/111 112/112/112 113/113/113
f 114/114/114 111/111/111 113/113/113
f 110/110/110 111/111/111 114/114/114
f 114/114/114 116/115/115 110/110/110
f 114/114/114 113/113/113 115/116/116
f 115/116/116 116/115/115 114/114/114
f 115/116/116 117/117/117 116/115/115
f 117/117/117 107/107/107 116/115/115
f 116/115/115 107/107/107 108/109/109
f 110/110/110 116/115/115 108/109/109
f 117/117/117 112/112/112 107/107/107
f 118/118/118 112/112/112 117/117/117
f 119/119/119 117/117/117 115/116/116
f 119/119/119 118/118/118 117/117/117
f 119/119/119 120/120/120 121/121/121
f 119/119/119 122/122/122 120/120/120
f 121/121/121 118/118/118 119/119/119
f 115/116/116 122/122/122 119/119/119
f 113/113/113 122/122/122 115/116/116
f 113/113/113 123/123/123 122/122/122
f 122/122/122 123/123/123 120/120/120
f 118/118/118 124/124/124 123/123/123
f 120/120/120 123/123/123 124/124/124
f 118/118/118 123/123/123 112/112/112
f 113/113/113 112/112/112 123/123/123
f 125/125/125 124/124/124 118/118/118
f 126/126/126 124/124/124 125/125/125
f 120/120/120 124/124/124 127/127/127
f 127/127/127 124/124/124 126/126/126
f 128/128/128 127/127/127 130/129/129
f 129/130/130 127/127/127 128/128/128
f 129/130/130 120/120/120 127/127/127
f 127/127/127 131/131/131 130/129/129
f 126/126/126 131/131/131 127/127/127
f 132/132/132 131/131/131 134/133/133
f 130/129/129 131/131/131 132/132/132
f 133/134/134 131/131/131 135/135/135
f 133/134/134 134/133/133 131/131/131
f 126/126/126 135/135/135 131/131/131
f 136/136/136 133/134/134 135/135/135
f 126/126/126 138/137/137 135/135/135
f 136/136/136 135/135/135 137/138/138
f 137/138/138 135/135/135 138/137/137
f 139/139/139 138/137/137 140/140/140
f 139/139/139 130/129/129 138/137/137
f 137/138/138 138/137/137 130/129/129
f 125/125/125 138/137/137 126/126/126
f 140/140/140 138/137/137 125/125/125
f 140/140/140 141/141/141 139/139/139
f 140/140/140 143/142/142 141/141/141
f 140/140/140 125/125/125 142/143/143
f 142/143/143 143/142/142 140/140/140
f 144/144/144 141/141/141 143/142/142
f 144/144/144 143/142/142 145/145/145
f 145/145/145 143/142/142 146/146/146
f 143/142/142 58/58/58 146/146/146
f 84/82/82 58/58/58 143/142/142
f 147/147/147 84/82/82 143/142/142
f 142/143/143 147/147/147 143/142/142
f 147/147/147 148/148/148 84/82/82
f 149/149/149 148/148/148 147/147/147
f 149/149/149 147/147/147 142/143/143
f 129/130/130 148/148/148 149/149/149
f 149/149/149 120/120/120 129/130/130
f 121/121/121 120/120/120 149/149/149
f 142/143/143 121/121/121 149/149/149
f 148/148/148 152/150/150 150/151/151
f 148/148/148 150/151/151 84/82/82
f 129/130/130 151/152/152 148/148/148
f 151/152/152 152/150/150 148/148/148
f 151/152/152 153/153/153 152/150/150
f 152/150/150 153/153/153 76/74/74
f 152/150/150 154/154/154 150/151/151
f 76/74/74 154/154/154 152/150/150
f 80/80/80 154/154/154 155/155/155
f 84/82/82 154/154/154 80/80/80
f 84/82/82 150/151/151 154/154/154
f 155/155/155 154/154/154 156/156/156
f 76/74/74 156/156/156 154/154/154
f 155/155/155 156/156/156 110/110/110
f 74/75/75 156/156/156 76/74/74
f 110/110/110 156/156/156 102/103/103
f 102/103/103 156/156/156 74/75/75
f 155/155/155 83/81/81 80/80/80
f 155/155/155 108/109/109 83/81/81
f 110/110/110 108/109/109 155/155/155
f 157/157/157 153/153/153 151/152/152
f 70/70/70 76/74/74 153/153/153
f 70/70/70 153/153/153 68/69/69
f 68/69/69 153/153/153 157/157/157
f 157/157/157 151/152/152 160/158/158
f 159/159/159 68/69/69 157/157/157
f 159/159/159 157/157/157 158/160/160
f 157/157/157 160/158/158 158/160/160
f 128/128/128 160/158/158 151/152/152
f 158/160/160 160/158/158 144/144/144
f 160/158/158 141/141/141 144/144/144
f 139/139/139 141/141/141 160/158/158
f 139/139/139 160/158/158 128/128/128
f 60/61/61 68/69/69 159/159/159
f 159/159/159 158/160/160 56/56/56
f 159/159/159 56/56/56 60/61/61
f 158/160/160 55/55/55 56/56/56
f 158/160/160 161/161/161 55/55/55
f 144/144/144 161/161/161 158/160/160
f 55/55/55 161/161/161 163/162/162
f 145/145/145 161/161/161 144/144/144
f 145/145/145 162/163/163 161/161/161
f 163/162/162 161/161/161 162/163/163
f 43/43/43 163/162/162 162/163/163
f 44/44/44 163/162/162 43/43/43
f 50/51/51 163/162/162 44/44/44
f 50/51/51 55/55/55 163/162/162
f 164/164/164 43/43/43 162/163/163
f 164/164/164 162/163/163 165/165/165
f 165/165/165 162/163/163 145/145/145
f 145/145/145 146/146/146 165/165/165
f 165/165/165 166/166/166 164/164/164
f 165/165/165 146/146/146 52/52/52
f 165/165/165 52/52/52 166/166/166
f 166/166/166 52/52/52 49/49/49
f 166/166/166 49/49/49 167/167/167
f 164/164/164 166/166/166 133/134/134
f 166/166/166 134/133/133 133/134/134
f 167/167/167 134/133/133 166/166/166
f 137/138/138 132/132/132 167/167/167
f 132/132/132 134/133/133 167/167/167
f 167/167/167 49/49/49 168/168/168
f 136/136/136 167/167/167 168/168/168
f 137/138/138 167/167/167 136/136/136
f 168/168/168 49/49/49 42/42/42
f 164/164/164 168/168/168 43/43/43
f 168/168/168 42/42/42 43/43/43
f 136/136/136 168/168/168 164/164/164
f 164/164/164 133/134/134 136/136/136
f 128/128/128 151/152/152 129/130/130
f 146/146/146 58/58/58 53/53/53
f 146/146/146 53/53/53 52/52/52
f 125/125/125 121/121/121 142/143/143
f 128/128/128 130/129/129 139/139/139
f 137/138/138 130/129/129 132/132/132
f 125/125/125 118/118/118 121/121/121
f 74/75/75 103/104/104 102/103/103
f 75/76/76 103/104/104 74/75/75
f 95/96/96 97/95/95 103/104/104
f 93/94/94 169/169/169 99/100/100
f 169/169/169 96/97/97 99/100/100
f 93/94/94 170/170/170 169/169/169
f 6/7/7 92/92/92 169/169/169
f 169/169/169 5/5/5 6/7/7
f 170/170/170 5/5/5 169/169/169
f 169/169/169 92/92/92 96/97/97
f 87/88/88 170/170/170 93/94/94
f 170/170/170 81/83/83 5/5/5
f 87/88/88 82/84/84 170/170/170
f 82/84/84 81/83/83 170/170/170
f 91/91/91 92/92/92 6/7/7
f 8/9/9 91/91/91 18/18/18
f 10/8/8 91/91/91 6/7/7
f 10/8/8 18/18/18 91/91/91
f 2/3/3 67/67/67 88/89/89
f 4/1/1 2/3/3 88/89/89
f 88/89/89 67/67/67 65/65/65
f 59/59/59 58/58/58 84/82/82
f 3/4/4 5/5/5 81/83/83
f 81/83/83 72/72/72 3/4/4
f 62/62/62 68/69/69 60/61/61
f 39/39/39 46/46/46 31/31/31
f 32/32/32 46/46/46 37/38/38
f 32/32/32 31/31/31 46/46/46
f 39/39/39 31/31/31 36/36/36
f 36/36/36 28/29/29 34/34/34
f 36/36/36 31/31/31 28/29/29
f 34/34/34 28/29/29 29/28/28
f 34/34/34 29/28/28 24/24/24
f 20/21/21 21/20/20 29/28/28
f 24/24/24 29/28/28 21/20/20
f 8/9/9 18/18/18 9/10/10
f 17/17/17 18/18/18 10/8/8
f 10/8/8 12/13/13 17/17/17
