# Blender 5.0.1
# www.blender.org
mtllib chicken.mtl
o Chicken
v 0.024829 0.000596 -0.029836
v 0.024829 0.000596 0.029836
v 0.006878 0.006414 0.037163
v -0.067113 0.084754 0.018293
v -0.078595 0.107737 -0.000000
v 0.030655 0.061076 -0.000000
v -0.041686 0.028364 -0.029595
v 0.006878 0.006414 -0.037163
v -0.017184 0.031864 -0.044729
v -0.002109 0.000748 -0.045768
v -0.040653 0.055847 0.018293
v -0.041686 0.028364 0.029595
v -0.017184 0.031864 0.044729
v 0.006876 0.006574 0.045104
v 0.024267 0.000756 0.052170
v 0.012169 0.000676 0.041003
v 0.024267 0.000755 -0.052170
v 0.012169 0.000676 -0.041003
v 0.006876 0.006573 -0.045104
v -0.002114 0.006566 -0.045659
v -0.012561 0.000970 -0.037272
v -0.005982 0.006414 -0.037163
v -0.034315 0.031849 -0.045786
v -0.040653 0.055847 -0.018293
v 0.000550 0.055847 -0.018293
v -0.017179 0.028364 -0.029595
v -0.028260 0.061708 -0.045515
v -0.067113 0.084754 -0.018293
v 0.000543 0.061732 -0.043739
v 0.030644 0.070011 -0.038635
v -0.012177 0.084754 -0.044040
v -0.047295 0.085504 -0.042024
v -0.048504 0.108875 -0.040831
v 0.004818 0.107737 -0.051029
v 0.049933 0.086681 -0.035021
v 0.062562 0.075359 -0.000000
v 0.080204 0.107737 -0.000000
v 0.062562 0.107737 -0.038021
v 0.062154 0.142168 -0.026321
v 0.074057 0.135356 -0.000000
v 0.073644 0.173858 -0.010721
v 0.036032 0.151348 -0.030901
v 0.004818 0.144987 -0.034733
v 0.064002 0.184671 -0.010721
v -0.041120 0.144383 -0.038220
v 0.071850 0.195861 -0.015351
v 0.081238 0.209483 -0.000004
v 0.085656 0.180378 -0.015351
v 0.087008 0.203012 -0.012011
v 0.089199 0.211847 -0.000004
v 0.101418 0.204631 -0.000004
v 0.100814 0.187529 -0.009112
v 0.113312 0.177487 -0.000004
v -0.069522 0.147200 -0.017408
v -0.095790 0.155586 -0.000000
v -0.070324 0.124336 -0.020019
v -0.002109 0.000748 0.045768
v -0.002114 0.006566 0.045659
v -0.012561 0.000970 0.037272
v -0.005982 0.006414 0.037163
v -0.034315 0.031849 0.045786
v 0.000550 0.055847 0.018293
v -0.017179 0.028364 0.029595
v -0.028260 0.061708 0.045515
v -0.057744 0.070214 -0.000000
v 0.000543 0.061732 0.043739
v 0.030644 0.070011 0.038635
v -0.012177 0.084754 0.044040
v -0.047295 0.085504 0.042024
v -0.048504 0.108875 0.040831
v 0.004818 0.107737 0.051029
v 0.049933 0.086681 0.035021
v 0.062562 0.107737 0.038021
v 0.062154 0.142168 0.026321
v 0.073644 0.173858 0.010721
v 0.081926 0.172473 -0.000000
v 0.036032 0.151348 0.030901
v 0.004818 0.144987 0.034732
v 0.064002 0.184671 0.010721
v 0.027928 0.160962 -0.000000
v -0.004665 0.156395 -0.000000
v 0.051978 0.189190 -0.000000
v -0.041120 0.144383 0.038220
v -0.057744 0.151628 -0.000000
v -0.070324 0.124336 0.020019
v -0.087735 0.123603 -0.000000
v -0.069522 0.147200 0.017408
v 0.071850 0.195861 0.015351
v 0.066080 0.202332 -0.000004
v 0.085656 0.180378 0.015351
v 0.096850 0.173907 -0.000004
v 0.087008 0.203012 0.012011
v 0.100814 0.187529 0.009111
v 0.107523 0.195459 -0.000004
vn -0.6564 -0.7545 -0.0000
vn -0.9405 -0.3397 -0.0000
vn -0.8627 -0.3479 -0.3670
vn 0.5728 0.8197 -0.0057
vn 0.6804 0.7260 -0.1004
vn 0.4447 0.7439 -0.4989
vn 0.5728 0.8197 0.0057
vn 0.4447 0.7439 0.4989
vn 0.6804 0.7260 0.1004
vn -0.8627 -0.3479 0.3670
vn 0.2804 -0.9243 0.2589
vn 0.3387 -0.9409 -0.0000
vn -0.6042 -0.7373 0.3023
vn -0.0000 -0.3517 0.9361
vn -0.0000 -0.3656 0.9308
vn -0.0000 -0.1787 0.9839
vn -0.1201 0.3375 0.9336
vn 0.6986 0.7019 0.1392
vn 0.6924 0.7030 0.1624
vn -0.0744 0.2462 0.9664
vn 0.6758 0.7222 0.1474
vn 0.4494 0.7455 0.4922
vn -0.1579 0.5475 0.8218
vn -0.0103 -0.9999 0.0107
vn -0.0070 -1.0000 -0.0000
vn -0.0111 -0.9999 0.0054
vn -0.0082 -0.9999 0.0093
vn 0.2804 -0.9243 -0.2589
vn -0.6042 -0.7373 -0.3023
vn -0.0000 -0.3517 -0.9361
vn -0.0000 -0.3656 -0.9308
vn -0.0000 -0.1787 -0.9839
vn -0.1201 0.3375 -0.9336
vn 0.6924 0.7030 -0.1624
vn 0.6986 0.7019 -0.1392
vn -0.0744 0.2462 -0.9664
vn 0.6758 0.7222 -0.1474
vn 0.4494 0.7455 -0.4922
vn -0.1579 0.5475 -0.8218
vn -0.0103 -0.9999 -0.0107
vn -0.0111 -0.9999 -0.0054
vn -0.0082 -0.9999 -0.0093
vn -0.0020 -1.0000 -0.0093
vn -0.3534 0.1068 -0.9294
vn -0.1090 0.2892 -0.9510
vn -0.2132 0.4288 -0.8779
vn -0.1651 0.1278 -0.9780
vn -0.6873 0.5138 -0.5134
vn -0.6120 0.7450 -0.2653
vn 0.0615 0.0368 -0.9974
vn -0.5816 -0.7526 -0.3088
vn -0.8431 -0.3097 -0.4396
vn -0.5916 -0.7549 -0.2829
vn 0.0615 0.0217 -0.9979
vn -0.8713 -0.2123 -0.4424
vn 0.8558 -0.5040 -0.1168
vn -0.3619 -0.0654 -0.9299
vn 0.6076 -0.7738 -0.1791
vn 0.1018 0.0368 -0.9941
vn 0.4192 -0.6198 -0.6634
vn -0.0313 -0.0716 -0.9969
vn -0.4948 -0.1429 -0.8572
vn -0.4842 0.0359 -0.8742
vn 0.0423 0.0411 -0.9983
vn 0.5375 -0.5013 -0.6781
vn 0.6844 -0.7291 -0.0000
vn 0.9880 -0.1545 -0.0000
vn 0.6333 -0.0918 -0.7685
vn 0.6076 0.2142 -0.7648
vn 0.9976 0.0690 -0.0000
vn 0.5845 -0.8114 -0.0000
vn 0.3985 -0.2190 -0.8906
vn -0.0058 0.6037 -0.7972
vn -0.0107 0.7208 -0.6931
vn -0.3554 0.1998 -0.9131
vn -0.2475 0.6258 -0.7396
vn -0.3988 0.9170 -0.0000
vn -0.0789 0.9969 -0.0000
vn -0.7885 0.6150 -0.0000
vn -0.0192 0.9998 -0.0000
vn -0.2973 0.3564 -0.8858
vn -0.5659 0.8245 -0.0001
vn -0.3333 0.9428 -0.0001
vn 0.2116 -0.3898 -0.8963
vn 0.3331 -0.9429 -0.0002
vn 0.1554 0.5260 -0.8361
vn 0.1372 0.9906 -0.0001
vn 0.5255 0.4837 -0.6999
vn 0.5058 -0.0459 -0.8614
vn 0.4200 -0.2646 -0.8681
vn 0.6126 0.3145 -0.7251
vn 0.0184 0.9659 -0.2582
vn 0.1035 0.9946 -0.0000
vn -0.6323 0.0309 -0.7741
vn -0.6836 -0.1958 -0.7031
vn -0.5784 -0.1457 -0.8026
vn -0.7192 -0.0678 -0.6914
vn -0.0020 -1.0000 0.0093
vn -0.1090 0.2892 0.9510
vn -0.3534 0.1068 0.9294
vn -0.2132 0.4288 0.8779
vn -0.1651 0.1278 0.9780
vn -0.6873 0.5138 0.5134
vn -0.6120 0.7450 0.2653
vn 0.0615 0.0368 0.9974
vn -0.8431 -0.3097 0.4396
vn -0.5816 -0.7526 0.3088
vn -0.5916 -0.7549 0.2829
vn 0.0615 0.0217 0.9979
vn -0.8713 -0.2123 0.4424
vn 0.8558 -0.5040 0.1168
vn -0.3619 -0.0654 0.9299
vn 0.6076 -0.7738 0.1791
vn 0.1018 0.0368 0.9941
vn 0.4192 -0.6198 0.6634
vn -0.0313 -0.0716 0.9969
vn -0.4948 -0.1429 0.8572
vn -0.4842 0.0359 0.8742
vn 0.0423 0.0411 0.9983
vn 0.5375 -0.5013 0.6781
vn 0.6333 -0.0918 0.7685
vn 0.6076 0.2142 0.7648
vn 0.3985 -0.2190 0.8906
vn -0.0058 0.6037 0.7972
vn -0.0107 0.7208 0.6931
vn -0.3554 0.1998 0.9131
vn -0.2475 0.6258 0.7396
vn -0.7192 -0.0678 0.6914
vn -0.6836 -0.1958 0.7031
vn 0.0184 0.9659 0.2582
vn -0.6323 0.0309 0.7741
vn -0.5784 -0.1457 0.8026
vn -0.2973 0.3565 0.8857
vn 0.2116 -0.3898 0.8963
vn 0.1555 0.5262 0.8360
vn 0.5256 0.4839 0.6997
vn 0.5060 -0.0459 0.8613
vn 0.4202 -0.2648 0.8679
vn 0.6128 0.3147 0.7249
vt 0.720701 0.346370
vt 0.799110 0.486042
vt 0.755933 0.400494
vt 0.451605 0.069154
vt 0.462961 0.090514
vt 0.424431 0.068857
vt 0.451605 0.069154
vt 0.441665 0.280419
vt 0.388270 0.312355
vt 0.557982 0.280419
vt 0.491715 0.203623
vt 0.560897 0.203623
vt 0.490565 0.090514
vt 0.491728 0.213403
vt 0.504688 0.070250
vt 0.462966 0.091107
vt 0.425638 0.069450
vt 0.482252 0.069423
vt 0.491715 0.203623
vt 0.560897 0.203623
vt 0.482262 0.091079
vt 0.540088 0.213364
vt 0.522995 0.296796
vt 0.441686 0.296862
vt 0.388312 0.345614
vt 0.549342 0.400494
vt 0.681405 0.403284
vt 0.685950 0.490278
vt 0.485432 0.486042
vt 0.315774 0.407665
vt 0.278079 0.381443
vt 0.183565 0.497066
vt 0.268280 0.486042
vt 0.269814 0.614207
vt 0.156462 0.590074
vt 0.156267 0.708637
vt 0.226607 0.732166
vt 0.368049 0.648378
vt 0.485432 0.624700
vt 0.262866 0.772416
vt 0.658185 0.622451
vt 0.398522 0.686611
vt 0.557836 0.654914
vt 0.344827 0.818635
vt 0.764795 0.693515
vt 0.255710 0.867537
vt 0.316292 0.882251
vt 0.291898 0.944994
vt 0.203792 0.809905
vt 0.185918 0.811686
vt 0.134479 0.872826
vt 0.192391 0.962694
vt 0.236993 0.978406
vt 0.132597 0.989223
vt 0.117627 0.906034
vt 0.077042 0.874575
vt 0.112945 0.979055
vt 0.764990 0.632935
vt 0.895622 0.710696
vt 0.833484 0.545103
vt 0.768009 0.547830
vt 0.540088 0.213364
vt 0.485432 0.486042
vt 0.368049 0.648378
vt 0.658185 0.622451
vt 0.189960 0.961722
s 1
usemtl Chicken1_Mat
f 65/1/1 5/2/2 28/3/3
f 18/4/4 8/5/5 1/6/6
f 16/7/7 2/6/8 3/5/9
f 4/3/10 5/2/2 65/1/1
f 65/1/1 25/8/11 6/9/12
f 25/8/11 65/1/1 24/10/13
f 24/10/13 26/11/14 25/8/11
f 26/11/14 24/10/13 7/12/15
f 7/12/15 22/13/16 26/11/14
f 26/11/14 22/13/16 8/5/17
f 8/5/5 9/14/18 26/11/19
f 8/5/17 22/13/16 21/15/20
f 9/14/18 8/5/5 19/16/21
f 8/5/5 18/4/4 19/16/21
f 19/16/21 18/4/4 17/17/22
f 21/15/20 1/6/23 8/5/17
f 21/15/24 18/4/25 1/6/26
f 18/4/25 21/15/24 10/18/27
f 62/8/28 65/1/1 6/9/12
f 65/1/1 62/8/28 11/10/29
f 63/19/30 11/10/29 62/8/28
f 11/10/29 63/19/30 12/20/31
f 60/13/32 12/20/31 63/19/30
f 63/19/30 3/5/33 60/13/32
f 3/5/9 63/19/34 13/14/35
f 3/5/33 59/15/36 60/13/32
f 13/14/35 14/16/37 3/5/9
f 3/5/9 14/16/37 16/7/7
f 14/16/37 15/17/38 16/7/7
f 2/6/39 59/15/36 3/5/33
f 16/7/25 59/15/40 2/6/41
f 59/15/40 16/7/25 57/18/42
f 10/18/27 17/17/43 18/4/25
f 10/18/44 19/16/45 17/17/46
f 19/16/45 10/18/44 20/21/47
f 21/15/48 20/21/47 10/18/44
f 20/21/47 21/15/48 22/13/49
f 20/21/47 9/14/50 19/16/45
f 22/13/51 23/22/52 20/21/53
f 9/14/50 20/21/47 23/22/54
f 23/22/52 22/13/51 7/12/55
f 24/10/13 23/22/52 7/12/55
f 9/14/56 25/8/11 26/11/56
f 27/23/57 23/22/52 24/10/13
f 27/23/57 9/14/50 23/22/54
f 28/3/3 24/10/13 65/1/1
f 28/3/3 27/23/57 24/10/13
f 25/8/11 9/14/56 29/24/58
f 29/24/59 9/14/50 27/23/57
f 30/25/60 25/8/11 29/24/58
f 30/25/60 6/9/12 25/8/11
f 27/23/57 31/26/61 29/24/59
f 31/26/61 30/25/60 29/24/59
f 27/23/57 28/3/3 32/27/62
f 32/27/62 31/26/61 27/23/57
f 28/3/3 33/28/63 32/27/62
f 33/28/63 31/26/61 32/27/62
f 33/28/63 28/3/3 5/2/2
f 30/25/60 31/26/61 34/29/64
f 31/26/61 33/28/63 34/29/64
f 35/30/65 6/9/12 30/25/60
f 34/29/64 35/30/65 30/25/60
f 6/9/12 35/30/65 36/31/66
f 35/30/65 37/32/67 36/31/66
f 37/32/67 35/30/65 38/33/68
f 35/30/65 34/29/64 38/33/68
f 39/34/69 37/32/67 38/33/68
f 34/29/64 39/34/69 38/33/68
f 37/32/67 39/34/69 40/35/70
f 76/36/71 40/35/70 41/37/72
f 40/35/70 39/34/69 41/37/72
f 39/34/69 34/29/64 42/38/73
f 42/38/73 41/37/72 39/34/69
f 42/38/73 34/29/64 43/39/74
f 41/37/72 42/38/73 44/40/75
f 34/29/64 45/41/76 43/39/74
f 45/41/76 34/29/64 33/28/63
f 43/39/74 80/42/77 42/38/73
f 80/42/77 44/40/75 42/38/73
f 80/42/77 43/39/74 81/43/78
f 45/41/76 81/43/78 43/39/74
f 44/40/75 80/42/77 82/44/79
f 81/43/78 45/41/76 84/45/80
f 82/44/79 46/46/81 44/40/75
f 46/46/81 82/44/79 89/47/82
f 46/46/81 89/47/82 47/48/83
f 44/40/75 48/49/84 41/37/72
f 48/49/84 44/40/75 46/46/81
f 48/49/84 76/50/71 41/37/72
f 48/49/84 91/51/85 76/50/71
f 47/48/83 49/52/86 46/46/81
f 50/53/87 49/52/86 47/48/83
f 51/54/88 49/52/86 50/53/87
f 46/46/81 52/55/89 48/49/84
f 52/55/89 46/46/81 49/52/86
f 52/55/89 91/51/85 48/49/84
f 52/55/89 49/52/86 51/54/88
f 91/51/85 52/55/89 53/56/90
f 51/54/88 94/57/91 52/55/89
f 94/57/91 53/56/90 52/55/89
f 54/58/92 84/45/80 45/41/76
f 84/45/80 54/58/92 55/59/93
f 54/58/94 86/60/95 55/59/96
f 54/58/94 45/41/76 56/61/97
f 86/60/95 54/58/94 56/61/97
f 45/41/76 33/28/63 56/61/97
f 56/61/97 5/2/2 86/60/95
f 5/2/2 56/61/97 33/28/63
f 15/17/98 57/18/42 16/7/25
f 14/16/99 57/18/100 15/17/101
f 57/18/100 14/16/99 58/21/102
f 58/21/102 59/15/103 57/18/100
f 59/15/103 58/21/102 60/13/104
f 13/14/105 58/21/102 14/16/99
f 61/62/106 60/13/107 58/21/108
f 58/21/102 13/14/105 61/62/109
f 60/13/107 61/62/106 12/20/110
f 11/10/29 12/20/110 61/62/106
f 62/8/28 13/14/111 63/19/111
f 64/23/112 11/10/29 61/62/106
f 64/23/112 61/62/109 13/14/105
f 65/1/1 11/10/29 4/3/10
f 64/23/112 4/3/10 11/10/29
f 13/14/111 62/8/28 66/24/113
f 13/14/105 66/24/114 64/23/112
f 66/24/113 62/8/28 67/25/115
f 6/9/12 67/25/115 62/8/28
f 64/23/112 66/24/114 68/26/116
f 67/25/115 68/26/116 66/24/114
f 4/3/10 64/23/112 69/27/117
f 69/27/117 64/23/112 68/26/116
f 70/28/118 4/3/10 69/27/117
f 70/28/118 69/27/117 68/26/116
f 4/3/10 70/28/118 5/2/2
f 68/26/116 67/25/115 71/63/119
f 71/63/119 70/28/118 68/26/116
f 6/9/12 72/30/120 67/25/115
f 72/30/120 71/63/119 67/25/115
f 72/30/120 6/9/12 36/31/66
f 37/32/67 72/30/120 36/31/66
f 37/32/67 73/33/121 72/30/120
f 71/63/119 72/30/120 73/33/121
f 37/32/67 74/34/122 73/33/121
f 74/34/122 71/63/119 73/33/121
f 74/34/122 37/32/67 40/35/70
f 75/37/123 40/35/70 76/36/71
f 40/35/70 75/37/123 74/34/122
f 71/63/119 74/34/122 77/64/124
f 75/37/123 77/64/124 74/34/122
f 78/39/125 71/63/119 77/64/124
f 77/64/124 75/37/123 79/40/126
f 80/42/77 78/39/125 77/64/124
f 79/40/126 80/42/77 77/64/124
f 78/39/125 80/42/77 81/43/78
f 80/42/77 79/40/126 82/44/79
f 81/43/78 83/65/127 78/39/125
f 83/65/127 71/63/119 78/39/125
f 71/63/119 83/65/127 70/28/118
f 83/65/127 81/43/78 84/45/80
f 70/28/118 83/65/127 85/61/128
f 85/61/128 5/2/2 70/28/118
f 5/2/2 85/61/128 86/60/129
f 87/58/130 83/65/127 84/45/80
f 87/58/131 85/61/128 83/65/127
f 86/60/129 85/61/128 87/58/131
f 84/45/80 55/59/93 87/58/130
f 87/58/131 55/59/132 86/60/129
f 88/46/133 82/44/79 79/40/126
f 88/46/133 89/47/82 82/44/79
f 88/46/133 47/48/83 89/47/82
f 79/40/126 90/49/134 88/46/133
f 75/37/123 90/49/134 79/40/126
f 76/50/71 90/49/134 75/37/123
f 90/49/134 76/50/71 91/51/85
f 47/48/83 88/46/133 92/66/135
f 92/66/135 50/53/87 47/48/83
f 51/54/136 50/53/87 92/66/135
f 93/55/137 88/46/133 90/49/134
f 88/46/133 93/55/137 92/66/135
f 90/49/134 91/51/85 93/55/137
f 92/66/135 93/55/137 51/54/136
f 93/55/137 91/51/85 53/56/138
f 93/55/137 94/57/139 51/54/136
f 53/56/138 94/57/139 93/55/137
